<svg width="136" height="136" viewBox="0 0 136 136" fill="none" xmlns="http://www.w3.org/2000/svg">
<g filter="url(#filter0_d_70_64905)">
<circle cx="68" cy="64" r="64" fill="white"/>
</g>
<path d="M67.2947 84.2652C77.5507 84.2652 85.8648 75.9511 85.8648 65.6951C85.8648 55.4391 77.5507 47.125 67.2947 47.125C57.0387 47.125 48.7246 55.4391 48.7246 65.6951C48.7246 75.9511 57.0387 84.2652 67.2947 84.2652Z" fill="#EAEAEA"/>
<path d="M67.2788 31.1904C57.755 31.1904 49.1331 35.0504 42.8936 41.2926L54.1471 52.5461C57.5082 49.1849 62.1508 47.1077 67.2788 47.1077C72.4068 47.1077 77.052 49.1849 80.4105 52.5461L91.664 41.2926C85.4244 35.0504 76.8026 31.1904 67.2788 31.1904Z" fill="#FA7B16"/>
<path d="M42.8873 41.3027C36.6451 47.5449 32.7852 56.1668 32.7852 65.6906C32.7852 75.2144 36.6451 83.8363 42.8873 90.0758L54.1408 78.8223C50.7796 75.4611 48.7024 70.8186 48.7024 65.6906C48.7024 60.5626 50.7796 55.9174 54.1408 52.5589L42.8873 41.3027Z" fill="#F6BE32"/>
<path d="M80.4209 52.5509C83.7821 55.9121 85.8593 60.5546 85.8593 65.6826C85.8593 70.8106 83.7821 75.4558 80.4209 78.8143L91.6744 90.0678C97.9166 83.8283 101.777 75.2064 101.777 65.6826C101.777 56.1588 97.9166 47.5369 91.6744 41.2974L80.4209 52.5509Z" fill="#5D76F0"/>
<path d="M38.1162 65.6898L63.3185 73.1603C64.1515 73.4548 66.3614 73.6484 67.2978 73.6484C71.6963 73.6484 75.2564 70.0883 75.2564 65.6925C75.2564 61.2967 71.6963 57.7312 67.2978 57.7312C66.364 57.7312 64.2364 57.9222 63.4007 58.2193L38.1162 65.6898Z" fill="#434854"/>
<path d="M38.1162 65.6898L63.3185 73.1603C64.1515 73.4548 66.3614 73.6484 67.2978 73.6484C71.6963 73.6484 75.2564 70.0883 75.2564 65.6925C75.2564 61.2967 71.6963 57.7312 67.2978 57.7312C66.364 57.7312 64.2364 57.9222 63.4007 58.2193L38.1162 65.6898Z" fill="#434854"/>
<path d="M67.2847 68.3219C68.7499 68.3219 69.9376 67.1341 69.9376 65.669C69.9376 64.2038 68.7499 63.0161 67.2847 63.0161C65.8196 63.0161 64.6318 64.2038 64.6318 65.669C64.6318 67.1341 65.8196 68.3219 67.2847 68.3219Z" fill="#EAEAEA"/>
<path opacity="0.1" d="M67.2725 33.8433C85.8718 33.8433 100.991 48.5773 101.694 67.0042C101.712 66.5612 101.76 66.1261 101.76 65.6778C101.76 46.6301 86.3201 31.1904 67.2725 31.1904C48.2249 31.1904 32.7852 46.6301 32.7852 65.6778C32.7852 66.1261 32.8356 66.5612 32.8515 67.0042C33.5545 48.5773 48.6732 33.8433 67.2725 33.8433Z" fill="black"/>
<path d="M80.4105 78.8186C77.0493 82.1798 72.4068 84.257 67.2788 84.257C62.1508 84.257 57.5056 82.1798 54.1471 78.8186L42.8936 90.0721C49.1331 96.3143 57.755 100.174 67.2788 100.174C76.8026 100.174 85.4244 96.3143 91.664 90.0721L80.4105 78.8186Z" fill="#EAEAEA"/>
<g opacity="0.2">
<path d="M67.2679 73.6267C66.3314 73.6267 64.1216 73.4357 63.2886 73.1386L44.745 67.6418L38.5293 70.7351L64.6468 73.7169C65.5196 73.8628 67.7295 73.6665 68.6527 73.5047C68.6872 73.4994 68.7137 73.4835 68.7482 73.4755C68.268 73.5657 67.7746 73.6267 67.2679 73.6267Z" fill="black"/>
</g>
<path d="M17.2864 74.981C15.2635 68.9425 15.1088 62.6563 16.0058 56.5081C19.6153 31.7243 36.5966 15.8656 59.7027 10.8035C62.1231 10.2728 64.6279 10.3471 67.0518 10.5841C69.4757 10.8212 71.0975 12.3529 71.1573 14.8716C71.2206 17.4504 69.8521 19.1803 67.1996 19.6154C64.547 20.0505 61.9226 19.8029 59.2947 20.0788C36.6423 22.4454 18.961 41.2048 17.4728 64.2977C17.2407 67.8777 17.7508 71.3975 17.2864 74.981Z" fill="url(#paint0_linear_70_64905)"/>
<path d="M100.335 102.216C97.2357 106.348 93.2287 109.454 88.7257 111.888C65.507 124.428 35.4494 117.088 20.4276 95.219C19.8981 94.4966 19.4275 93.7324 19.0204 92.9338C17.8982 90.5743 18.2359 88.3881 20.3361 86.8245C22.3414 85.3281 24.4557 85.6111 26.2147 87.3799C27.2039 88.3472 28.0573 89.4457 28.7511 90.645C41.3842 113.455 71.7761 121.184 95.5435 105.619C97.1829 104.558 98.7414 103.355 100.335 102.216Z" fill="url(#paint1_linear_70_64905)"/>
<path d="M81.0449 17.6174C89.2629 18.9971 96.2145 22.9237 102.244 28.4457C118.68 43.5332 124.116 67.2487 116.049 88.1978C115.229 90.3203 114.336 92.4428 112.745 94.1338C111.155 95.8247 109.263 96.3412 107.215 94.905C105.323 93.5784 104.443 91.8167 105.365 89.5103C105.862 88.3218 106.42 87.16 107.036 86.0294C119.831 61.6205 110.993 33.1329 86.6913 20.451C84.8162 19.4782 82.92 18.5619 81.0449 17.6174Z" fill="url(#paint2_linear_70_64905)"/>
<defs>
<filter id="filter0_d_70_64905" x="0" y="0" width="136" height="136" filterUnits="userSpaceOnUse" color-interpolation-filters="sRGB">
<feFlood flood-opacity="0" result="BackgroundImageFix"/>
<feColorMatrix in="SourceAlpha" type="matrix" values="0 0 0 0 0 0 0 0 0 0 0 0 0 0 0 0 0 0 127 0" result="hardAlpha"/>
<feOffset dy="4"/>
<feGaussianBlur stdDeviation="2"/>
<feComposite in2="hardAlpha" operator="out"/>
<feColorMatrix type="matrix" values="0 0 0 0 0 0 0 0 0 0 0 0 0 0 0 0 0 0 0.25 0"/>
<feBlend mode="normal" in2="BackgroundImageFix" result="effect1_dropShadow_70_64905"/>
<feBlend mode="normal" in="SourceGraphic" in2="effect1_dropShadow_70_64905" result="shape"/>
</filter>
<linearGradient id="paint0_linear_70_64905" x1="70.8928" y1="13.235" x2="12.328" y2="80.9012" gradientUnits="userSpaceOnUse">
<stop stop-color="#FA7914"/>
<stop offset="1" stop-color="#F89B23" stop-opacity="0.7"/>
</linearGradient>
<linearGradient id="paint1_linear_70_64905" x1="21.5995" y1="89.6849" x2="100.049" y2="106.043" gradientUnits="userSpaceOnUse">
<stop stop-color="#5D76F0"/>
<stop offset="1" stop-color="#5EA5F6" stop-opacity="0.7"/>
</linearGradient>
<linearGradient id="paint2_linear_70_64905" x1="81.2247" y1="17.9419" x2="111.545" y2="98.0713" gradientUnits="userSpaceOnUse">
<stop stop-color="#B2BAFF"/>
<stop offset="1" stop-color="#8067F6"/>
</linearGradient>
</defs>
</svg>
