<svg width="56" height="55" viewBox="0 0 56 55" fill="none" xmlns="http://www.w3.org/2000/svg">
<path d="M2.7861 54.4341C4.85839 54.3702 10.2558 54.2036 12.2596 54.1212C12.7689 54.1073 14.1393 54.0647 14.6282 54.0517C15.6569 54.1304 16.6644 53.3758 16.9607 52.397C17.6413 52.8007 18.7848 53.4785 18.7848 53.4785C19.9636 54.2017 21.233 55.0601 22.6942 54.8999C28.5444 54.8508 34.4307 55.0045 40.2772 54.9999C41.2838 54.899 42.2866 54.311 42.9088 53.611L46.7515 49.8303L54.437 42.2689C57.213 39.316 54.1148 35.2464 50.8952 36.14C50.8795 35.4853 50.8035 34.8362 50.6665 34.1899C49.9665 30.8463 47.7553 27.8823 44.9468 26.0415C44.8237 23.5451 44.8005 21.0496 44.833 18.5532C44.8811 18.0338 44.6996 17.456 44.3561 17.0041C46.9867 13.9559 49.3266 10.5872 51.6999 7.33803C51.9314 7.0019 52.5703 6.13521 52.7916 5.8102C53.3546 5.17406 53.5888 4.20551 53.1573 3.44067C52.9314 2.97584 52.4629 2.71286 52.1073 2.41285L50.1387 0.868354C49.6998 0.429449 48.9368 0.295185 48.3396 0.540564C44.5755 0.563713 40.8106 0.510934 37.0466 0.339631C33.1798 0.281296 29.3037 -0.436322 25.4749 0.409078C24.9323 0.299815 24.3082 0.466488 23.9498 0.818352L23.3313 1.30911L22.0942 2.29063L21.4756 2.78138C20.5312 3.41567 20.4839 4.93146 21.2247 5.69908C23.8415 9.22791 26.5832 13.078 29.3815 16.6856C28.9333 17.1976 28.6778 17.8865 28.7009 18.5727C28.7074 21.0607 28.8407 23.5451 28.987 26.0294C24.6054 29.649 22.7924 35.4983 23.9767 41.0161C23.4998 40.9938 23.0211 40.9883 22.5442 41.0216C20.583 41.1744 18.2913 41.8568 16.8875 43.4106C16.5357 42.6124 15.7069 42.0568 14.8245 42.0494C11.5521 41.9726 6.20751 41.792 2.98333 41.7059C1.46383 41.5494 0.0341481 42.88 0.0785941 44.3986L0.0619268 45.1884C0.00822125 47.2931 -0.0269652 49.3988 0.0267404 51.5044C-0.113079 52.9758 1.23975 54.5277 2.7861 54.4341ZM49.5655 1.54801C49.9017 1.84987 51.5924 3.3777 51.8906 3.6453C52.2119 3.9055 52.2721 4.30088 52.0906 4.62775L48.9637 8.37788C46.8849 10.9196 44.7607 13.4271 42.9014 16.1411C42.5144 16.08 42.1079 16.0754 41.7653 16.0559C40.4726 15.9837 39.18 15.8828 37.8873 15.7383V15.8355L37.8392 15.7763C40.5485 11.6511 43.4875 7.70656 46.5126 3.81661L48.0627 1.85172C48.5053 1.20725 49.0044 1.01743 49.5637 1.54708L49.5655 1.54801ZM33.3131 10.0576L31.6084 7.84267C32.3695 7.9186 33.1316 7.87323 33.8928 7.86212C36.6632 7.71119 39.6865 7.60285 42.494 7.75656C40.6606 10.0539 38.7753 12.3104 36.8058 14.4929C35.6308 13.0225 34.4641 11.5456 33.3131 10.0566V10.0576ZM37.0466 1.31559C40.5874 1.15448 44.1274 1.10447 47.6682 1.11744C46.1997 3.02584 44.7246 4.93239 43.2292 6.82412C41.168 6.96209 39.1077 6.9769 37.0466 6.90375C35.2354 6.87783 32.6872 6.52504 30.8815 6.8982L29.462 5.05461L27.5685 2.52767C27.3509 2.27674 27.0879 1.87117 26.8045 1.48782C30.2 1.93969 33.6261 1.36745 37.0466 1.31559ZM22.2303 4.91387C21.8192 4.47867 21.7831 4.05087 22.2118 3.65919C22.5831 3.31659 23.6035 2.44619 23.9859 2.08969C24.2378 1.90728 24.723 1.3267 25.0267 1.30448C25.4443 1.24892 25.6406 1.4193 25.9258 1.80265C29.9084 6.79264 34.0474 12.0993 37.8901 17.3375V17.3967L37.9309 17.393C38.4142 18.0523 38.8911 18.7097 39.3642 19.3653C38.6364 19.3375 37.9077 19.332 37.1799 19.3736C36.0688 19.4283 34.9567 19.4773 33.8455 19.5523C31.4677 16.1782 28.8296 13.0058 26.2406 9.79645L22.2322 4.91387H22.2303ZM33.9872 20.9996C35.9743 21.1228 37.9633 21.2691 39.9513 21.1543C40.0078 22.0487 40.0707 22.9423 40.142 23.8368C38.0429 23.4942 35.8891 23.5293 33.8057 23.971C33.8603 22.9812 33.9215 21.9895 33.9872 20.9996ZM26.8953 29.5786C27.7666 28.4814 28.8361 27.56 30.0028 26.8322C30.1528 26.7369 30.2602 26.572 30.2723 26.3813C30.4278 23.7794 30.5704 21.1783 30.5778 18.5736C30.5723 18.4671 30.5769 18.343 30.5926 18.2236C31.2871 19.0949 31.9844 19.9524 32.6844 20.7746C32.7696 22.0348 32.8473 23.2941 32.9149 24.5544C32.927 24.8248 33.2112 25.0164 33.4668 24.9238C35.1798 24.3377 37.0753 24.159 38.8568 24.5368C39.505 24.6581 40.118 24.8886 40.7384 25.0831C41.0245 25.1081 41.2773 24.897 41.3023 24.6099C41.418 23.3182 41.4986 22.0256 41.5801 20.7329C41.6004 20.282 41.3652 19.9033 41.0236 19.6616C40.3661 18.8745 39.7235 18.0754 39.0744 17.281C39.9717 17.1976 40.8699 17.1273 41.7671 17.0773L42.7042 17.0356C43.4903 17.0439 44.1116 17.7301 44.0764 18.5514C44.1107 21.1367 44.0885 23.721 43.9542 26.3063C43.945 26.4656 44.0283 26.6248 44.1681 26.7165C46.6793 28.6536 48.2775 31.4972 48.8396 34.5538C48.997 35.4094 49.0831 36.2992 49.1276 37.1632L48.5007 37.6863C48.0516 38.0586 47.5562 38.4725 47.0432 38.903C47.4951 36.5585 47.0488 34.0242 45.8061 31.9926C43.9366 28.8147 40.2393 26.9841 36.7216 27.248C29.5056 27.5461 25.2221 35.5492 28.2953 41.8078C27.837 41.7689 27.4342 41.6698 26.9027 41.4855C26.4943 41.3698 26.0795 41.279 25.6619 41.2031C23.7535 37.6039 24.347 32.7769 26.8953 29.5759V29.5786ZM42.2393 42.9884C41.7273 41.8791 40.4985 40.079 39.5513 38.8252C39.4476 38.6882 39.3494 38.5465 39.2457 38.4095C38.6031 37.5576 37.9438 36.7131 37.2799 35.9187C36.8456 35.3992 36.4197 34.9131 36.028 34.4825C35.9669 34.4158 35.8706 34.3936 35.7937 34.4288C35.6993 34.4714 35.6549 34.5686 35.6845 34.6483C36.0993 35.765 37.0382 37.0882 38.0457 38.4225C38.1503 38.5614 38.2531 38.703 38.3568 38.8419C39.0346 39.7438 39.7346 40.6374 40.4402 41.479C40.7004 41.7892 40.9254 42.1763 41.155 42.5198C40.6393 42.1189 40.0291 41.8513 39.3902 41.7402C39.0735 41.2031 38.5003 40.5475 37.8753 39.8707C37.7846 39.7725 37.6975 39.6697 37.6068 39.5706C37.0401 38.9512 36.4549 38.3336 35.8965 37.7937C35.4798 37.39 35.0974 37.0428 34.8085 36.7909C34.7567 36.7455 34.6909 36.7298 34.6409 36.7446C34.5678 36.7659 34.5243 36.815 34.5187 36.8585C34.4465 37.4622 35.3252 38.5243 36.3354 39.6244C36.4252 39.7225 36.5123 39.8234 36.6021 39.9225C37.1577 40.5346 37.7318 41.1383 38.2827 41.6828C37.9873 41.6828 37.5382 41.692 37.0873 41.6994C36.8382 41.455 36.5345 41.1874 36.1975 40.9161C35.6428 40.4679 35.0233 40.016 34.5131 39.6707C34.0029 39.3253 33.6029 39.0854 33.4881 39.0623C32.6705 39.0493 33.5168 39.9318 34.6261 40.8281C35.0095 41.1383 35.4132 41.4365 35.8012 41.7133C35.2067 41.7226 31.8408 41.7772 30.151 41.8041C28.149 39.4734 27.7185 35.9048 29.0565 33.1121C31.9482 26.6498 41.2319 26.5174 44.4052 32.788C45.2515 34.3936 45.5117 36.2113 45.2904 37.9715C45.17 37.5261 44.9839 36.9687 44.7496 36.3881C44.7117 36.2946 44.67 36.2029 44.6292 36.1103C44.3524 35.4909 44.0385 34.8696 43.7357 34.2908C43.5098 33.8593 43.2903 33.4677 43.0718 33.1695C43.0366 33.1213 42.9847 33.1 42.9394 33.1065C42.8783 33.1149 42.8431 33.1445 42.844 33.1723C42.8579 33.5501 43.1292 34.5788 43.5764 35.6575C43.6172 35.7566 43.6635 35.8539 43.7088 35.952C43.9977 36.59 44.3237 37.227 44.6441 37.8197C44.8209 38.1474 44.9931 38.4493 45.1663 38.7169C45.045 39.2984 44.8802 39.8716 44.6533 40.4216C44.2052 39.4919 43.6487 38.2854 42.9727 37.0567C42.9033 36.9298 42.831 36.8039 42.7579 36.6789C42.268 35.84 41.7467 35.0094 41.2254 34.2019C40.8754 33.6584 40.5226 33.1371 40.1596 32.6713C40.1069 32.6028 40.018 32.5787 39.943 32.6093C39.855 32.6454 39.8143 32.7324 39.8467 32.8047C40.3059 33.8149 40.9337 35.1307 41.6727 36.4502C41.7495 36.5872 41.8301 36.7215 41.9097 36.8567C42.4245 37.7326 42.9709 38.5984 43.5255 39.4355C43.8403 39.9105 44.1552 40.3716 44.4746 40.805C44.3996 40.9651 44.3228 41.1226 44.2394 41.2781C44.0533 41.4365 43.8681 41.5939 43.6848 41.7504C42.8051 40.2133 41.843 38.7317 40.8847 37.2474C39.7115 35.5298 38.5522 33.8029 37.2466 32.1732C37.1753 32.0843 37.0493 32.0565 36.9456 32.112C36.829 32.175 36.7864 32.3204 36.8493 32.4371C37.8734 34.2529 38.9605 36.0279 40.1115 37.7613C41.1023 39.253 42.1486 40.7077 43.2329 42.1374C42.8931 42.4282 42.5625 42.7115 42.2403 42.9874L42.2393 42.9884ZM25.7693 42.4828C26.8175 42.7865 28.112 43.2874 29.1833 43.1689C31.3667 43.2319 37.0419 43.243 39.117 43.3458C39.9272 43.4884 40.6217 44.1227 40.7773 44.8616C40.7819 44.8838 40.793 44.9023 40.7985 44.9236C40.8124 46.1311 39.9754 47.3515 38.6651 47.382L38.1911 47.4311C35.0511 47.7617 31.8242 47.8561 28.712 47.2209C27.3518 47.0089 27.3647 49.0932 28.712 48.8784C31.2241 48.3645 33.7548 48.3404 36.2956 48.4932L38.1911 48.6682C38.9003 48.7617 39.6874 48.8219 40.3856 48.5349C41.7643 48.0858 42.8033 46.4227 42.5644 44.9894C45.0959 42.9235 48.2238 40.3512 50.6156 38.316C52.5017 36.7678 54.8657 39.3216 53.2518 41.1077C50.8072 43.6828 44.4913 50.3451 42.1236 52.8396C41.005 54.3286 39.1411 54.01 37.5068 54.0675C33.9159 54.1388 30.3241 54.1425 26.7323 54.1601L24.0387 54.1712C23.3257 54.1304 22.1062 54.2573 21.4553 54.0378C20.7441 53.8767 19.8552 53.1489 19.1858 52.8044L17.0848 51.5248C17.0996 49.1932 17.107 46.8626 17.1468 44.531C19.1811 42.1393 22.8479 41.7467 25.7693 42.4828ZM2.78517 43.2865C4.31115 43.243 6.95939 43.1708 8.5076 43.1134L14.8226 42.9384C15.5449 42.9208 16.1847 43.4745 16.269 44.2449C16.2486 44.2801 16.2199 44.3097 16.2005 44.3458C16.244 46.8153 16.2495 49.284 16.2653 51.7535C16.2653 51.7729 16.2764 51.7896 16.2792 51.809C16.244 52.4072 15.844 52.9489 15.2717 53.1082C14.9495 53.2285 14.2022 53.1174 13.8365 53.135C10.9688 53.0545 5.70379 52.847 2.78425 52.7757C2.1157 52.7128 1.74995 52.2081 1.83977 51.5035C1.90181 49.1377 1.84347 46.7644 1.78884 44.3986C1.73884 43.8088 2.20552 43.3087 2.78332 43.2856L2.78517 43.2865Z" fill="#FF7301"/>
</svg>
