<svg width="55" height="55" viewBox="0 0 55 55" fill="none" xmlns="http://www.w3.org/2000/svg">
<path d="M35.6215 16.832C35.4009 16.2028 34.8275 15.7963 34.1607 15.7963H30.2066L28.9715 11.9986C28.7602 11.349 28.1822 10.9292 27.4992 10.9292C26.8161 10.9292 26.2382 11.349 26.027 11.9986L24.7919 15.7963H20.8378C20.171 15.7963 19.5976 16.2028 19.377 16.832C19.1562 17.4611 19.3501 18.1369 19.8708 18.5533L23.1046 21.1403C23.1046 21.1403 21.9216 25.275 21.9179 25.2875C21.6414 26.254 22.4045 27.266 23.4068 27.266C23.7254 27.266 24.0436 27.165 24.3195 26.9636L27.4992 24.6414L30.6792 26.9637C31.2214 27.3598 31.9276 27.3674 32.4783 26.9831C33.0289 26.5988 33.2653 25.9334 33.0806 25.2877L31.8939 21.1404L35.1276 18.5534C35.6484 18.1369 35.8422 17.4611 35.6215 16.832ZM30.8548 19.9085C30.3659 20.2997 30.1613 20.9413 30.3336 21.5432L31.4814 25.5548L28.4122 23.3133C27.866 22.9144 27.1321 22.9144 26.5861 23.3133L23.5168 25.5548L24.6646 21.5432C24.8369 20.9413 24.6323 20.2996 24.1433 19.9085L21.0168 17.4072H24.8373C25.5099 17.4072 26.1016 16.9775 26.3096 16.3378L27.4992 12.6805L28.6886 16.338C28.8967 16.9776 29.4884 17.4073 30.1609 17.4073H33.9814L30.8548 19.9085Z" fill="#FF7301"/>
<path d="M46.596 19.0968C46.596 17.2553 45.556 15.5462 43.9316 14.6937C44.912 13.1434 44.9581 11.1432 44.0374 9.54841C43.1167 7.95373 41.3599 6.99553 39.5285 7.06739C39.6024 5.23456 38.6422 3.47929 37.0475 2.55857C35.4529 1.63797 33.4525 1.68395 31.9022 2.66428C31.0497 1.04017 29.3405 0 27.4992 0C25.6576 0 23.9484 1.04006 23.0962 2.66428C21.5457 1.68373 19.5453 1.63786 17.9508 2.55857C16.356 3.47918 15.3958 5.23456 15.4697 7.06739C13.637 6.9952 11.8814 7.95384 10.9608 9.54841C10.0401 11.1432 10.0862 13.1435 11.0666 14.6937C9.4424 15.5462 8.40234 17.2553 8.40234 19.0968C8.40234 20.9384 9.4423 22.6474 11.0666 23.4999C10.0862 25.0502 10.0401 27.0504 10.9608 28.6452C11.8815 30.2399 13.6368 31.1983 15.4697 31.1262C15.4052 32.7273 16.1297 34.2692 17.3769 35.2472L12.9025 51.2869C12.7639 51.7833 12.9155 52.3064 13.2979 52.652C13.6803 52.9974 14.2158 53.0955 14.696 52.9074L18.0843 51.5804L20.2963 54.4696C20.5558 54.8087 20.9498 54.9997 21.365 54.9997C21.9671 54.9997 22.5079 54.5917 22.6698 54.0115L27.0873 38.176C27.2236 38.1875 27.361 38.1934 27.4992 38.1934C27.6373 38.1934 27.7747 38.1875 27.911 38.176L29.0326 42.1967C29.132 42.5528 29.4555 42.7859 29.8081 42.7859C29.8796 42.7859 29.9526 42.7762 30.025 42.7562C30.4535 42.6366 30.704 42.1923 30.5844 41.7638L29.4731 37.7803C30.5 37.3331 31.3688 36.5455 31.9023 35.5291C33.1783 36.3362 34.7594 36.5101 36.1681 36.0329L40.404 51.2171L37.3193 50.0092C36.7617 49.7906 36.1182 49.9701 35.7541 50.4455L33.74 53.0761L31.5863 45.3557C31.4669 44.9274 31.023 44.6771 30.5941 44.7962C30.1656 44.9158 29.9151 45.3601 30.0346 45.7886L32.3285 54.0114C32.467 54.5079 32.8674 54.877 33.3735 54.9748C33.8734 55.0714 34.3927 54.8737 34.702 54.4697L36.914 51.5804L40.3023 52.9074C40.7821 53.0954 41.3179 52.9976 41.7003 52.6521C42.0829 52.3065 42.2343 51.7834 42.0959 51.2869L37.6213 35.2473C38.8686 34.2692 39.5931 32.7273 39.5286 31.1263C41.3623 31.1996 43.1169 30.2399 44.0375 28.6453C44.9582 27.0505 44.912 25.0504 43.9317 23.5C45.5559 22.6475 46.596 20.9384 46.596 19.0968ZM21.2583 53.0763L19.2442 50.4457C18.8801 49.9701 18.2364 49.7906 17.6793 50.0093L14.5945 51.2174L18.8302 36.0332C20.2389 36.5104 21.82 36.3365 23.0962 35.5294C23.6296 36.5457 24.4984 37.3333 25.5253 37.7806L21.2583 53.0763ZM43.078 22.1262C42.6959 22.3097 42.4133 22.6513 42.3029 23.0635C42.1924 23.4757 42.2662 23.9128 42.5055 24.2628C43.2307 25.3237 43.2844 26.7277 42.6423 27.8399C42.0003 28.952 40.7576 29.6073 39.4762 29.5099C39.0535 29.4778 38.6381 29.6322 38.3363 29.9339C38.0346 30.2356 37.8799 30.6511 37.9121 31.0739C38.0097 32.3551 37.3543 33.598 36.2421 34.2401C35.13 34.882 33.726 34.8283 32.6651 34.1033C32.3151 33.8641 31.878 33.7901 31.4658 33.9007C31.0536 34.0112 30.712 34.2936 30.5287 34.6757C29.9724 35.8343 28.7834 36.5828 27.4993 36.5828C26.2151 36.5828 25.026 35.8343 24.4699 34.6757C24.2864 34.2936 23.9448 34.0112 23.5326 33.9007C23.4071 33.8671 23.2794 33.8506 23.1524 33.8506C22.8624 33.8506 22.5768 33.9369 22.3333 34.1033C21.2726 34.8285 19.8683 34.8822 18.7563 34.2401C17.6442 33.598 16.9887 32.3553 17.0863 31.0738C17.1184 30.6511 16.9639 30.2356 16.6621 29.9339C16.3604 29.6322 15.9451 29.4778 15.5224 29.5099C14.2412 29.607 12.9982 28.952 12.3561 27.8399C11.7141 26.7277 11.7678 25.3237 12.493 24.2628C12.7322 23.9129 12.806 23.4757 12.6956 23.0635C12.585 22.6513 12.3025 22.3097 11.9204 22.1262C10.762 21.5701 10.0135 20.381 10.0135 19.0968C10.0135 17.8126 10.762 16.6235 11.9203 16.0674C12.3025 15.8839 12.585 15.5424 12.6956 15.1303C12.8061 14.718 12.7322 14.2809 12.493 13.9309C11.7678 12.87 11.7141 11.466 12.3561 10.3539C12.9982 9.24172 14.2416 8.58677 15.5223 8.68388C15.9452 8.71686 16.3604 8.56152 16.6621 8.25988C16.9639 7.95813 17.1186 7.54263 17.0863 7.11992C16.9887 5.83849 17.6442 4.59572 18.7563 3.95366C19.8683 3.31171 21.2725 3.36521 22.3333 4.09041C22.6832 4.32964 23.1204 4.40365 23.5325 4.29301C23.9447 4.18269 24.2864 3.90017 24.4699 3.51796C25.026 2.35941 26.215 1.6109 27.4993 1.6109C28.7835 1.6109 29.9725 2.35941 30.5287 3.51796C30.712 3.90017 31.0536 4.18258 31.4658 4.29301C31.8781 4.40354 32.3152 4.32975 32.6651 4.09041C33.726 3.36531 35.1301 3.3116 36.2421 3.95366C37.3543 4.59572 38.0097 5.83859 37.9121 7.11992C37.88 7.54263 38.0346 7.95813 38.3363 8.25988C38.6381 8.56152 39.054 8.71675 39.4761 8.68388C40.7585 8.5872 42.0003 9.24183 42.6423 10.3539C43.2844 11.466 43.2307 12.87 42.5054 13.9309C42.2661 14.2809 42.1923 14.7181 42.3028 15.1302C42.4133 15.5423 42.6958 15.8839 43.0778 16.0674C44.2363 16.6235 44.9849 17.8126 44.9849 19.0968C44.9849 20.381 44.2365 21.5702 43.078 22.1262Z" fill="#FF7301"/>
<path d="M27.4988 5.62549C23.5227 5.62549 19.7696 7.36948 17.202 10.4102C16.915 10.75 16.9579 11.2583 17.2977 11.5453C17.6376 11.8321 18.1457 11.7894 18.4328 11.4496C20.6937 8.77209 23.9981 7.23649 27.4988 7.23649C34.0386 7.23649 39.3592 12.5571 39.3592 19.0969C39.3592 25.6368 34.0386 30.9573 27.4988 30.9573C20.959 30.9573 15.6383 25.6367 15.6383 19.0968C15.6383 17.4719 15.9608 15.8975 16.5969 14.4175C16.7725 14.0088 16.5837 13.5351 16.1749 13.3594C15.7663 13.1837 15.2926 13.3726 15.1168 13.7814C14.394 15.4634 14.0273 17.2518 14.0273 19.0968C14.0273 26.525 20.0706 32.5682 27.4987 32.5682C34.9268 32.5682 40.97 26.525 40.97 19.0968C40.97 11.6687 34.9269 5.62549 27.4988 5.62549Z" fill="#FF7301"/>
</svg>
