<svg width="55" height="55" viewBox="0 0 55 55" fill="none" xmlns="http://www.w3.org/2000/svg">
<path fill-rule="evenodd" clip-rule="evenodd" d="M16.4027 53.1023H0.946701C0.677978 53.1023 0.422034 52.9954 0.242412 52.8081C0.0629077 52.6208 -0.023235 52.3709 0.0054004 52.1205C0.478121 47.996 3.47313 44.5789 7.51569 43.2532C6.02902 42.1924 5.06653 40.5165 5.06653 38.6371C5.06653 35.4443 7.84405 32.8389 11.2512 32.8389C14.6613 32.8389 17.4385 35.4444 17.4385 38.6371C17.4385 40.5165 16.4761 42.1925 14.9887 43.2533C17.1468 43.9609 19.0059 45.2639 20.342 46.9524C21.352 46.1774 22.5076 45.5631 23.7645 45.1508C22.2778 44.09 21.3155 42.4142 21.3155 40.5348C21.3155 37.3419 24.093 34.7365 27.5 34.7365C30.9102 34.7365 33.6874 37.342 33.6874 40.5348C33.6874 42.4142 32.7249 44.0903 31.2375 45.151C32.4945 45.5632 33.6501 46.1775 34.6601 46.9523C35.9966 45.2637 37.8557 43.9605 40.0133 43.2531C38.5267 42.1923 37.5643 40.5165 37.5643 38.6371C37.5643 35.4443 40.3418 32.8389 43.7488 32.8389C47.1591 32.8389 49.9362 35.4444 49.9362 38.6371C49.9362 40.5166 48.9739 42.1925 47.4865 43.2533C51.5301 44.5793 54.5244 47.9966 54.9946 52.1209C55.0232 52.3712 54.937 52.621 54.7574 52.8082C54.5779 52.9954 54.3219 53.1023 54.0533 53.1023H38.5978C38.661 53.4033 38.7104 53.709 38.7458 54.0186C38.7743 54.2689 38.6881 54.5187 38.5086 54.7059C38.3291 54.8931 38.0731 55 37.8045 55H17.1955C16.9269 55 16.6709 54.893 16.4914 54.7057C16.3117 54.5184 16.2256 54.2685 16.2543 54.0182C16.2897 53.7087 16.3394 53.4032 16.4027 53.1023ZM11.2512 44.4353C6.75946 44.4353 3.00194 47.3835 2.06064 51.3281H16.9517C17.4293 50.1742 18.1162 49.1181 18.9687 48.2008C17.2657 45.924 14.4444 44.4353 11.2512 44.4353ZM11.2512 42.6612C13.6179 42.6612 15.5452 40.8528 15.5452 38.6371C15.5452 36.4213 13.6179 34.6131 11.2512 34.6131C8.88688 34.6131 6.95978 36.4214 6.95978 38.6371C6.95978 40.8527 8.88688 42.6612 11.2512 42.6612ZM27.5 46.333C23.0083 46.333 19.2508 49.2812 18.3095 53.2258H36.6912C35.752 49.2811 31.9941 46.333 27.5 46.333ZM36.0334 48.2007C36.8857 49.1181 37.5723 50.1742 38.0496 51.3281H52.94C52.0008 47.3834 48.243 44.4353 43.7488 44.4353C40.5574 44.4353 37.7368 45.924 36.0334 48.2007ZM27.5 44.5588C29.8667 44.5588 31.7941 42.7505 31.7941 40.5348C31.7941 38.319 29.8667 36.5107 27.5 36.5107C25.1357 36.5107 23.2087 38.3191 23.2087 40.5348C23.2087 42.7504 25.1357 44.5588 27.5 44.5588ZM43.7488 42.6612C46.1156 42.6612 48.043 40.8528 48.043 38.6371C48.043 36.4213 46.1156 34.6131 43.7488 34.6131C41.3845 34.6131 39.4576 36.4214 39.4576 38.6371C39.4576 40.8527 41.3845 42.6612 43.7488 42.6612ZM12.1978 26.0201C13.4623 26.3962 14.3794 27.5058 14.3794 28.8142C14.3794 30.4317 12.9777 31.7452 11.2512 31.7452C9.52455 31.7452 8.12283 30.4317 8.12283 28.8142C8.12283 27.5058 9.04011 26.3962 10.3046 26.0201V12.8882C10.3046 12.3983 10.7283 12.0011 11.2512 12.0011H18.6621V10.2211H14.1391C13.6166 10.2211 13.1925 9.8236 13.1925 9.33403C13.1925 8.84447 13.6166 8.44694 14.1391 8.44694H18.6621V7.14179C18.6621 5.95619 19.6892 4.99369 20.9543 4.99369H22.7607V0.887097C22.7607 0.39753 23.1848 0 23.7074 0C24.2298 0 24.654 0.39753 24.654 0.887097V4.99369H26.5534V0.887097C26.5534 0.39753 26.9776 0 27.5 0C28.0224 0 28.4466 0.39753 28.4466 0.887097V4.99369H30.346V0.887097C30.346 0.39753 30.7703 0 31.2927 0C31.8152 0 32.2393 0.39753 32.2393 0.887097V4.99369H34.0464C35.3115 4.99369 36.3385 5.95619 36.3385 7.14179V8.44694H40.8615C41.3841 8.44694 41.8081 8.84447 41.8081 9.33403C41.8081 9.8236 41.3841 10.2211 40.8615 10.2211H36.3385V12.0011H43.5787C44.1015 12.0011 44.5253 12.3983 44.5253 12.8882V26.0201C45.7898 26.3962 46.7069 27.5058 46.7069 28.8142C46.7069 30.4317 45.3053 31.7452 43.5787 31.7452C41.852 31.7452 40.4504 30.4317 40.4504 28.8142C40.4504 27.5058 41.3676 26.3962 42.6321 26.0201C42.6321 23.2525 42.6321 13.7753 42.6321 13.7753H36.3385V15.5554H40.8615C41.3841 15.5554 41.8081 15.9528 41.8081 16.4424C41.8081 16.932 41.3841 17.3295 40.8615 17.3295H36.3385V18.6308C36.3385 19.8163 35.3115 20.7788 34.0464 20.7788H32.2393V24.8854C32.2393 25.3751 31.8152 25.7725 31.2927 25.7725C30.7703 25.7725 30.346 25.3751 30.346 24.8854V20.7788H28.4466V27.8039C29.7111 28.1801 30.6283 29.2895 30.6283 30.5981C30.6283 32.2156 29.2267 33.529 27.5 33.529C25.7734 33.529 24.3718 32.2156 24.3718 30.5981C24.3718 29.2895 25.2889 28.1801 26.5534 27.8039V20.7788H24.654V24.8854C24.654 25.3751 24.2298 25.7725 23.7074 25.7725C23.1848 25.7725 22.7607 25.3751 22.7607 24.8854V20.7788H20.9543C19.6892 20.7788 18.6621 19.8163 18.6621 18.6308V17.3295H14.1391C13.6166 17.3295 13.1925 16.932 13.1925 16.4424C13.1925 15.9528 13.6166 15.5554 14.1391 15.5554H18.6621V13.7753H12.1978V26.0201ZM11.2512 27.6575C10.5696 27.6575 10.0161 28.1757 10.0161 28.8142C10.0161 29.4527 10.5696 29.971 11.2512 29.971C11.9326 29.971 12.4862 29.4527 12.4862 28.8142C12.4862 28.1757 11.9326 27.6575 11.2512 27.6575ZM34.4453 7.14179C34.4453 6.93543 34.2665 6.76788 34.0464 6.76788H20.9543C20.7341 6.76788 20.5553 6.93543 20.5553 7.14179V18.6308C20.5553 18.8372 20.7341 19.0046 20.9543 19.0046H34.0464C34.2665 19.0046 34.4453 18.8372 34.4453 18.6308V7.14179ZM27.5 29.4413C26.8184 29.4413 26.265 29.9596 26.265 30.5981C26.265 31.2366 26.8184 31.7548 27.5 31.7548C28.1816 31.7548 28.735 31.2366 28.735 30.5981C28.735 29.9596 28.1816 29.4413 27.5 29.4413ZM43.5787 27.6575C42.8971 27.6575 42.3437 28.1757 42.3437 28.8142C42.3437 29.4527 42.8971 29.971 43.5787 29.971C44.2603 29.971 44.8137 29.4527 44.8137 28.8142C44.8137 28.1757 44.2603 27.6575 43.5787 27.6575Z" fill="#FF7301"/>
<g clip-path="url(#clip0_29_18471)">
<path d="M27.5007 10.9912C27.1058 10.9912 26.7197 11.101 26.3913 11.3066C26.063 11.5122 25.807 11.8044 25.6559 12.1463C25.5048 12.4883 25.4652 12.8645 25.5423 13.2275C25.6193 13.5905 25.8095 13.9239 26.0888 14.1856C26.368 14.4473 26.7238 14.6255 27.1111 14.6977C27.4985 14.7699 27.9 14.7328 28.2648 14.5912C28.6297 14.4496 28.9416 14.2097 29.161 13.902C29.3804 13.5943 29.4975 13.2325 29.4975 12.8624C29.4969 12.3663 29.2864 11.8907 28.912 11.5399C28.5377 11.1891 28.0301 10.9917 27.5007 10.9912ZM27.5007 14.4218C27.1716 14.4218 26.8499 14.3303 26.5762 14.159C26.3026 13.9876 26.0893 13.7441 25.9634 13.4592C25.8374 13.1742 25.8045 12.8607 25.8687 12.5582C25.9329 12.2557 26.0914 11.9779 26.3241 11.7598C26.5568 11.5417 26.8533 11.3932 27.1761 11.333C27.4988 11.2729 27.8334 11.3038 28.1375 11.4218C28.4415 11.5398 28.7014 11.7397 28.8843 11.9961C29.0671 12.2525 29.1647 12.554 29.1647 12.8624C29.1642 13.2759 28.9887 13.6722 28.6768 13.9646C28.3648 14.2569 27.9419 14.4213 27.5007 14.4218Z" fill="#FF7301"/>
<path d="M27.4885 12.1809C27.4762 12.152 27.4548 12.1272 27.4273 12.1098C27.3997 12.0923 27.3672 12.083 27.3339 12.083H27.0012C26.9679 12.083 26.9354 12.0923 26.9078 12.1098C26.8803 12.1272 26.8589 12.152 26.8466 12.1809L26.5138 12.9606C26.506 12.9791 26.502 12.9988 26.502 13.0186V13.6424H26.8348V13.1746H27.5003V13.6424H27.8331V13.0186C27.8331 12.9988 27.8291 12.9791 27.8213 12.9606L27.4885 12.1809ZM27.1138 12.3949H27.2213L27.421 12.8627H26.9141L27.1138 12.3949Z" fill="#FF7301"/>
<path d="M28.3328 12.083H28V13.6424H28.3328V12.083Z" fill="#FF7301"/>
<path d="M31.8257 9.58795C32.0117 9.58847 32.1925 9.53075 32.3395 9.42395C32.4865 9.31715 32.5912 9.1674 32.637 8.99847C32.6827 8.82955 32.667 8.65112 32.5922 8.49154C32.5175 8.33195 32.3879 8.20035 32.2242 8.11762C32.0605 8.0349 31.872 8.00579 31.6886 8.03493C31.5053 8.06407 31.3375 8.14978 31.2121 8.27845C31.0866 8.40712 31.0106 8.57138 30.9962 8.74515C30.9817 8.91891 31.0296 9.09223 31.1323 9.23757L29.9701 10.3266L29.7349 10.106C29.7065 10.0794 29.669 10.0633 29.629 10.0607C29.5891 10.058 29.5494 10.069 29.5174 10.0915L29.161 10.3419C29.0778 10.2932 28.9904 10.2496 28.9025 10.2087L29.4473 9.6982C29.4785 9.66896 29.4961 9.6293 29.4961 9.58795V9.25394C29.6529 9.21599 29.7896 9.12572 29.8806 9.00008C29.9715 8.87443 30.0104 8.72202 29.99 8.57141C29.9696 8.42081 29.8912 8.28235 29.7697 8.18199C29.6481 8.08163 29.4917 8.02627 29.3297 8.02627C29.1677 8.02627 29.0112 8.08163 28.8897 8.18199C28.7681 8.28235 28.6898 8.42081 28.6694 8.57141C28.649 8.72202 28.6879 8.87443 28.7788 9.00008C28.8697 9.12572 29.0064 9.21599 29.1633 9.25394V9.52339L28.5717 10.0777C28.4587 10.0389 28.3434 10.0061 28.2263 9.97966L28.1632 9.56581C28.1575 9.52867 28.1377 9.49469 28.1075 9.47011C28.0772 9.44554 28.0385 9.43201 27.9985 9.43202H27.0001C26.9601 9.43201 26.9214 9.44554 26.8911 9.47011C26.8608 9.49469 26.841 9.52867 26.8354 9.56581L26.7723 9.97966C26.6552 10.0061 26.5399 10.0389 26.4268 10.0777L25.8353 9.52339V9.25394C25.9922 9.21599 26.1289 9.12572 26.2198 9.00008C26.3107 8.87443 26.3496 8.72202 26.3292 8.57141C26.3088 8.42081 26.2305 8.28235 26.1089 8.18199C25.9873 8.08163 25.8309 8.02627 25.6689 8.02627C25.5069 8.02627 25.3505 8.08163 25.2289 8.18199C25.1073 8.28235 25.029 8.42081 25.0086 8.57141C24.9882 8.72202 25.0271 8.87443 25.118 9.00008C25.2089 9.12572 25.3456 9.21599 25.5025 9.25394V9.58795C25.5025 9.6293 25.52 9.66896 25.5513 9.6982L26.096 10.2087C26.0082 10.2496 25.9215 10.2932 25.8376 10.3419L25.4812 10.0915C25.4492 10.069 25.4095 10.058 25.3696 10.0607C25.3296 10.0633 25.292 10.0794 25.2637 10.106L25.0284 10.3266L23.8663 9.23757C23.9805 9.07593 24.0265 8.88031 23.9955 8.68867C23.9645 8.49702 23.8586 8.323 23.6984 8.20036C23.5382 8.07772 23.3352 8.01519 23.1286 8.02492C22.922 8.03464 22.7266 8.11591 22.5804 8.25298C22.4341 8.39004 22.3474 8.57313 22.337 8.76672C22.3266 8.96032 22.3933 9.15062 22.5242 9.30073C22.6551 9.45084 22.8408 9.55005 23.0453 9.57912C23.2498 9.60819 23.4585 9.56504 23.631 9.45806L24.7931 10.5471L24.5577 10.7676C24.5294 10.7941 24.5122 10.8294 24.5094 10.8668C24.5065 10.9042 24.5182 10.9414 24.5422 10.9714L24.8095 11.3053C24.7519 11.3939 24.6993 11.4853 24.6519 11.5791L24.0735 11.0371C24.0423 11.0078 24 10.9914 23.9558 10.9914H23.6485C23.608 10.8444 23.5117 10.7163 23.3776 10.6311C23.2435 10.5459 23.0809 10.5094 22.9202 10.5285C22.7594 10.5477 22.6117 10.6211 22.5046 10.735C22.3975 10.8489 22.3384 10.9955 22.3384 11.1473C22.3384 11.2991 22.3975 11.4457 22.5046 11.5596C22.6117 11.6735 22.7594 11.7469 22.9202 11.7661C23.0809 11.7852 23.2435 11.7487 23.3776 11.6635C23.5117 11.5783 23.608 11.4502 23.6485 11.3032H23.8869L24.5144 11.8913C24.4786 11.9864 24.4481 12.0832 24.4229 12.1813L23.9813 12.2404C23.9416 12.2457 23.9054 12.2643 23.8792 12.2926C23.8529 12.321 23.8385 12.3573 23.8385 12.3948V13.3304C23.8385 13.3679 23.8529 13.4042 23.8792 13.4325C23.9054 13.4609 23.9416 13.4794 23.9813 13.4848L24.4229 13.5439C24.4481 13.642 24.4786 13.7388 24.5144 13.8339L23.8869 14.4219H23.6485C23.608 14.2749 23.5117 14.1468 23.3776 14.0616C23.2435 13.9764 23.0809 13.94 22.9202 13.9591C22.7594 13.9782 22.6117 14.0516 22.5046 14.1655C22.3975 14.2795 22.3384 14.4261 22.3384 14.5779C22.3384 14.7297 22.3975 14.8763 22.5046 14.9902C22.6117 15.1041 22.7594 15.1775 22.9202 15.1966C23.0809 15.2158 23.2435 15.1793 23.3776 15.0941C23.5117 15.0089 23.608 14.8808 23.6485 14.7338H23.9558C24 14.7338 24.0423 14.7174 24.0735 14.6881L24.6519 14.1461C24.6993 14.2398 24.7519 14.3312 24.8095 14.4198L24.5422 14.7538C24.5182 14.7838 24.5065 14.8209 24.5094 14.8584C24.5122 14.8958 24.5294 14.931 24.5577 14.9576L24.7931 15.1781L23.631 16.2671C23.4585 16.1601 23.2498 16.117 23.0453 16.1461C22.8408 16.1751 22.6551 16.2743 22.5242 16.4244C22.3933 16.5746 22.3266 16.7649 22.337 16.9585C22.3474 17.152 22.4341 17.3351 22.5804 17.4722C22.7266 17.6093 22.922 17.6905 23.1286 17.7003C23.3352 17.71 23.5382 17.6475 23.6984 17.5248C23.8586 17.4022 23.9645 17.2282 23.9955 17.0365C24.0265 16.8449 23.9805 16.6492 23.8663 16.4876L25.0284 15.3986L25.2637 15.6192C25.292 15.6457 25.3296 15.6618 25.3696 15.6645C25.4095 15.6672 25.4492 15.6562 25.4812 15.6337L25.8375 15.3833C25.9207 15.4319 26.008 15.4756 26.096 15.5164L25.5513 16.027C25.52 16.0562 25.5025 16.0959 25.5025 16.1372V16.4712C25.3456 16.5092 25.2089 16.5994 25.118 16.7251C25.0271 16.8507 24.9882 17.0032 25.0086 17.1538C25.029 17.3044 25.1073 17.4428 25.2289 17.5432C25.3505 17.6435 25.5069 17.6989 25.6689 17.6989C25.8309 17.6989 25.9873 17.6435 26.1089 17.5432C26.2305 17.4428 26.3088 17.3044 26.3292 17.1538C26.3496 17.0032 26.3107 16.8507 26.2198 16.7251C26.1289 16.5994 25.9922 16.5092 25.8353 16.4712V16.2018L26.4268 15.6474C26.5399 15.6863 26.6552 15.719 26.7723 15.7455L26.8354 16.1594C26.841 16.1965 26.8608 16.2305 26.8911 16.2551C26.9214 16.2796 26.9601 16.2932 27.0001 16.2932H27.9985C28.0385 16.2932 28.0772 16.2796 28.1075 16.2551C28.1377 16.2305 28.1575 16.1965 28.1632 16.1594L28.2263 15.7455C28.3433 15.719 28.4587 15.6863 28.5717 15.6474L29.1633 16.2018V16.4712C29.0064 16.5092 28.8697 16.5994 28.7788 16.7251C28.6879 16.8507 28.649 17.0032 28.6694 17.1538C28.6898 17.3044 28.7681 17.4428 28.8897 17.5432C29.0112 17.6435 29.1677 17.6989 29.3297 17.6989C29.4917 17.6989 29.6481 17.6435 29.7697 17.5432C29.8912 17.4428 29.9696 17.3044 29.99 17.1538C30.0104 17.0032 29.9715 16.8507 29.8806 16.7251C29.7896 16.5994 29.6529 16.5092 29.4961 16.4712V16.1372C29.4961 16.0959 29.4785 16.0562 29.4473 16.027L28.9025 15.5164C28.9906 15.4756 29.0771 15.4319 29.1611 15.3833L29.5174 15.6337C29.5494 15.6562 29.5891 15.6672 29.629 15.6645C29.669 15.6618 29.7065 15.6457 29.7349 15.6192L29.9701 15.3986L31.1323 16.4876C31.0181 16.6492 30.9721 16.8449 31.0031 17.0365C31.0341 17.2282 31.14 17.4022 31.3002 17.5248C31.4603 17.6475 31.6634 17.71 31.87 17.7003C32.0766 17.6905 32.272 17.6093 32.4182 17.4722C32.5645 17.3351 32.6512 17.152 32.6616 16.9585C32.672 16.7649 32.6052 16.5746 32.4744 16.4244C32.3435 16.2743 32.1578 16.1751 31.9533 16.1461C31.7488 16.117 31.5401 16.1601 31.3676 16.2671L30.2054 15.1781L30.4409 14.9576C30.4692 14.931 30.4864 14.8958 30.4892 14.8584C30.4921 14.8209 30.4804 14.7838 30.4564 14.7538L30.1891 14.4198C30.241 14.3418 30.2876 14.2599 30.3312 14.1776L30.876 14.6881C30.9072 14.7174 30.9495 14.7338 30.9937 14.7338H31.3501C31.3906 14.8808 31.4869 15.0089 31.621 15.0941C31.7551 15.1793 31.9177 15.2158 32.0784 15.1966C32.2391 15.1775 32.3869 15.1041 32.494 14.9902C32.6011 14.8763 32.6602 14.7297 32.6602 14.5779C32.6602 14.4261 32.6011 14.2795 32.494 14.1655C32.3869 14.0516 32.2391 13.9782 32.0784 13.9591C31.9177 13.94 31.7551 13.9764 31.621 14.0616C31.4869 14.1468 31.3906 14.2749 31.3501 14.4219H31.0626L30.471 13.8676C30.5125 13.7616 30.5474 13.6536 30.5757 13.5439L31.0173 13.4848C31.0569 13.4794 31.0932 13.4609 31.1194 13.4325C31.1456 13.4042 31.1601 13.3679 31.1601 13.3304V12.3948C31.1601 12.3573 31.1456 12.321 31.1194 12.2926C31.0932 12.2643 31.0569 12.2457 31.0173 12.2404L30.5757 12.1813C30.5474 12.0716 30.5125 11.9635 30.471 11.8576L31.0626 11.3032H31.3501C31.3906 11.4502 31.4869 11.5783 31.621 11.6635C31.7551 11.7487 31.9177 11.7852 32.0784 11.7661C32.2391 11.7469 32.3869 11.6735 32.494 11.5596C32.6011 11.4457 32.6602 11.2991 32.6602 11.1473C32.6602 10.9955 32.6011 10.8489 32.494 10.735C32.3869 10.6211 32.2391 10.5477 32.0784 10.5285C31.9177 10.5094 31.7551 10.5459 31.621 10.6311C31.4869 10.7163 31.3906 10.8444 31.3501 10.9914H30.9937C30.9495 10.9914 30.9072 11.0078 30.876 11.0371L30.3312 11.5476C30.2876 11.4651 30.241 11.384 30.1891 11.3053L30.4564 10.9714C30.4804 10.9414 30.4921 10.9042 30.4892 10.8668C30.4864 10.8294 30.4692 10.7941 30.4409 10.7676L30.2054 10.5471L31.3676 9.45806C31.5033 9.54273 31.6626 9.58792 31.8257 9.58795ZM28.9969 8.65234C28.9969 8.59066 29.0164 8.53036 29.053 8.47908C29.0895 8.42779 29.1415 8.38782 29.2023 8.36421C29.2631 8.34061 29.33 8.33443 29.3946 8.34646C29.4592 8.3585 29.5185 8.3882 29.565 8.43182C29.6115 8.47543 29.6432 8.531 29.6561 8.5915C29.6689 8.652 29.6623 8.7147 29.6371 8.77169C29.612 8.82868 29.5693 8.87738 29.5146 8.91165C29.4598 8.94592 29.3955 8.96421 29.3297 8.96421C29.2414 8.96421 29.1568 8.93135 29.0944 8.87287C29.0319 8.81438 28.9969 8.73505 28.9969 8.65234ZM25.3361 8.65234C25.3361 8.59066 25.3556 8.53036 25.3922 8.47908C25.4288 8.42779 25.4807 8.38782 25.5415 8.36421C25.6024 8.34061 25.6693 8.33443 25.7338 8.34646C25.7984 8.3585 25.8577 8.3882 25.9042 8.43182C25.9508 8.47543 25.9825 8.531 25.9953 8.5915C26.0081 8.652 26.0016 8.7147 25.9764 8.77169C25.9512 8.82868 25.9085 8.87738 25.8538 8.91165C25.7991 8.94592 25.7347 8.96421 25.6689 8.96421C25.5806 8.96421 25.496 8.93135 25.4336 8.87287C25.3712 8.81438 25.3361 8.73505 25.3361 8.65234ZM23.1729 9.27608C23.0742 9.27608 22.9777 9.24865 22.8956 9.19724C22.8135 9.14584 22.7495 9.07278 22.7117 8.9873C22.6739 8.90182 22.664 8.80776 22.6833 8.71701C22.7026 8.62627 22.7501 8.54291 22.8199 8.47749C22.8897 8.41206 22.9787 8.36751 23.0755 8.34946C23.1724 8.33141 23.2727 8.34067 23.364 8.37608C23.4552 8.41149 23.5331 8.47145 23.588 8.54838C23.6428 8.62531 23.6721 8.71575 23.6721 8.80828C23.6721 8.93235 23.6195 9.05133 23.5259 9.13906C23.4323 9.22679 23.3053 9.27608 23.1729 9.27608ZM23.0065 11.4592C22.9407 11.4592 22.8764 11.4409 22.8216 11.4066C22.7669 11.3723 22.7242 11.3236 22.6991 11.2666C22.6739 11.2097 22.6673 11.147 22.6801 11.0865C22.693 11.026 22.7247 10.9704 22.7712 10.9268C22.8177 10.8832 22.877 10.8535 22.9416 10.8414C23.0061 10.8294 23.0731 10.8356 23.1339 10.8592C23.1947 10.8828 23.2467 10.9227 23.2832 10.974C23.3198 11.0253 23.3393 11.0856 23.3393 11.1473C23.3393 11.23 23.3043 11.3093 23.2418 11.3678C23.1794 11.4263 23.0948 11.4592 23.0065 11.4592ZM23.0065 14.8897C22.9407 14.8897 22.8764 14.8715 22.8216 14.8372C22.7669 14.8029 22.7242 14.7542 22.6991 14.6972C22.6739 14.6402 22.6673 14.5775 22.6801 14.517C22.693 14.4565 22.7247 14.401 22.7712 14.3573C22.8177 14.3137 22.877 14.284 22.9416 14.272C23.0061 14.26 23.0731 14.2661 23.1339 14.2897C23.1947 14.3133 23.2467 14.3533 23.2832 14.4046C23.3198 14.4559 23.3393 14.5162 23.3393 14.5779C23.3393 14.6606 23.3043 14.7399 23.2418 14.7984C23.1794 14.8569 23.0948 14.8897 23.0065 14.8897ZM23.1729 17.3847C23.0742 17.3847 22.9777 17.3573 22.8956 17.3059C22.8135 17.2545 22.7495 17.1814 22.7117 17.0959C22.6739 17.0104 22.664 16.9164 22.6833 16.8256C22.7026 16.7349 22.7501 16.6515 22.8199 16.5861C22.8897 16.5207 22.9787 16.4761 23.0755 16.4581C23.1724 16.44 23.2727 16.4493 23.364 16.4847C23.4552 16.5201 23.5331 16.5801 23.588 16.657C23.6428 16.7339 23.6721 16.8244 23.6721 16.9169C23.6721 17.041 23.6195 17.16 23.5259 17.2477C23.4323 17.3354 23.3053 17.3847 23.1729 17.3847ZM26.0017 17.0728C26.0017 17.1345 25.9822 17.1948 25.9456 17.2461C25.909 17.2974 25.8571 17.3374 25.7963 17.361C25.7354 17.3846 25.6685 17.3907 25.604 17.3787C25.5394 17.3667 25.4801 17.337 25.4336 17.2934C25.387 17.2497 25.3553 17.1942 25.3425 17.1337C25.3297 17.0732 25.3362 17.0105 25.3614 16.9535C25.3866 16.8965 25.4293 16.8478 25.484 16.8135C25.5387 16.7793 25.6031 16.761 25.6689 16.761C25.7572 16.761 25.8418 16.7938 25.9042 16.8523C25.9666 16.9108 26.0017 16.9901 26.0017 17.0728ZM29.6625 17.0728C29.6625 17.1345 29.643 17.1948 29.6064 17.2461C29.5698 17.2974 29.5178 17.3374 29.457 17.361C29.3962 17.3846 29.3293 17.3907 29.2648 17.3787C29.2002 17.3667 29.1409 17.337 29.0944 17.2934C29.0478 17.2497 29.0161 17.1942 29.0033 17.1337C28.9904 17.0732 28.997 17.0105 29.0222 16.9535C29.0474 16.8965 29.0901 16.8478 29.1448 16.8135C29.1995 16.7793 29.2639 16.761 29.3297 16.761C29.4179 16.761 29.5026 16.7938 29.565 16.8523C29.6274 16.9108 29.6625 16.9901 29.6625 17.0728ZM31.8257 16.4491C31.9244 16.4491 32.0209 16.4765 32.103 16.5279C32.1851 16.5793 32.2491 16.6524 32.2869 16.7379C32.3246 16.8234 32.3345 16.9174 32.3153 17.0082C32.296 17.0989 32.2485 17.1823 32.1786 17.2477C32.1088 17.3131 32.0199 17.3577 31.9231 17.3757C31.8262 17.3938 31.7258 17.3845 31.6346 17.3491C31.5434 17.3137 31.4655 17.2537 31.4106 17.1768C31.3557 17.0999 31.3265 17.0094 31.3265 16.9169C31.3265 16.7928 31.3791 16.6738 31.4727 16.5861C31.5663 16.4984 31.6933 16.4491 31.8257 16.4491ZM31.9921 14.266C32.0579 14.266 32.1222 14.2843 32.177 14.3186C32.2317 14.3528 32.2743 14.4015 32.2995 14.4585C32.3247 14.5155 32.3313 14.5782 32.3185 14.6387C32.3056 14.6992 32.2739 14.7548 32.2274 14.7984C32.1808 14.842 32.1215 14.8717 32.057 14.8837C31.9924 14.8958 31.9255 14.8896 31.8647 14.866C31.8039 14.8424 31.7519 14.8024 31.7154 14.7511C31.6788 14.6999 31.6593 14.6396 31.6593 14.5779C31.6593 14.4952 31.6943 14.4158 31.7567 14.3573C31.8192 14.2989 31.9038 14.266 31.9921 14.266ZM31.9921 10.8354C32.0579 10.8354 32.1222 10.8537 32.177 10.888C32.2317 10.9223 32.2743 10.971 32.2995 11.028C32.3247 11.0849 32.3313 11.1476 32.3185 11.2081C32.3056 11.2686 32.2739 11.3242 32.2274 11.3678C32.1808 11.4114 32.1215 11.4411 32.057 11.4532C31.9924 11.4652 31.9255 11.459 31.8647 11.4354C31.8039 11.4118 31.7519 11.3719 31.7154 11.3206C31.6788 11.2693 31.6593 11.209 31.6593 11.1473C31.6593 11.0646 31.6943 10.9853 31.7567 10.9268C31.8192 10.8683 31.9038 10.8354 31.9921 10.8354ZM30.8273 12.53V13.1952L30.4139 13.2506C30.3797 13.2551 30.3478 13.2696 30.3228 13.292C30.2977 13.3144 30.2807 13.3435 30.2742 13.3753C30.2026 13.7203 30.0578 14.0484 29.8483 14.3399C29.8291 14.3668 29.8192 14.3986 29.8201 14.4309C29.821 14.4633 29.8326 14.4946 29.8533 14.5205L30.1029 14.8331L29.6016 15.303L29.2688 15.0691C29.2411 15.0496 29.2078 15.0388 29.1732 15.0379C29.1387 15.0371 29.1048 15.0463 29.0761 15.0644C28.7649 15.2607 28.4148 15.3963 28.0466 15.4634C28.0126 15.4696 27.9815 15.4855 27.9577 15.509C27.9338 15.5325 27.9184 15.5623 27.9135 15.5944L27.8542 15.9813H27.1444L27.0853 15.5939C27.0804 15.5619 27.0649 15.532 27.0411 15.5085C27.0172 15.485 26.9861 15.4691 26.9522 15.463C26.584 15.3959 26.2339 15.2602 25.9227 15.0639C25.894 15.0459 25.86 15.0366 25.8255 15.0375C25.791 15.0383 25.7576 15.0492 25.73 15.0686L25.3972 15.3025L24.8951 14.8327L25.1447 14.52C25.1655 14.4941 25.1771 14.4628 25.178 14.4305C25.1789 14.3981 25.169 14.3663 25.1497 14.3394C24.9403 14.0479 24.7955 13.7199 24.7239 13.3748C24.7174 13.343 24.7004 13.3139 24.6753 13.2915C24.6503 13.2692 24.6184 13.2547 24.5841 13.2501L24.1713 13.1952V12.53L24.5846 12.4746C24.6189 12.47 24.6508 12.4555 24.6758 12.4332C24.7009 12.4108 24.7179 12.3817 24.7244 12.3499C24.796 12.0048 24.9408 11.6767 25.1502 11.3851C25.1695 11.3582 25.1794 11.3264 25.1785 11.2941C25.1776 11.2617 25.166 11.2304 25.1452 11.2045L24.8956 10.8927L25.3975 10.4224L25.7303 10.6563C25.7579 10.6757 25.7913 10.6866 25.8259 10.6874C25.8604 10.6882 25.8943 10.679 25.923 10.6609C26.2341 10.4647 26.5842 10.329 26.9523 10.2619C26.9863 10.2557 27.0174 10.2398 27.0412 10.2163C27.0651 10.1929 27.0806 10.163 27.0855 10.1309L27.1444 9.74389H27.8542L27.9133 10.1312C27.9182 10.1633 27.9337 10.1932 27.9575 10.2167C27.9814 10.2401 28.0124 10.2561 28.0464 10.2622C28.4146 10.3293 28.7646 10.465 29.0758 10.6613C29.1044 10.6793 29.1384 10.6886 29.1729 10.6877C29.2074 10.6869 29.2408 10.676 29.2684 10.6566L29.6021 10.4227L30.1039 10.893L29.8543 11.2048C29.8336 11.2307 29.822 11.262 29.8211 11.2944C29.8202 11.3267 29.8301 11.3586 29.8493 11.3854C30.0588 11.677 30.2036 12.0051 30.2752 12.3502C30.2817 12.382 30.2987 12.4111 30.3238 12.4335C30.3488 12.4558 30.3807 12.4703 30.4149 12.4749L30.8273 12.53ZM31.8257 8.34047C31.9244 8.34047 32.0209 8.36791 32.103 8.41931C32.1851 8.47071 32.2491 8.54378 32.2869 8.62926C32.3246 8.71474 32.3345 8.8088 32.3153 8.89954C32.296 8.99029 32.2485 9.07364 32.1786 9.13906C32.1088 9.20449 32.0199 9.24904 31.9231 9.26709C31.8262 9.28514 31.7258 9.27588 31.6346 9.24047C31.5434 9.20506 31.4655 9.14511 31.4106 9.06817C31.3557 8.99124 31.3265 8.9008 31.3265 8.80828C31.3265 8.68421 31.3791 8.56522 31.4727 8.47749C31.5663 8.38976 31.6933 8.34047 31.8257 8.34047Z" fill="#FF7301"/>
</g>
<defs>
<clipPath id="clip0_29_18471">
<rect width="10.6495" height="9.97984" fill="white" transform="translate(22.1758 7.87256)"/>
</clipPath>
</defs>
</svg>
