<svg width="55" height="55" viewBox="0 0 55 55" fill="none" xmlns="http://www.w3.org/2000/svg">
<path d="M45.5462 36.9531C43.5642 36.9515 41.6432 37.6383 40.1115 38.8961L35.9745 34.7591C37.6094 32.8553 38.552 30.4544 38.6488 27.9468L47.4248 27.622C47.6695 28.4153 48.195 29.0922 48.9028 29.526C49.6106 29.9599 50.4523 30.1209 51.2702 29.9789C52.0882 29.8369 52.8264 29.4017 53.3466 28.7547C53.8669 28.1078 54.1335 27.2934 54.0966 26.464C54.0597 25.6346 53.7218 24.8471 53.1461 24.2489C52.5705 23.6507 51.7966 23.2828 50.9692 23.214C50.1419 23.1453 49.3178 23.3804 48.6513 23.8754C47.9848 24.3704 47.5216 25.0913 47.3483 25.9032L38.593 26.2272C38.4055 24.5999 37.8624 23.0337 37.0022 21.6396C36.142 20.2456 34.9858 19.0577 33.6155 18.1602L35.2577 15.1748C36.4801 15.6014 37.8182 15.5533 39.0068 15.0398C40.1953 14.5264 41.1476 13.5851 41.6748 12.4026C42.2021 11.2201 42.2658 9.88272 41.8534 8.65545C41.441 7.42817 40.5826 6.40063 39.4482 5.77648C38.3139 5.15234 36.9864 4.97715 35.729 5.28563C34.4716 5.59412 33.376 6.36377 32.6593 7.44203C31.9426 8.52029 31.6572 9.82846 31.8596 11.1072C32.062 12.386 32.7375 13.5421 33.7521 14.3463L32.109 17.3335C30.1767 16.4486 28.0308 16.1375 25.9267 16.437C23.8226 16.7365 21.8488 17.6341 20.2402 19.0231L16.1031 14.886C17.501 13.1764 18.1883 10.9949 18.0228 8.79268C17.8574 6.5905 16.8518 4.53617 15.2142 3.0546C13.5765 1.57302 11.4321 0.777571 9.22439 0.83277C7.0167 0.887969 4.91467 1.7896 3.35311 3.35116C1.79155 4.91272 0.889923 7.01474 0.834723 9.22243C0.779524 11.4301 1.57498 13.5746 3.05655 15.2122C4.53812 16.8499 6.59246 17.8554 8.79463 18.0209C10.9968 18.1863 13.1783 17.4991 14.888 16.1012L19.025 20.2382C17.9302 21.5021 17.1366 22.998 16.7039 24.6131C16.2711 26.2282 16.2106 27.9205 16.5268 29.5624L8.97891 31.594C8.50046 30.6656 7.69786 29.9451 6.72338 29.5692C5.7489 29.1934 4.67036 29.1883 3.6924 29.555C2.71444 29.9217 1.9051 30.6346 1.41796 31.5585C0.930814 32.4824 0.799759 33.553 1.04966 34.5671C1.29956 35.5812 1.91302 36.4683 2.77365 37.06C3.63429 37.6518 4.6822 37.907 5.71856 37.7774C6.75493 37.6477 7.70763 37.1421 8.3959 36.3565C9.08418 35.5709 9.46013 34.56 9.45243 33.5156C9.45243 33.4296 9.4318 33.3437 9.42579 33.2577L16.9788 31.2245C17.8484 33.6658 19.5364 35.7307 21.7561 37.0682L19.9368 40.6999C18.4915 40.2159 16.9165 40.2973 15.5287 40.9278C14.141 41.5582 13.0436 42.691 12.4574 44.098C11.8713 45.505 11.8398 47.0818 12.3694 48.511C12.899 49.9403 13.9504 51.1159 15.3119 51.8012C16.6733 52.4865 18.2439 52.6306 19.7073 52.2046C21.1708 51.7786 22.4186 50.814 23.1995 49.505C23.9804 48.1961 24.2365 46.6399 23.9163 45.1497C23.596 43.6595 22.7231 42.3459 21.4734 41.4734L23.2884 37.8416C25.1863 38.6197 27.2625 38.8571 29.2871 38.5275C31.3116 38.1979 33.2054 37.3142 34.7584 35.9742L38.8955 40.1113C37.6623 41.6221 36.98 43.5076 36.9608 45.4577C36.9415 47.4078 37.5865 49.3065 38.7896 50.8413C39.9926 52.3762 41.6822 53.456 43.5805 53.9032C45.4788 54.3503 47.4727 54.1381 49.2343 53.3016C50.996 52.465 52.4206 51.0539 53.2737 49.3002C54.1269 47.5465 54.3579 45.5547 53.9287 43.6523C53.4995 41.7499 52.4357 40.0501 50.9123 38.8326C49.3888 37.6151 47.4964 36.9522 45.5462 36.9531ZM50.7024 24.9218C51.0424 24.9218 51.3747 25.0226 51.6573 25.2115C51.94 25.4003 52.1603 25.6688 52.2903 25.9828C52.4204 26.2969 52.4545 26.6425 52.3882 26.9759C52.3218 27.3093 52.1581 27.6155 51.9178 27.8559C51.6774 28.0963 51.3711 28.26 51.0377 28.3263C50.7043 28.3926 50.3588 28.3586 50.0447 28.2285C49.7306 28.0984 49.4622 27.8781 49.2733 27.5954C49.0845 27.3128 48.9837 26.9805 48.9837 26.6406C48.9837 26.1847 49.1648 25.7475 49.4871 25.4252C49.8094 25.1029 50.2466 24.9218 50.7024 24.9218ZM36.9524 6.87493C37.6323 6.87493 38.2969 7.07653 38.8622 7.45425C39.4275 7.83197 39.8681 8.36883 40.1283 8.99695C40.3884 9.62508 40.4565 10.3162 40.3239 10.9831C40.1912 11.6499 39.8639 12.2624 39.3831 12.7431C38.9024 13.2239 38.2899 13.5512 37.6231 13.6839C36.9562 13.8165 36.2651 13.7484 35.637 13.4883C35.0088 13.2281 34.472 12.7875 34.0943 12.2222C33.7165 11.6569 33.5149 10.9923 33.5149 10.3124C33.5149 9.40075 33.8771 8.52641 34.5218 7.88175C35.1664 7.23709 36.0407 6.87493 36.9524 6.87493ZM5.15555 36.0937C4.64565 36.0937 4.14719 35.9425 3.72322 35.6592C3.29925 35.3759 2.96881 34.9732 2.77368 34.5022C2.57854 34.0311 2.52749 33.5127 2.62697 33.0126C2.72644 32.5125 2.97199 32.0531 3.33254 31.6925C3.6931 31.332 4.15248 31.0864 4.65259 30.987C5.15269 30.8875 5.67107 30.9385 6.14216 31.1337C6.61325 31.3288 7.0159 31.6593 7.29919 32.0832C7.58247 32.5072 7.73368 33.0056 7.73368 33.5156C7.73368 34.1993 7.46206 34.8551 6.97856 35.3386C6.49507 35.8221 5.83932 36.0937 5.15555 36.0937ZM22.3431 46.4062C22.3431 47.256 22.091 48.0868 21.6189 48.7934C21.1468 49.5 20.4757 50.0508 19.6905 50.376C18.9054 50.7012 18.0414 50.7863 17.2079 50.6205C16.3744 50.4547 15.6088 50.0455 15.0078 49.4445C14.4069 48.8436 13.9977 48.078 13.8319 47.2445C13.6661 46.4109 13.7512 45.547 14.0764 44.7618C14.4016 43.9767 14.9523 43.3056 15.659 42.8335C16.3656 42.3613 17.1963 42.1093 18.0462 42.1093C19.1854 42.1107 20.2775 42.5638 21.083 43.3693C21.8885 44.1749 22.3417 45.267 22.3431 46.4062ZM2.57743 9.45305C2.57476 8.336 2.84432 7.23513 3.36279 6.24568C3.88125 5.25623 4.63301 4.40802 5.553 3.77445C6.473 3.14087 7.53352 2.74101 8.6428 2.60946C9.75208 2.47792 10.8767 2.61865 11.9194 3.01948C12.962 3.42031 13.8913 4.06918 14.6268 4.90992C15.3623 5.75066 15.8819 6.75796 16.1406 7.84465C16.3992 8.93134 16.3892 10.0647 16.1113 11.1466C15.8335 12.2286 15.2962 13.2265 14.5459 14.0541C14.5856 13.9575 14.6069 13.8544 14.6087 13.7499C14.6109 13.0725 14.4786 12.4014 14.2196 11.7755C13.9605 11.1496 13.5799 10.5813 13.0996 10.1036C12.7571 9.76117 12.3684 9.46842 11.9446 9.23391C12.4091 8.74695 12.7204 8.13436 12.84 7.47211C12.9595 6.80987 12.8821 6.12709 12.6172 5.50845C12.3524 4.88981 11.9117 4.36252 11.35 3.99196C10.7883 3.6214 10.1301 3.42387 9.45716 3.42387C8.7842 3.42387 8.12605 3.6214 7.56431 3.99196C7.00257 4.36252 6.56195 4.88981 6.29709 5.50845C6.03223 6.12709 5.95478 6.80987 6.07435 7.47211C6.19391 8.13436 6.50523 8.74695 6.96969 9.23391C6.16061 9.67841 5.48569 10.332 5.01541 11.1263C4.54513 11.9207 4.29674 12.8268 4.29618 13.7499C4.29793 13.8533 4.31831 13.9555 4.35634 14.0516C3.21243 12.7931 2.57824 11.1537 2.57743 9.45305ZM9.45243 8.59368C9.11249 8.59368 8.78019 8.49288 8.49754 8.30402C8.2149 8.11516 7.9946 7.84673 7.86451 7.53267C7.73442 7.21861 7.70039 6.87302 7.7667 6.53962C7.83302 6.20621 7.99672 5.89996 8.23709 5.65959C8.47746 5.41922 8.78371 5.25552 9.11712 5.1892C9.45052 5.12289 9.79611 5.15692 10.1102 5.28701C10.4242 5.4171 10.6927 5.6374 10.8815 5.92004C11.0704 6.20269 11.1712 6.53499 11.1712 6.87493C11.1712 7.33077 10.9901 7.76794 10.6678 8.09027C10.3454 8.4126 9.90827 8.59368 9.45243 8.59368ZM9.45243 10.3124C10.2145 10.3124 10.955 10.5657 11.5575 11.0323C12.1599 11.499 12.5903 12.1527 12.7808 12.8906H6.12321C6.3147 12.153 6.7454 11.4999 7.34784 11.0333C7.95029 10.5668 8.69046 10.3133 9.45243 10.3124ZM4.85477 14.5491C4.95055 14.5873 5.05247 14.6077 5.15555 14.6093H13.7493C13.854 14.6079 13.9574 14.5869 14.0544 14.5474C12.7966 15.6918 11.1572 16.3259 9.45673 16.3259C7.75625 16.3259 6.11688 15.6918 4.85907 14.5474L4.85477 14.5491ZM18.0462 27.4999C18.0462 25.6303 18.6006 23.8026 19.6393 22.2481C20.678 20.6935 22.1544 19.4819 23.8817 18.7664C25.6091 18.0509 27.5098 17.8637 29.3435 18.2284C31.1772 18.5932 32.8616 19.4935 34.1837 20.8156C35.5057 22.1376 36.406 23.822 36.7708 25.6557C37.1355 27.4894 36.9483 29.3902 36.2329 31.1175C35.5174 32.8448 34.3057 34.3212 32.7512 35.3599C31.1966 36.3986 29.369 36.9531 27.4993 36.9531C24.9931 36.9501 22.5904 35.9532 20.8182 34.181C19.046 32.4089 18.0491 30.0061 18.0462 27.4999ZM40.9485 50.6429C41.0443 50.681 41.1462 50.7014 41.2493 50.7031H49.8431C49.9477 50.7016 50.0512 50.6806 50.1481 50.6412C48.8903 51.7855 47.251 52.4197 45.5505 52.4197C43.85 52.4197 42.2106 51.7855 40.9528 50.6412L40.9485 50.6429ZM45.5462 44.6874C45.2062 44.6874 44.8739 44.5866 44.5913 44.3978C44.3086 44.2089 44.0883 43.9405 43.9583 43.6264C43.8282 43.3124 43.7941 42.9668 43.8605 42.6334C43.9268 42.3 44.0905 41.9937 44.3308 41.7533C44.5712 41.513 44.8775 41.3493 45.2109 41.283C45.5443 41.2166 45.8899 41.2507 46.2039 41.3808C46.518 41.5108 46.7864 41.7311 46.9753 42.0138C47.1641 42.2964 47.2649 42.6287 47.2649 42.9687C47.2649 43.4245 47.0839 43.8617 46.7615 44.184C46.4392 44.5063 46.002 44.6874 45.5462 44.6874ZM45.5462 46.4062C46.3083 46.4062 47.0487 46.6594 47.6512 47.1261C48.2537 47.5928 48.684 48.2464 48.8745 48.9843H42.217C42.4085 48.2468 42.8391 47.5936 43.4416 47.1271C44.044 46.6606 44.7842 46.407 45.5462 46.4062ZM50.6388 50.1479C50.6788 50.0513 50.7003 49.9482 50.7024 49.8437C50.7046 49.1663 50.5723 48.4952 50.3133 47.8693C50.0543 47.2434 49.6736 46.6751 49.1934 46.1973C48.8509 45.8549 48.4621 45.5622 48.0384 45.3277C48.5028 44.8407 48.8142 44.2281 48.9337 43.5659C49.0533 42.9036 48.9758 42.2208 48.711 41.6022C48.4461 40.9836 48.0055 40.4563 47.4438 40.0857C46.882 39.7151 46.2239 39.5176 45.5509 39.5176C44.878 39.5176 44.2198 39.7151 43.6581 40.0857C43.0963 40.4563 42.6557 40.9836 42.3908 41.6022C42.126 42.2208 42.0485 42.9036 42.1681 43.5659C42.2877 44.2281 42.599 44.8407 43.0634 45.3277C42.2544 45.7722 41.5794 46.4257 41.1092 47.2201C40.6389 48.0145 40.3905 48.9205 40.3899 49.8437C40.3917 49.947 40.4121 50.0492 40.4501 50.1453C39.5565 49.159 38.9683 47.9345 38.7571 46.6205C38.5458 45.3065 38.7205 43.9593 39.2599 42.7426C39.7994 41.5259 40.6804 40.492 41.796 39.7662C42.9117 39.0405 44.214 38.6542 45.5449 38.6542C46.8758 38.6542 48.1781 39.0405 49.2938 39.7662C50.4094 40.492 51.2904 41.5259 51.8299 42.7426C52.3693 43.9593 52.544 45.3065 52.3327 46.6205C52.1215 47.9345 51.5333 49.159 50.6397 50.1453L50.6388 50.1479Z" fill="#FF7301"/>
</svg>
