<svg width="55" height="55" viewBox="0 0 55 55" fill="none" xmlns="http://www.w3.org/2000/svg">
<path d="M15.9677 17.7419C15.9677 16.2747 14.7737 15.0806 13.3065 15.0806C11.8392 15.0806 10.6452 16.2747 10.6452 17.7419C10.6452 19.2092 11.8392 20.4032 13.3065 20.4032C14.7737 20.4032 15.9677 19.2092 15.9677 17.7419ZM12.4194 17.7419C12.4194 17.2531 12.8177 16.8548 13.3065 16.8548C13.7952 16.8548 14.1935 17.2531 14.1935 17.7419C14.1935 18.2307 13.7952 18.629 13.3065 18.629C12.8177 18.629 12.4194 18.2307 12.4194 17.7419ZM49.6774 28.3871H47.9032V15.9677H42.5806V28.3871H40.8065V19.5161H35.4839V28.3871H33.7097V23.0645H28.3871V30.1613H35.1778C33.7744 31.3012 32.0251 31.9355 30.1613 31.9355C25.7595 31.9355 22.1774 28.3534 22.1774 23.9516C22.1774 19.5498 25.7595 15.9677 30.1613 15.9677C32.3054 15.9677 34.3182 16.806 35.829 18.3283L37.0886 17.0784C35.2417 15.2181 32.7818 14.1935 30.1613 14.1935C24.781 14.1935 20.4032 18.5714 20.4032 23.9516C20.4032 29.3319 24.781 33.7097 30.1613 33.7097C33.1038 33.7097 35.8077 32.4145 37.6688 30.1613H39.8732C37.7717 33.4329 34.1027 35.4839 30.1613 35.4839C23.8026 35.4839 18.629 30.3103 18.629 23.9516C18.629 17.5929 23.8026 12.4194 30.1613 12.4194C33.5757 12.4194 36.7959 13.9203 38.995 16.5381L40.3531 15.3965C38.594 13.3029 36.2636 11.8472 33.6902 11.1402C33.4852 6.48556 29.6876 2.74911 25.0037 2.66306L20.0768 0.816129C18.6344 0.274113 17.1219 0 15.581 0C12.2464 0 9.10694 1.26589 6.65589 3.62468C3.81185 4.32105 1.77419 6.89452 1.77419 9.84589C1.77419 11.8623 2.17339 13.8183 2.9221 15.6794C2.21597 16.4654 1.77419 17.4927 1.77419 18.629C1.77419 21.0748 3.76395 23.0645 6.20968 23.0645H7.17129C7.51637 25.8669 9.05726 28.3951 11.4427 29.9848L12.0246 30.3733C12.2712 30.5374 12.4194 30.8133 12.4194 31.1105V32.1058L11.9208 32.2123C5.01298 33.6919 0 39.8936 0 46.9585V55H30.1613C32.1182 55 33.7097 53.4086 33.7097 51.4516V51.3256C35.2355 50.9291 36.371 49.5515 36.371 47.9032V46.129C36.371 44.4808 35.2355 43.1031 33.7097 42.7066V40.8065C33.7097 40.1527 33.3504 39.5867 32.8226 39.2789V36.9813C36.6779 36.1856 40.0533 33.6937 41.9233 30.1613H55V12.4194H49.6774V28.3871ZM31.9355 28.3871H30.1613V24.8387H31.9355V28.3871ZM31.9355 40.8065V42.5806C31.2515 42.5806 30.6332 42.8477 30.1613 43.2726C29.6894 42.8468 29.071 42.5806 28.3871 42.5806V40.8065H31.9355ZM29.2742 47.0161C29.2742 47.5049 28.8759 47.9032 28.3871 47.9032H27.5C26.5215 47.9032 25.7258 47.1075 25.7258 46.129C25.7258 45.1506 26.5215 44.3548 27.5 44.3548H28.3871C28.8759 44.3548 29.2742 44.7531 29.2742 45.2419V47.0161ZM21.8944 34.3599C22.4258 34.7831 22.99 35.1645 23.5826 35.5034L22.5243 40.0888L19.0557 37.1986L21.8944 34.3599ZM17.3392 27.4592C15.5739 27.2561 14.1935 25.7702 14.1935 23.9516H16.8548C16.8548 25.1669 17.0323 26.3397 17.3392 27.4592ZM7.27065 5.30484L7.59177 5.19395L7.78161 5.00411C9.8654 2.92121 12.6349 1.77419 15.581 1.77419C16.909 1.77419 18.2112 2.01105 19.454 2.47677L24.6781 4.43548H24.8387C28.4944 4.43548 31.5106 7.21387 31.8929 10.7694C31.3216 10.6948 30.745 10.6452 30.1613 10.6452C27.3155 10.6452 24.6826 11.5509 22.5172 13.0776C21.6762 12.6837 20.8823 12.1976 20.1557 11.6165L17.7419 9.68621V13.0758C15.2598 12.32 13.2772 10.4127 12.4415 7.90581L12.3732 7.70266L10.6913 8.26508L10.7587 8.46823C11.0071 9.2125 11.3531 9.90355 11.7558 10.5511C10.4846 11.1082 9.29145 11.8472 8.23581 12.7485C7.79581 11.5624 7.85524 10.2256 8.43363 9.06879L8.77782 8.38129L7.18992 7.58734L6.84661 8.27484C5.90806 10.1528 5.96927 12.3688 6.96371 14.1935H6.20968C5.56387 14.1935 4.95444 14.3399 4.4 14.5892C3.84556 13.0678 3.54839 11.4799 3.54839 9.84589C3.54839 7.64677 5.11411 5.73686 7.27065 5.30484ZM3.54839 18.629C3.54839 17.1618 4.74242 15.9677 6.20968 15.9677H7.09677V21.2903H6.20968C4.74242 21.2903 3.54839 20.0963 3.54839 18.629ZM8.87097 21.8652V14.5812C10.018 13.4803 11.3841 12.6119 12.8629 12.0237C14.3204 13.6072 16.2773 14.701 18.4835 15.0682L19.5161 15.2412V13.3615C19.996 13.7119 20.5017 14.0215 21.0224 14.3053C18.8685 16.3465 17.4004 19.0948 16.987 22.1774H12.4194V23.9516C12.4194 26.887 14.8065 29.2742 17.7419 29.2742C17.8165 29.2742 17.8892 29.2573 17.9637 29.2547C18.6006 30.7131 19.4931 32.0322 20.5815 33.1641L17.7419 36.0037L14.1935 32.4553V31.1105C14.1935 30.219 13.75 29.3913 13.0084 28.8963L12.4265 28.5077C10.1998 27.0236 8.87097 24.5406 8.87097 21.8652ZM12.2925 33.9474L13.0208 33.7913L16.4281 37.1986L12.9596 40.0888L11.5855 34.1319C11.8197 34.0672 12.0521 33.9989 12.2925 33.9474ZM1.77419 46.9585C1.77419 41.5773 5.07508 36.7693 9.89823 34.7139L11.8791 43.2983L16.8548 39.152V47.9032H18.629V39.152L23.6048 43.2983L25.2211 36.2965C25.9529 36.5901 26.7114 36.8287 27.5 36.9902V39.2798C26.9722 39.5876 26.6129 40.1535 26.6129 40.8073V42.7075C25.0871 43.104 23.9516 44.4817 23.9516 46.1299C23.9516 47.7781 25.0871 49.1558 26.6129 49.5523V51.4516C26.6129 52.101 26.801 52.7015 27.1061 53.2258H8.87097V44.3548H7.09677V53.2258H1.77419V46.9585ZM30.1613 53.2258C29.1828 53.2258 28.3871 52.4301 28.3871 51.4516V49.6774C28.7375 49.6774 29.0702 49.6056 29.3771 49.4823C29.6831 50.6133 30.7086 51.4516 31.9355 51.4516C31.9355 52.4301 31.1398 53.2258 30.1613 53.2258ZM34.5968 46.129V47.9032C34.5968 48.8817 33.801 49.6774 32.8226 49.6774H31.9355C31.4467 49.6774 31.0484 49.2791 31.0484 48.7903V47.9032H32.8226V46.129H31.0484V45.2419C31.0484 44.7531 31.4467 44.3548 31.9355 44.3548H32.8226C33.801 44.3548 34.5968 45.1506 34.5968 46.129ZM31.0484 39.0323H29.2742V37.2128C29.5687 37.2323 29.8615 37.2581 30.1613 37.2581C30.4585 37.2581 30.7539 37.2456 31.0484 37.2261V39.0323ZM44.3548 17.7419H46.129V28.3871H44.3548V17.7419ZM37.2581 21.2903H39.0323V28.3871H37.2581V21.2903ZM51.4516 14.1935H53.2258V28.3871H51.4516V14.1935Z" fill="#FF7301"/>
</svg>
