<svg width="55" height="55" viewBox="0 0 55 55" fill="none" xmlns="http://www.w3.org/2000/svg">
<g clip-path="url(#clip0_29_18496)">
<path d="M9.43429 12.8564H9.47983C10.3994 12.8444 11.2596 12.4757 11.9016 11.8165C12.5435 11.1574 12.8907 10.2886 12.8787 9.36904C12.8666 8.44951 12.498 7.58928 11.8388 6.94732C11.1797 6.30537 10.3126 5.97107 9.39132 5.97021C8.47179 5.98139 7.61155 6.35092 6.9696 7.0092C6.32765 7.66748 5.98046 8.53717 5.99249 9.4567C6.00452 10.3762 6.37319 11.2365 7.03233 11.8784C7.6803 12.5109 8.53108 12.8564 9.43429 12.8564ZM8.20022 8.20889C8.52249 7.87889 8.95218 7.69412 9.41366 7.68811H9.43686C9.8889 7.68811 10.3151 7.8617 10.64 8.17795C10.97 8.50021 11.1548 8.9299 11.1608 9.39139C11.1668 9.85287 10.9932 10.2877 10.6718 10.6177C10.3495 10.9477 9.91983 11.1325 9.45835 11.1385C8.9771 11.1471 8.56202 10.9701 8.23202 10.6495C7.90202 10.3272 7.71726 9.89756 7.71124 9.43607C7.70522 8.97459 7.87882 8.53889 8.20022 8.20889Z" fill="#FF7301"/>
<path d="M1.39491 10.0582C1.18264 10.1416 1.01249 10.3066 0.922253 10.5154C0.832019 10.7251 0.827722 10.9614 0.911941 11.1737L2.04718 14.0432C2.22163 14.484 2.72007 14.7006 3.16178 14.5261L4.19647 14.1171C4.33225 14.27 4.47491 14.4179 4.62444 14.5579L4.18186 15.5789C4.09163 15.7886 4.08733 16.0249 4.17155 16.2363C4.25491 16.4486 4.41991 16.6187 4.62874 16.7089L7.46038 17.9353C7.89694 18.1252 8.40311 17.9241 8.59046 17.4884L9.03304 16.4675C9.23843 16.4804 9.44382 16.4829 9.64749 16.4778L10.0574 17.5125C10.1408 17.7247 10.3058 17.8949 10.5146 17.9851C10.6237 18.0324 10.7398 18.0564 10.8558 18.0564C10.9632 18.0564 11.0706 18.0367 11.172 17.9963L14.0415 16.8611C14.4823 16.6866 14.6989 16.1873 14.5244 15.7464L14.1154 14.7118C14.2683 14.576 14.4162 14.4333 14.5562 14.2838L15.5772 14.7264C15.7869 14.8175 16.0232 14.8209 16.2346 14.7367C16.4469 14.6533 16.617 14.4883 16.7073 14.2795L17.9336 11.4479C18.1226 11.0121 17.9224 10.506 17.4867 10.3178L16.4658 9.8752C16.4778 9.67066 16.4812 9.46527 16.4761 9.26074L17.5108 8.85082C17.723 8.76746 17.8932 8.60246 17.9834 8.39363C18.0737 8.18395 18.078 7.94762 17.9937 7.73535L16.8585 4.8659C16.6841 4.42504 16.1856 4.20676 15.7439 4.38293L14.7092 4.79199C14.5734 4.63902 14.4308 4.49121 14.2812 4.35113L14.7238 3.3302C14.8141 3.12051 14.8183 2.88418 14.7341 2.67277C14.6508 2.46051 14.4858 2.29035 14.2769 2.20012L11.4436 0.971212C11.0087 0.78129 10.5017 0.981525 10.3135 1.41809L9.87093 2.43902C9.6664 2.42699 9.461 2.42356 9.25647 2.42871L8.84655 1.39402C8.76319 1.18176 8.59819 1.0116 8.38936 0.921369C8.18053 0.831994 7.94421 0.827697 7.73194 0.912775L4.86249 2.04801C4.42163 2.22246 4.20593 2.72176 4.38038 3.16262L4.78944 4.19731C4.63647 4.33309 4.48866 4.47574 4.34858 4.62527L3.32678 4.18356C3.1171 4.09246 2.88077 4.08902 2.66936 4.17324C2.4571 4.2566 2.28694 4.4216 2.19671 4.63043L0.970378 7.46207C0.782175 7.89777 0.98241 8.40395 1.41725 8.59215L2.43819 9.03473C2.42616 9.23926 2.42272 9.44465 2.42788 9.64918L1.39491 10.0582ZM4.20936 8.63082C4.27038 8.2441 4.06155 7.86426 3.70233 7.70871L2.88936 7.35637L3.43249 6.10168L4.24546 6.45402C4.60639 6.61043 5.02491 6.50301 5.26553 6.19277C5.56975 5.8009 5.92725 5.45457 6.32686 5.1641C6.64397 4.93379 6.76429 4.51785 6.61991 4.15348L6.29421 3.3302L7.56522 2.82746L7.89093 3.65074C8.0353 4.01598 8.40913 4.23856 8.79671 4.18785C9.28569 4.12684 9.78327 4.13457 10.274 4.21192C10.6573 4.27293 11.0405 4.06496 11.1961 3.70488L11.5484 2.89192L12.8031 3.43504L12.4508 4.24801C12.2944 4.60723 12.4018 5.02746 12.712 5.26809C13.1039 5.57231 13.4502 5.92981 13.7407 6.32941C13.971 6.64652 14.3878 6.76684 14.7513 6.62246L15.5746 6.29676L16.0773 7.56777L15.2541 7.89348C14.8897 8.03699 14.6688 8.41082 14.7169 8.79926C14.778 9.28824 14.7702 9.78496 14.6929 10.2765C14.6319 10.6632 14.8407 11.0431 15.1999 11.1986L16.0129 11.551L15.4698 12.8057L14.6568 12.4533C14.2976 12.2986 13.8773 12.4052 13.6367 12.7146C13.3325 13.1064 12.975 13.4528 12.5754 13.7432C12.2583 13.9736 12.138 14.3895 12.2823 14.7539L12.608 15.5771L11.337 16.0799L11.0113 15.2566C10.8807 14.9257 10.5619 14.7135 10.213 14.7135C10.1769 14.7135 10.1416 14.7152 10.1055 14.7204C9.61655 14.7814 9.11897 14.7736 8.62827 14.6963C8.24155 14.6336 7.86171 14.8432 7.70616 15.2033L7.35382 16.0163L6.10085 15.4732L6.45319 14.6602C6.6096 14.301 6.50218 13.8807 6.19194 13.6401C5.80007 13.3359 5.45374 12.9784 5.16327 12.5788C4.93296 12.2617 4.51616 12.1414 4.15264 12.2857L3.32936 12.6114L2.82663 11.3404L3.64991 11.0147C4.01428 10.8712 4.23514 10.4974 4.18702 10.1089C4.12428 9.6191 4.13288 9.12238 4.20936 8.63082Z" fill="#FF7301"/>
<path d="M50.6318 1.84058C48.9732 1.46847 46.8901 1.96004 45.5469 3.50433C44.2037 1.9609 42.1214 1.46933 40.462 1.84058C38.2972 2.32527 36.9531 4.07238 36.9531 6.40129C36.9531 11.2155 43.1638 15.7625 45.0673 17.0412C45.2126 17.1383 45.3802 17.1873 45.5469 17.1873C45.7136 17.1873 45.8812 17.1383 46.0264 17.0412C47.9299 15.7625 54.1406 11.2155 54.1406 6.40129C54.1406 4.07238 52.7966 2.32527 50.6318 1.84058ZM45.5469 15.2838C43.6786 13.9621 38.6719 10.0777 38.6719 6.40129C38.6719 4.23652 40.1861 3.66332 40.8366 3.51808C41.0713 3.46566 41.3188 3.43902 41.5714 3.43902C42.7857 3.43902 44.122 4.05949 44.7691 5.43363C44.9109 5.73355 45.2143 5.92605 45.5469 5.92605C45.8795 5.92605 46.1828 5.73355 46.3246 5.43277C47.1066 3.77246 48.8941 3.213 50.2571 3.51722C50.9077 3.66332 52.4219 4.23652 52.4219 6.40129C52.4219 10.0777 47.4152 13.9621 45.5469 15.2838Z" fill="#FF7301"/>
<path d="M8.59375 24.9219C8.11938 24.9219 7.73438 25.3069 7.73438 25.7812V29.2188C7.73438 29.6931 8.11938 30.0781 8.59375 30.0781H16.3969C17.1505 30.0781 17.8647 29.7498 18.3545 29.1784L21.3013 25.7409L20.6327 35.1046L16.3522 53.0836C16.2912 53.3388 16.3505 53.6087 16.5138 53.8149C16.6762 54.0203 16.9245 54.1406 17.1875 54.1406H22.3438C22.727 54.1406 23.0648 53.8862 23.1696 53.5176L27.5 38.3625L31.8304 53.5176C31.9352 53.8862 32.273 54.1406 32.6562 54.1406H37.8125C38.0755 54.1406 38.3238 54.0203 38.4871 53.8141C38.6504 53.6078 38.7097 53.338 38.6487 53.0827L34.3681 35.1038L33.6995 25.74L36.6463 29.1775C37.1362 29.7498 37.8495 30.0773 38.604 30.0773H46.4062C46.8806 30.0773 47.2656 29.6923 47.2656 29.2179V25.7804C47.2656 25.306 46.8806 24.921 46.4062 24.921H40.7765L35.1837 18.6287C34.3681 17.7134 33.1977 17.1875 31.9722 17.1875H31.3328C32.1527 16.274 32.6562 15.0717 32.6562 13.75C32.6562 10.9063 30.3437 8.59375 27.5 8.59375C24.6563 8.59375 22.3438 10.9063 22.3438 13.75C22.3438 15.0717 22.8473 16.274 23.6672 17.1875H23.0278C21.8015 17.1875 20.631 17.7134 19.8163 18.6295L14.2235 24.9219H8.59375ZM24.0625 13.75C24.0625 11.8542 25.6042 10.3125 27.5 10.3125C29.3958 10.3125 30.9375 11.8542 30.9375 13.75C30.9375 15.6458 29.3958 17.1875 27.5 17.1875C25.6042 17.1875 24.0625 15.6458 24.0625 13.75ZM15.2522 26.3527L21.102 19.7725C21.5901 19.2216 22.2922 18.9062 23.0278 18.9062H31.9713C32.707 18.9062 33.4091 19.2216 33.898 19.7716L39.7478 26.3519C39.9111 26.5358 40.1448 26.6406 40.3906 26.6406H45.5469V28.3594H38.6031C38.3522 28.3594 38.1141 28.2502 37.9509 28.0595L33.3094 22.6437C33.0687 22.3627 32.6752 22.2673 32.3297 22.4082C31.9868 22.5491 31.7728 22.8937 31.7995 23.2641L32.6588 35.2954C32.6623 35.3418 32.6691 35.3873 32.6803 35.4329L36.7245 52.4219H33.3051L28.3267 34.998C28.221 34.6294 27.8833 34.375 27.5 34.375C27.1167 34.375 26.779 34.6294 26.6741 34.998L21.6958 52.4219H18.2763L22.3214 35.4329C22.3326 35.3873 22.3395 35.3418 22.3429 35.2954L23.2023 23.2641C23.2289 22.8937 23.0149 22.5491 22.672 22.4082C22.3274 22.2673 21.9347 22.3627 21.6923 22.6437L17.0509 28.0595C16.8859 28.2502 16.6487 28.3594 16.3969 28.3594H9.45312V26.6406H14.6094C14.8552 26.6406 15.0889 26.5358 15.2522 26.3527Z" fill="#FF7301"/>
<path d="M44.6875 18.9062H46.4062V20.625H44.6875V18.9062Z" fill="#FF7301"/>
<path d="M44.6875 22.3438H46.4062V24.0625H44.6875V22.3438Z" fill="#FF7301"/>
<path d="M8.59375 18.9062H10.3125V20.625H8.59375V18.9062Z" fill="#FF7301"/>
<path d="M8.59375 22.3438H10.3125V24.0625H8.59375V22.3438Z" fill="#FF7301"/>
</g>
<defs>
<clipPath id="clip0_29_18496">
<rect width="55" height="55" fill="white"/>
</clipPath>
</defs>
</svg>
