<svg width="169" height="57" viewBox="0 0 169 57" fill="none" xmlns="http://www.w3.org/2000/svg">
<path d="M9.83039 13.0718C7.99319 13.8122 6.56731 14.9501 5.55273 16.4857C4.56558 17.9939 4.072 19.8448 4.072 22.0384C4.072 23.053 4.16798 23.766 4.35992 24.1773C4.55187 24.5612 4.64784 24.7805 4.64784 24.8354C3.16711 24.8354 2.05657 24.5338 1.3162 23.9305C0.60326 23.2998 0.246788 22.2715 0.246788 20.8456C0.246788 19.0907 0.959731 17.3906 2.38562 15.7454C3.83893 14.0727 5.68984 12.7291 7.93835 11.7145C10.1869 10.6725 12.4354 10.1515 14.6839 10.1515C15.0678 10.1515 15.6162 10.1789 16.3291 10.2338L9.78926 41H3.86635L9.83039 13.0718ZM30.2727 41.2468C28.6 41.2468 27.3661 40.8081 26.5709 39.9306C25.8031 39.0257 25.4192 37.9151 25.4192 36.5989C25.4192 36.0231 25.4877 35.3787 25.6248 34.6658C25.7619 33.9254 25.899 33.2125 26.0361 32.5269C26.2007 31.8414 26.3104 31.4027 26.3652 31.2107C26.5846 30.251 26.7902 29.305 26.9822 28.3727C27.1741 27.4404 27.2701 26.6863 27.2701 26.1105C27.2701 24.712 26.7765 24.0128 25.7894 24.0128C25.0764 24.0128 24.4457 24.3692 23.8973 25.0822C23.3489 25.7677 22.9102 26.6726 22.5811 27.7968L19.7842 41H13.8613L18.2212 20.4343H24.1441L23.6917 22.5732C25.0627 21.0376 26.6668 20.2698 28.504 20.2698C29.9025 20.2698 31.013 20.6537 31.8357 21.4215C32.6583 22.1893 33.0696 23.3547 33.0696 24.9176C33.0696 25.7128 32.9736 26.604 32.7817 27.5912C32.5897 28.5509 32.3155 29.73 31.9591 31.1285C31.7397 31.9785 31.534 32.8149 31.3421 33.6375C31.1776 34.4327 31.0953 35.0634 31.0953 35.5295C31.0953 36.0779 31.2187 36.503 31.4655 36.8046C31.7123 37.1062 32.1373 37.257 32.7406 37.257C33.5632 37.257 34.2213 36.9691 34.7149 36.3933C35.2084 35.79 35.702 34.8714 36.1956 33.6375H37.9231C36.9085 36.6538 35.7294 38.6829 34.3858 39.7249C33.0696 40.7395 31.6986 41.2468 30.2727 41.2468ZM43.0597 18.2132C42.1548 18.2132 41.387 17.8979 40.7563 17.2672C40.1257 16.6365 39.8103 15.8687 39.8103 14.9639C39.8103 14.059 40.1257 13.2912 40.7563 12.6605C41.387 12.0024 42.1548 11.6733 43.0597 11.6733C43.9646 11.6733 44.7324 12.0024 45.3631 12.6605C46.0212 13.2912 46.3502 14.059 46.3502 14.9639C46.3502 15.8687 46.0212 16.6365 45.3631 17.2672C44.7324 17.8979 43.9646 18.2132 43.0597 18.2132ZM40.2628 41.2468C38.9466 41.2468 37.8772 40.8355 37.0545 40.0128C36.2593 39.1902 35.8617 37.9563 35.8617 36.311C35.8617 35.6255 35.9714 34.7343 36.1908 33.6375L38.9877 20.4343H44.9106L41.9492 34.419C41.8395 34.8303 41.7846 35.269 41.7846 35.7352C41.7846 36.2836 41.908 36.6812 42.1548 36.928C42.429 37.1474 42.8678 37.257 43.471 37.257C44.2662 37.257 45.0066 36.928 45.6921 36.2699C46.3776 35.5844 46.8712 34.7069 47.1728 33.6375H48.9004C47.8858 36.5989 46.5833 38.6144 44.9929 39.6838C43.4025 40.7258 41.8258 41.2468 40.2628 41.2468ZM72.1643 41.2468C70.4916 41.2468 69.2577 40.8081 68.4625 39.9306C67.6947 39.0257 67.3108 37.9151 67.3108 36.5989C67.3108 36.0231 67.3794 35.3787 67.5165 34.6658C67.6536 33.9254 67.7907 33.2125 67.9278 32.5269C68.0923 31.8414 68.202 31.4027 68.2568 31.2107C68.4762 30.251 68.6819 29.305 68.8738 28.3727C69.0657 27.4404 69.1617 26.6863 69.1617 26.1105C69.1617 24.712 68.6681 24.0128 67.681 24.0128C66.968 24.0128 66.3374 24.3692 65.7889 25.0822C65.2405 25.7677 64.8018 26.6726 64.4727 27.7968L61.6758 41H55.7529L58.7555 26.8097C58.8378 26.4806 58.8789 26.1379 58.8789 25.7814C58.8789 24.5749 58.4676 23.9716 57.6449 23.9716C56.8772 23.9716 56.2053 24.3281 55.6295 25.041C55.0811 25.7266 54.6424 26.6452 54.3133 27.7968L51.5164 41H45.5935L49.9534 20.4343H55.8763L55.4238 22.5732C56.8223 21.0102 58.495 20.2287 60.4419 20.2287C62.8549 20.2287 64.2671 21.4078 64.6784 23.766C66.1866 21.4352 68.0923 20.2698 70.3957 20.2698C71.7941 20.2698 72.9047 20.6537 73.7273 21.4215C74.5499 22.1893 74.9612 23.3547 74.9612 24.9176C74.9612 25.7128 74.8653 26.604 74.6733 27.5912C74.4814 28.5509 74.2072 29.73 73.8507 31.1285C73.6313 31.9785 73.4257 32.8149 73.2337 33.6375C73.0692 34.4327 72.9869 35.0634 72.9869 35.5295C72.9869 36.0779 73.1103 36.503 73.3571 36.8046C73.6039 37.1062 74.0289 37.257 74.6322 37.257C75.4548 37.257 76.1129 36.9691 76.6065 36.3933C77.1001 35.79 77.5936 34.8714 78.0872 33.6375H79.8147C78.8002 36.6538 77.6211 38.6829 76.2774 39.7249C74.9612 40.7395 73.5902 41.2468 72.1643 41.2468ZM83.5558 41.2468C81.6911 41.2468 80.2653 40.7943 79.2781 39.8895C78.2909 38.9571 77.7974 37.6547 77.7974 35.982C77.7974 35.1593 77.8933 34.3779 78.0853 33.6375L82.4863 13.0307L88.5738 12.2081L86.5995 21.4626C87.3673 20.9965 87.9979 20.6948 88.4915 20.5577C88.9851 20.3932 89.4787 20.3109 89.9722 20.3109C93.2079 20.3109 94.8257 22.6554 94.8257 27.3444C94.8257 29.2364 94.4556 31.2656 93.7152 33.4318C93.0023 35.5707 91.7957 37.4079 90.0956 38.9434C88.423 40.479 86.243 41.2468 83.5558 41.2468ZM85.8591 37.257C86.7092 37.257 87.5044 36.7361 88.2447 35.6941C88.9851 34.6246 89.5746 33.3084 90.0134 31.7454C90.4521 30.155 90.6715 28.6332 90.6715 27.1799C90.6715 26.083 90.4795 25.1507 90.0956 24.3829C89.7118 23.6151 89.177 23.2313 88.4915 23.2313C88.0802 23.2313 87.6141 23.2998 87.0931 23.4369C86.5995 23.5466 86.2567 23.7248 86.0648 23.9716L83.8025 34.419C83.7203 34.748 83.6792 35.0634 83.6792 35.365C83.6792 36.6264 84.4058 37.257 85.8591 37.257ZM100.433 41.2468C99.1172 41.2468 98.0478 40.8355 97.2252 40.0128C96.43 39.1902 96.0324 37.9563 96.0324 36.311C96.0324 35.6255 96.1421 34.7343 96.3614 33.6375L100.762 13.0307L106.85 12.2081L102.12 34.419C102.01 34.8303 101.955 35.269 101.955 35.7352C101.955 36.2836 102.079 36.6812 102.325 36.928C102.6 37.1474 103.038 37.257 103.642 37.257C104.437 37.257 105.177 36.928 105.863 36.2699C106.548 35.5844 107.042 34.7069 107.343 33.6375H109.071C108.056 36.5989 106.754 38.6144 105.164 39.6838C103.573 40.7258 101.996 41.2468 100.433 41.2468ZM113.127 41.2468C111.125 41.2468 109.562 40.7258 108.438 39.6838C107.313 38.6144 106.751 36.9554 106.751 34.7069C106.751 32.8149 107.121 30.7309 107.862 28.4549C108.602 26.179 109.809 24.2184 111.481 22.5732C113.154 20.9005 115.279 20.0641 117.857 20.0641C120.873 20.0641 122.381 21.3803 122.381 24.0128C122.381 25.5483 121.942 26.9605 121.065 28.2493C120.188 29.5381 119.022 30.5801 117.569 31.3753C116.116 32.143 114.566 32.5818 112.921 32.6915C112.866 33.2947 112.839 33.706 112.839 33.9254C112.839 36.2013 113.689 37.3393 115.389 37.3393C116.157 37.3393 116.979 37.1337 117.857 36.7223C118.734 36.311 119.529 35.79 120.242 35.1593C119.502 39.2176 117.13 41.2468 113.127 41.2468ZM113.209 30.7172C114.251 30.6897 115.224 30.347 116.129 29.6889C117.062 29.0308 117.802 28.1944 118.35 27.1799C118.926 26.1379 119.214 25.0547 119.214 23.9305C119.214 22.8062 118.871 22.2441 118.186 22.2441C117.226 22.2441 116.266 23.1216 115.307 24.8765C114.374 26.604 113.675 28.5509 113.209 30.7172Z" fill="#1A73E8"/>
<path d="M7.45733 54.3076L6.21383 52.525C6.16165 52.5308 6.08339 52.5337 5.97904 52.5337H4.6051V54.3076H3.47464V48.2205H5.97904C6.50659 48.2205 6.96457 48.3075 7.35298 48.4814C7.7472 48.6553 8.04865 48.9046 8.25735 49.2292C8.46605 49.5539 8.5704 49.9394 8.5704 50.3858C8.5704 50.8438 8.45736 51.238 8.23127 51.5684C8.01097 51.8989 7.69212 52.1452 7.27472 52.3076L8.67475 54.3076H7.45733ZM7.43125 50.3858C7.43125 49.9974 7.30371 49.6988 7.04863 49.4901C6.79355 49.2814 6.41963 49.1771 5.92687 49.1771H4.6051V51.6032H5.92687C6.41963 51.6032 6.79355 51.4989 7.04863 51.2902C7.30371 51.0757 7.43125 50.7742 7.43125 50.3858ZM14.357 52.0119C14.357 52.0873 14.3512 52.1945 14.3396 52.3337H10.6961C10.7598 52.6757 10.9251 52.9482 11.1917 53.1511C11.4642 53.3482 11.8004 53.4467 12.2004 53.4467C12.7106 53.4467 13.1309 53.2786 13.4613 52.9424L14.044 53.6119C13.8353 53.8612 13.5715 54.0496 13.2526 54.1772C12.9338 54.3047 12.5744 54.3685 12.1744 54.3685C11.6642 54.3685 11.2149 54.267 10.8265 54.0641C10.4381 53.8612 10.1366 53.5801 9.92213 53.2206C9.71343 52.8554 9.60908 52.4438 9.60908 51.9858C9.60908 51.5336 9.71053 51.1278 9.91344 50.7684C10.1221 50.4032 10.4091 50.1191 10.7743 49.9162C11.1396 49.7133 11.5512 49.6119 12.0091 49.6119C12.4613 49.6119 12.8642 49.7133 13.2179 49.9162C13.5773 50.1133 13.8556 50.3945 14.0527 50.7597C14.2556 51.1191 14.357 51.5365 14.357 52.0119ZM12.0091 50.4814C11.6613 50.4814 11.3656 50.5858 11.1222 50.7945C10.8845 50.9974 10.7395 51.2699 10.6874 51.6119H13.3222C13.2758 51.2757 13.1338 51.0032 12.8961 50.7945C12.6584 50.5858 12.3628 50.4814 12.0091 50.4814ZM20.2099 47.8553V54.3076H19.1664V53.7076C18.9867 53.9279 18.7635 54.0931 18.4968 54.2033C18.236 54.3134 17.9461 54.3685 17.6273 54.3685C17.1809 54.3685 16.778 54.2699 16.4185 54.0728C16.0649 53.8757 15.7866 53.5975 15.5837 53.238C15.3808 52.8728 15.2794 52.4554 15.2794 51.9858C15.2794 51.5162 15.3808 51.1017 15.5837 50.7423C15.7866 50.3829 16.0649 50.1046 16.4185 49.9075C16.778 49.7104 17.1809 49.6119 17.6273 49.6119C17.9345 49.6119 18.2157 49.664 18.4708 49.7684C18.7258 49.8727 18.9432 50.0293 19.123 50.238V47.8553H20.2099ZM17.7577 53.438C18.0186 53.438 18.2534 53.3801 18.4621 53.2641C18.6708 53.1424 18.836 52.9714 18.9577 52.7511C19.0795 52.5308 19.1403 52.2757 19.1403 51.9858C19.1403 51.696 19.0795 51.4409 18.9577 51.2206C18.836 51.0003 18.6708 50.8322 18.4621 50.7162C18.2534 50.5945 18.0186 50.5336 17.7577 50.5336C17.4968 50.5336 17.262 50.5945 17.0533 50.7162C16.8446 50.8322 16.6794 51.0003 16.5577 51.2206C16.4359 51.4409 16.3751 51.696 16.3751 51.9858C16.3751 52.2757 16.4359 52.5308 16.5577 52.7511C16.6794 52.9714 16.8446 53.1424 17.0533 53.2641C17.262 53.3801 17.4968 53.438 17.7577 53.438ZM26.2581 52.0119C26.2581 52.0873 26.2523 52.1945 26.2407 52.3337H22.5971C22.6609 52.6757 22.8261 52.9482 23.0928 53.1511C23.3653 53.3482 23.7015 53.4467 24.1015 53.4467C24.6117 53.4467 25.032 53.2786 25.3624 52.9424L25.945 53.6119C25.7363 53.8612 25.4726 54.0496 25.1537 54.1772C24.8349 54.3047 24.4754 54.3685 24.0754 54.3685C23.5653 54.3685 23.116 54.267 22.7276 54.0641C22.3392 53.8612 22.0377 53.5801 21.8232 53.2206C21.6145 52.8554 21.5102 52.4438 21.5102 51.9858C21.5102 51.5336 21.6116 51.1278 21.8145 50.7684C22.0232 50.4032 22.3102 50.1191 22.6754 49.9162C23.0406 49.7133 23.4522 49.6119 23.9102 49.6119C24.3624 49.6119 24.7653 49.7133 25.1189 49.9162C25.4784 50.1133 25.7566 50.3945 25.9537 50.7597C26.1566 51.1191 26.2581 51.5365 26.2581 52.0119ZM23.9102 50.4814C23.5624 50.4814 23.2667 50.5858 23.0232 50.7945C22.7856 50.9974 22.6406 51.2699 22.5884 51.6119H25.2233C25.1769 51.2757 25.0349 51.0032 24.7972 50.7945C24.5595 50.5858 24.2638 50.4814 23.9102 50.4814ZM29.4501 48.6727C28.9921 48.6727 28.7631 48.922 28.7631 49.4206V49.6988H30.0414V50.5684H28.7979V54.3076H27.7109V50.5684H26.9457V49.6988H27.7109V49.4032C27.7109 48.9046 27.8558 48.5133 28.1457 48.2292C28.4356 47.9394 28.8443 47.7944 29.3718 47.7944C29.7892 47.7944 30.1168 47.8785 30.3545 48.0466L30.0501 48.864C29.8646 48.7365 29.6646 48.6727 29.4501 48.6727ZM31.4675 49.664H32.5545V54.3076H31.4675V49.664ZM32.0154 48.8988C31.8183 48.8988 31.653 48.8379 31.5197 48.7162C31.3864 48.5886 31.3197 48.4321 31.3197 48.2466C31.3197 48.0611 31.3864 47.9075 31.5197 47.7857C31.653 47.6582 31.8183 47.5944 32.0154 47.5944C32.2125 47.5944 32.3777 47.6553 32.511 47.777C32.6444 47.893 32.711 48.0408 32.711 48.2205C32.711 48.4118 32.6444 48.5742 32.511 48.7075C32.3835 48.835 32.2183 48.8988 32.0154 48.8988ZM36.8788 49.6119C37.4643 49.6119 37.9339 49.7829 38.2875 50.1249C38.6411 50.467 38.818 50.9742 38.818 51.6467V54.3076H37.731V51.7858C37.731 51.38 37.6353 51.0757 37.444 50.8728C37.2527 50.6641 36.9802 50.5597 36.6266 50.5597C36.2266 50.5597 35.9106 50.6814 35.6788 50.9249C35.4469 51.1626 35.3309 51.5076 35.3309 51.9597V54.3076H34.2439V49.664H35.2787V50.264C35.4585 50.0496 35.6846 49.8872 35.957 49.7771C36.2295 49.6669 36.5367 49.6119 36.8788 49.6119ZM40.4577 49.664H41.5447V54.3076H40.4577V49.664ZM41.0056 48.8988C40.8085 48.8988 40.6432 48.8379 40.5099 48.7162C40.3766 48.5886 40.3099 48.4321 40.3099 48.2466C40.3099 48.0611 40.3766 47.9075 40.5099 47.7857C40.6432 47.6582 40.8085 47.5944 41.0056 47.5944C41.2027 47.5944 41.3679 47.6553 41.5012 47.777C41.6346 47.893 41.7012 48.0408 41.7012 48.2205C41.7012 48.4118 41.6346 48.5742 41.5012 48.7075C41.3737 48.835 41.2085 48.8988 41.0056 48.8988ZM45.8671 49.6119C46.4526 49.6119 46.9222 49.7829 47.2758 50.1249C47.6295 50.467 47.8063 50.9742 47.8063 51.6467V54.3076H46.7193V51.7858C46.7193 51.38 46.6236 51.0757 46.4323 50.8728C46.241 50.6641 45.9685 50.5597 45.6149 50.5597C45.2149 50.5597 44.899 50.6814 44.6671 50.9249C44.4352 51.1626 44.3192 51.5076 44.3192 51.9597V54.3076H43.2323V49.664H44.2671V50.264C44.4468 50.0496 44.6729 49.8872 44.9453 49.7771C45.2178 49.6669 45.5251 49.6119 45.8671 49.6119ZM54.0973 49.664V53.6033C54.0973 55.2381 53.2625 56.0555 51.5929 56.0555C51.1465 56.0555 50.7233 55.9975 50.3233 55.8816C49.9233 55.7714 49.5929 55.6091 49.332 55.3946L49.819 54.5772C50.0219 54.7453 50.2769 54.8786 50.5842 54.9772C50.8972 55.0815 51.2132 55.1337 51.532 55.1337C52.0422 55.1337 52.4161 55.0178 52.6538 54.7859C52.8915 54.554 53.0103 54.2004 53.0103 53.725V53.4815C52.8248 53.6844 52.5987 53.838 52.3321 53.9424C52.0654 54.0467 51.7726 54.0989 51.4538 54.0989C51.0132 54.0989 50.6132 54.0062 50.2537 53.8206C49.9001 53.6293 49.6189 53.3627 49.4102 53.0206C49.2073 52.6786 49.1059 52.2873 49.1059 51.8467C49.1059 51.4061 49.2073 51.0177 49.4102 50.6814C49.6189 50.3394 49.9001 50.0756 50.2537 49.8901C50.6132 49.7046 51.0132 49.6119 51.4538 49.6119C51.79 49.6119 52.0944 49.6669 52.3668 49.7771C52.6451 49.8872 52.877 50.0553 53.0625 50.2814V49.664H54.0973ZM51.619 53.1772C52.0306 53.1772 52.3668 53.0554 52.6277 52.8119C52.8944 52.5627 53.0277 52.2409 53.0277 51.8467C53.0277 51.4583 52.8944 51.1423 52.6277 50.8988C52.3668 50.6554 52.0306 50.5336 51.619 50.5336C51.2016 50.5336 50.8596 50.6554 50.5929 50.8988C50.332 51.1423 50.2016 51.4583 50.2016 51.8467C50.2016 52.2409 50.332 52.5627 50.5929 52.8119C50.8596 53.0554 51.2016 53.1772 51.619 53.1772ZM63.121 53.3598V54.3076H58.5557V48.2205H62.9993V49.1684H59.6862V50.751H62.6254V51.6815H59.6862V53.3598H63.121ZM70.3988 49.6119C70.9843 49.6119 71.4481 49.7829 71.7901 50.1249C72.1321 50.4612 72.3032 50.9684 72.3032 51.6467V54.3076H71.2162V51.7858C71.2162 51.38 71.1263 51.0757 70.9466 50.8728C70.7669 50.6641 70.5089 50.5597 70.1727 50.5597C69.8074 50.5597 69.5147 50.6814 69.2944 50.9249C69.0741 51.1626 68.9639 51.5047 68.9639 51.951V54.3076H67.877V51.7858C67.877 51.38 67.7871 51.0757 67.6074 50.8728C67.4277 50.6641 67.1697 50.5597 66.8335 50.5597C66.4624 50.5597 66.1668 50.6785 65.9465 50.9162C65.732 51.1539 65.6247 51.4989 65.6247 51.951V54.3076H64.5378V49.664H65.5726V50.2554C65.7465 50.0467 65.9639 49.8872 66.2248 49.7771C66.4856 49.6669 66.7755 49.6119 67.0943 49.6119C67.4422 49.6119 67.7494 49.6785 68.0161 49.8119C68.2886 49.9394 68.5031 50.1307 68.6596 50.3858C68.8509 50.1423 69.0973 49.9539 69.3987 49.8206C69.7002 49.6814 70.0335 49.6119 70.3988 49.6119ZM76.527 49.6119C76.9792 49.6119 77.3821 49.7104 77.7358 49.9075C78.0952 50.1046 78.3763 50.3829 78.5792 50.7423C78.7822 51.1017 78.8836 51.5162 78.8836 51.9858C78.8836 52.4554 78.7822 52.8728 78.5792 53.238C78.3763 53.5975 78.0952 53.8757 77.7358 54.0728C77.3821 54.2699 76.9792 54.3685 76.527 54.3685C75.9009 54.3685 75.4053 54.1598 75.04 53.7424V55.9946H73.9531V49.664H74.9879V50.2727C75.1676 50.0524 75.3879 49.8872 75.6487 49.7771C75.9154 49.6669 76.2082 49.6119 76.527 49.6119ZM76.4053 53.438C76.8053 53.438 77.1328 53.3047 77.3879 53.038C77.6488 52.7714 77.7792 52.4206 77.7792 51.9858C77.7792 51.551 77.6488 51.2003 77.3879 50.9336C77.1328 50.667 76.8053 50.5336 76.4053 50.5336C76.1444 50.5336 75.9096 50.5945 75.7009 50.7162C75.4922 50.8322 75.327 51.0003 75.2053 51.2206C75.0835 51.4409 75.0226 51.696 75.0226 51.9858C75.0226 52.2757 75.0835 52.5308 75.2053 52.7511C75.327 52.9714 75.4922 53.1424 75.7009 53.2641C75.9096 53.3801 76.1444 53.438 76.4053 53.438ZM80.1753 47.8553H81.2623V54.3076H80.1753V47.8553ZM85.0369 54.3685C84.5673 54.3685 84.1441 54.267 83.7673 54.0641C83.3905 53.8612 83.0948 53.5801 82.8803 53.2206C82.6716 52.8554 82.5672 52.4438 82.5672 51.9858C82.5672 51.5278 82.6716 51.1191 82.8803 50.7597C83.0948 50.4003 83.3905 50.1191 83.7673 49.9162C84.1441 49.7133 84.5673 49.6119 85.0369 49.6119C85.5122 49.6119 85.9383 49.7133 86.3152 49.9162C86.692 50.1191 86.9847 50.4003 87.1934 50.7597C87.4079 51.1191 87.5152 51.5278 87.5152 51.9858C87.5152 52.4438 87.4079 52.8554 87.1934 53.2206C86.9847 53.5801 86.692 53.8612 86.3152 54.0641C85.9383 54.267 85.5122 54.3685 85.0369 54.3685ZM85.0369 53.438C85.4369 53.438 85.7673 53.3047 86.0282 53.038C86.2891 52.7714 86.4195 52.4206 86.4195 51.9858C86.4195 51.551 86.2891 51.2003 86.0282 50.9336C85.7673 50.667 85.4369 50.5336 85.0369 50.5336C84.6369 50.5336 84.3064 50.667 84.0455 50.9336C83.7905 51.2003 83.6629 51.551 83.6629 51.9858C83.6629 52.4206 83.7905 52.7714 84.0455 53.038C84.3064 53.3047 84.6369 53.438 85.0369 53.438ZM93.036 49.664L90.8621 54.6815C90.6592 55.1859 90.4128 55.5395 90.1229 55.7424C89.8331 55.9511 89.4823 56.0555 89.0707 56.0555C88.8388 56.0555 88.6098 56.0178 88.3837 55.9424C88.1577 55.8671 87.9721 55.7627 87.8272 55.6294L88.262 54.8294C88.3664 54.9279 88.4881 55.0062 88.6272 55.0642C88.7722 55.1221 88.9171 55.1511 89.062 55.1511C89.2533 55.1511 89.4099 55.1018 89.5316 55.0033C89.6591 54.9047 89.7751 54.7395 89.8794 54.5076L89.9577 54.325L87.9316 49.664H89.062L90.5229 53.0989L91.9925 49.664H93.036ZM98.2142 52.0119C98.2142 52.0873 98.2084 52.1945 98.1968 52.3337H94.5532C94.617 52.6757 94.7822 52.9482 95.0489 53.1511C95.3214 53.3482 95.6576 53.4467 96.0576 53.4467C96.5678 53.4467 96.9881 53.2786 97.3185 52.9424L97.9011 53.6119C97.6924 53.8612 97.4287 54.0496 97.1098 54.1772C96.791 54.3047 96.4315 54.3685 96.0315 54.3685C95.5214 54.3685 95.0721 54.267 94.6837 54.0641C94.2953 53.8612 93.9938 53.5801 93.7793 53.2206C93.5706 52.8554 93.4663 52.4438 93.4663 51.9858C93.4663 51.5336 93.5677 51.1278 93.7706 50.7684C93.9793 50.4032 94.2663 50.1191 94.6315 49.9162C94.9967 49.7133 95.4083 49.6119 95.8663 49.6119C96.3185 49.6119 96.7214 49.7133 97.075 49.9162C97.4345 50.1133 97.7127 50.3945 97.9098 50.7597C98.1127 51.1191 98.2142 51.5365 98.2142 52.0119ZM95.8663 50.4814C95.5185 50.4814 95.2228 50.5858 94.9793 50.7945C94.7417 50.9974 94.5967 51.2699 94.5445 51.6119H97.1794C97.133 51.2757 96.991 51.0032 96.7533 50.7945C96.5156 50.5858 96.2199 50.4814 95.8663 50.4814ZM103.885 52.0119C103.885 52.0873 103.879 52.1945 103.867 52.3337H100.224C100.287 52.6757 100.453 52.9482 100.719 53.1511C100.992 53.3482 101.328 53.4467 101.728 53.4467C102.238 53.4467 102.658 53.2786 102.989 52.9424L103.571 53.6119C103.363 53.8612 103.099 54.0496 102.78 54.1772C102.461 54.3047 102.102 54.3685 101.702 54.3685C101.192 54.3685 100.742 54.267 100.354 54.0641C99.9656 53.8612 99.6641 53.5801 99.4496 53.2206C99.2409 52.8554 99.1366 52.4438 99.1366 51.9858C99.1366 51.5336 99.238 51.1278 99.4409 50.7684C99.6496 50.4032 99.9366 50.1191 100.302 49.9162C100.667 49.7133 101.079 49.6119 101.537 49.6119C101.989 49.6119 102.392 49.7133 102.745 49.9162C103.105 50.1133 103.383 50.3945 103.58 50.7597C103.783 51.1191 103.885 51.5365 103.885 52.0119ZM101.537 50.4814C101.189 50.4814 100.893 50.5858 100.65 50.7945C100.412 50.9974 100.267 51.2699 100.215 51.6119H102.85C102.803 51.2757 102.661 51.0032 102.424 50.7945C102.186 50.5858 101.89 50.4814 101.537 50.4814ZM112.523 53.3598V54.3076H107.958V48.2205H112.402V49.1684H109.088V50.751H112.028V51.6815H109.088V53.3598H112.523ZM116.575 49.6119C117.16 49.6119 117.63 49.7829 117.984 50.1249C118.337 50.467 118.514 50.9742 118.514 51.6467V54.3076H117.427V51.7858C117.427 51.38 117.331 51.0757 117.14 50.8728C116.949 50.6641 116.676 50.5597 116.323 50.5597C115.923 50.5597 115.607 50.6814 115.375 50.9249C115.143 51.1626 115.027 51.5076 115.027 51.9597V54.3076H113.94V49.664H114.975V50.264C115.155 50.0496 115.381 49.8872 115.653 49.7771C115.926 49.6669 116.233 49.6119 116.575 49.6119ZM124.805 49.664V53.6033C124.805 55.2381 123.97 56.0555 122.301 56.0555C121.854 56.0555 121.431 55.9975 121.031 55.8816C120.631 55.7714 120.301 55.6091 120.04 55.3946L120.527 54.5772C120.73 54.7453 120.985 54.8786 121.292 54.9772C121.605 55.0815 121.921 55.1337 122.24 55.1337C122.75 55.1337 123.124 55.0178 123.362 54.7859C123.599 54.554 123.718 54.2004 123.718 53.725V53.4815C123.533 53.6844 123.306 53.838 123.04 53.9424C122.773 54.0467 122.48 54.0989 122.162 54.0989C121.721 54.0989 121.321 54.0062 120.962 53.8206C120.608 53.6293 120.327 53.3627 120.118 53.0206C119.915 52.6786 119.814 52.2873 119.814 51.8467C119.814 51.4061 119.915 51.0177 120.118 50.6814C120.327 50.3394 120.608 50.0756 120.962 49.8901C121.321 49.7046 121.721 49.6119 122.162 49.6119C122.498 49.6119 122.802 49.6669 123.075 49.7771C123.353 49.8872 123.585 50.0553 123.77 50.2814V49.664H124.805ZM122.327 53.1772C122.738 53.1772 123.075 53.0554 123.335 52.8119C123.602 52.5627 123.735 52.2409 123.735 51.8467C123.735 51.4583 123.602 51.1423 123.335 50.8988C123.075 50.6554 122.738 50.5336 122.327 50.5336C121.909 50.5336 121.567 50.6554 121.301 50.8988C121.04 51.1423 120.909 51.4583 120.909 51.8467C120.909 52.2409 121.04 52.5627 121.301 52.8119C121.567 53.0554 121.909 53.1772 122.327 53.1772ZM128.269 49.6119C128.953 49.6119 129.475 49.7771 129.834 50.1075C130.199 50.4322 130.382 50.9249 130.382 51.5858V54.3076H129.356V53.7424C129.223 53.9453 129.031 54.1018 128.782 54.212C128.539 54.3163 128.243 54.3685 127.895 54.3685C127.547 54.3685 127.243 54.3105 126.982 54.1946C126.721 54.0728 126.518 53.9076 126.373 53.6989C126.234 53.4844 126.165 53.2438 126.165 52.9772C126.165 52.5598 126.318 52.2264 126.625 51.9771C126.938 51.7221 127.428 51.5945 128.095 51.5945H129.295V51.5249C129.295 51.2003 129.197 50.951 128.999 50.7771C128.808 50.6032 128.521 50.5162 128.139 50.5162C127.878 50.5162 127.62 50.5568 127.365 50.638C127.115 50.7191 126.904 50.8322 126.73 50.9771L126.304 50.1858C126.547 50.0003 126.84 49.8582 127.182 49.7597C127.524 49.6611 127.886 49.6119 128.269 49.6119ZM128.121 53.5772C128.394 53.5772 128.634 53.5163 128.843 53.3946C129.057 53.267 129.208 53.0873 129.295 52.8554V52.3163H128.173C127.547 52.3163 127.234 52.5221 127.234 52.9337C127.234 53.1308 127.312 53.2873 127.469 53.4032C127.625 53.5192 127.843 53.5772 128.121 53.5772ZM136.689 49.664V53.6033C136.689 55.2381 135.854 56.0555 134.185 56.0555C133.738 56.0555 133.315 55.9975 132.915 55.8816C132.515 55.7714 132.185 55.6091 131.924 55.3946L132.411 54.5772C132.614 54.7453 132.869 54.8786 133.176 54.9772C133.489 55.0815 133.805 55.1337 134.124 55.1337C134.634 55.1337 135.008 55.0178 135.246 54.7859C135.483 54.554 135.602 54.2004 135.602 53.725V53.4815C135.417 53.6844 135.191 53.838 134.924 53.9424C134.657 54.0467 134.364 54.0989 134.046 54.0989C133.605 54.0989 133.205 54.0062 132.846 53.8206C132.492 53.6293 132.211 53.3627 132.002 53.0206C131.799 52.6786 131.698 52.2873 131.698 51.8467C131.698 51.4061 131.799 51.0177 132.002 50.6814C132.211 50.3394 132.492 50.0756 132.846 49.8901C133.205 49.7046 133.605 49.6119 134.046 49.6119C134.382 49.6119 134.686 49.6669 134.959 49.7771C135.237 49.8872 135.469 50.0553 135.654 50.2814V49.664H136.689ZM134.211 53.1772C134.622 53.1772 134.959 53.0554 135.22 52.8119C135.486 52.5627 135.62 52.2409 135.62 51.8467C135.62 51.4583 135.486 51.1423 135.22 50.8988C134.959 50.6554 134.622 50.5336 134.211 50.5336C133.793 50.5336 133.451 50.6554 133.185 50.8988C132.924 51.1423 132.793 51.4583 132.793 51.8467C132.793 52.2409 132.924 52.5627 133.185 52.8119C133.451 53.0554 133.793 53.1772 134.211 53.1772ZM142.744 52.0119C142.744 52.0873 142.739 52.1945 142.727 52.3337H139.083C139.147 52.6757 139.312 52.9482 139.579 53.1511C139.852 53.3482 140.188 53.4467 140.588 53.4467C141.098 53.4467 141.518 53.2786 141.849 52.9424L142.431 53.6119C142.223 53.8612 141.959 54.0496 141.64 54.1772C141.321 54.3047 140.962 54.3685 140.562 54.3685C140.052 54.3685 139.602 54.267 139.214 54.0641C138.825 53.8612 138.524 53.5801 138.31 53.2206C138.101 52.8554 137.996 52.4438 137.996 51.9858C137.996 51.5336 138.098 51.1278 138.301 50.7684C138.51 50.4032 138.796 50.1191 139.162 49.9162C139.527 49.7133 139.939 49.6119 140.397 49.6119C140.849 49.6119 141.252 49.7133 141.605 49.9162C141.965 50.1133 142.243 50.3945 142.44 50.7597C142.643 51.1191 142.744 51.5365 142.744 52.0119ZM140.397 50.4814C140.049 50.4814 139.753 50.5858 139.51 50.7945C139.272 50.9974 139.127 51.2699 139.075 51.6119H141.71C141.663 51.2757 141.521 51.0032 141.284 50.7945C141.046 50.5858 140.75 50.4814 140.397 50.4814ZM149.91 49.6119C150.496 49.6119 150.96 49.7829 151.302 50.1249C151.644 50.4612 151.815 50.9684 151.815 51.6467V54.3076H150.728V51.7858C150.728 51.38 150.638 51.0757 150.458 50.8728C150.279 50.6641 150.021 50.5597 149.684 50.5597C149.319 50.5597 149.026 50.6814 148.806 50.9249C148.586 51.1626 148.476 51.5047 148.476 51.951V54.3076H147.389V51.7858C147.389 51.38 147.299 51.0757 147.119 50.8728C146.939 50.6641 146.681 50.5597 146.345 50.5597C145.974 50.5597 145.678 50.6785 145.458 50.9162C145.244 51.1539 145.136 51.4989 145.136 51.951V54.3076H144.049V49.664H145.084V50.2554C145.258 50.0467 145.476 49.8872 145.736 49.7771C145.997 49.6669 146.287 49.6119 146.606 49.6119C146.954 49.6119 147.261 49.6785 147.528 49.8119C147.8 49.9394 148.015 50.1307 148.171 50.3858C148.363 50.1423 148.609 49.9539 148.91 49.8206C149.212 49.6814 149.545 49.6119 149.91 49.6119ZM157.872 52.0119C157.872 52.0873 157.867 52.1945 157.855 52.3337H154.212C154.275 52.6757 154.441 52.9482 154.707 53.1511C154.98 53.3482 155.316 53.4467 155.716 53.4467C156.226 53.4467 156.646 53.2786 156.977 52.9424L157.559 53.6119C157.351 53.8612 157.087 54.0496 156.768 54.1772C156.449 54.3047 156.09 54.3685 155.69 54.3685C155.18 54.3685 154.73 54.267 154.342 54.0641C153.954 53.8612 153.652 53.5801 153.438 53.2206C153.229 52.8554 153.125 52.4438 153.125 51.9858C153.125 51.5336 153.226 51.1278 153.429 50.7684C153.638 50.4032 153.925 50.1191 154.29 49.9162C154.655 49.7133 155.067 49.6119 155.525 49.6119C155.977 49.6119 156.38 49.7133 156.733 49.9162C157.093 50.1133 157.371 50.3945 157.568 50.7597C157.771 51.1191 157.872 51.5365 157.872 52.0119ZM155.525 50.4814C155.177 50.4814 154.881 50.5858 154.638 50.7945C154.4 50.9974 154.255 51.2699 154.203 51.6119H156.838C156.791 51.2757 156.649 51.0032 156.412 50.7945C156.174 50.5858 155.878 50.4814 155.525 50.4814ZM161.812 49.6119C162.398 49.6119 162.867 49.7829 163.221 50.1249C163.575 50.467 163.751 50.9742 163.751 51.6467V54.3076H162.664V51.7858C162.664 51.38 162.569 51.0757 162.378 50.8728C162.186 50.6641 161.914 50.5597 161.56 50.5597C161.16 50.5597 160.844 50.6814 160.612 50.9249C160.38 51.1626 160.264 51.5076 160.264 51.9597V54.3076H159.177V49.664H160.212V50.264C160.392 50.0496 160.618 49.8872 160.891 49.7771C161.163 49.6669 161.47 49.6119 161.812 49.6119ZM168.183 54.0554C168.055 54.1598 167.899 54.2381 167.713 54.2902C167.533 54.3424 167.342 54.3685 167.139 54.3685C166.629 54.3685 166.235 54.2352 165.956 53.9685C165.678 53.7018 165.539 53.3134 165.539 52.8032V50.5684H164.774V49.6988H165.539V48.6379H166.626V49.6988H167.87V50.5684H166.626V52.7771C166.626 53.0032 166.681 53.1772 166.791 53.2989C166.901 53.4148 167.061 53.4728 167.27 53.4728C167.513 53.4728 167.716 53.409 167.878 53.2815L168.183 54.0554Z" fill="black" fill-opacity="0.65"/>
<g clip-path="url(#clip0_117_21102)">
<path d="M129.027 41.3307C132.178 41.3307 134.733 38.7759 134.733 35.6243C134.733 32.4728 132.178 29.918 129.027 29.918C125.875 29.918 123.32 32.4728 123.32 35.6243C123.32 38.7759 125.875 41.3307 129.027 41.3307Z" fill="#F48636" stroke="#F48636" stroke-width="0.228255" stroke-miterlimit="10"/>
<path d="M140.415 28.4352C143.567 28.4352 146.122 25.8804 146.122 22.7288C146.122 19.5773 143.567 17.0225 140.415 17.0225C137.264 17.0225 134.709 19.5773 134.709 22.7288C134.709 25.8804 137.264 28.4352 140.415 28.4352Z" fill="#F48636" stroke="#F48636" stroke-width="0.228255" stroke-miterlimit="10"/>
<path d="M151.259 39.3444C154.411 39.3444 156.965 36.7896 156.965 33.638C156.965 30.4865 154.411 27.9316 151.259 27.9316C148.108 27.9316 145.553 30.4865 145.553 33.638C145.553 36.7896 148.108 39.3444 151.259 39.3444Z" fill="#F48636" stroke="#F48636" stroke-width="0.228255" stroke-miterlimit="10"/>
<path d="M162.353 21.86C165.504 21.86 168.059 19.3052 168.059 16.1536C168.059 13.0021 165.504 10.4473 162.353 10.4473C159.201 10.4473 156.646 13.0021 156.646 16.1536C156.646 19.3052 159.201 21.86 162.353 21.86Z" fill="#F48636" stroke="#F48636" stroke-width="0.228255" stroke-miterlimit="10"/>
<path d="M161.183 20.2371L159.25 18.8994L152.639 28.4542L154.573 29.7919L161.183 20.2371Z" fill="#F48636" stroke="#F48636" stroke-width="0.228255" stroke-miterlimit="10"/>
<path d="M149.711 33.1771L151.373 31.5146L143.158 23.2994L141.495 24.9618L149.711 33.1771Z" fill="#F48636" stroke="#F48636" stroke-width="0.228255" stroke-miterlimit="10"/>
<path d="M138.638 26.0638L136.842 24.5469L129.346 33.4232L131.142 34.9401L138.638 26.0638Z" fill="#F48636" stroke="#F48636" stroke-width="0.228255" stroke-miterlimit="10"/>
</g>
<defs>
<clipPath id="clip0_117_21102">
<rect width="44.9663" height="31.1112" fill="white" transform="translate(123.203 10.334)"/>
</clipPath>
</defs>
</svg>
