<svg width="129" height="46" viewBox="0 0 129 46" fill="none" xmlns="http://www.w3.org/2000/svg">
<path d="M11.0124 38.8105H3.1809V9.37712H20.5752V15.7591H11.0124V21.376H19.8303V27.7579H11.0124V38.8105Z" fill="#F4CE33"/>
<path d="M35.2114 15.598C37.4259 15.598 39.3385 15.9872 40.9491 16.7657C42.5597 17.5307 43.8012 18.685 44.6736 20.2284C45.546 21.7719 45.9822 23.7046 45.9822 26.0265V29.5296H31.9097C31.9768 30.7241 32.4197 31.7038 33.2384 32.4689C34.0706 33.2339 35.2919 33.6164 36.9025 33.6164C38.3252 33.6164 39.6271 33.4755 40.8082 33.1936C42.0027 32.9118 43.2308 32.4756 44.4924 31.885V37.5422C43.3918 38.1193 42.1906 38.5421 40.8887 38.8105C39.5868 39.079 37.9427 39.2132 35.9563 39.2132C33.6612 39.2132 31.6077 38.8038 29.7958 37.9851C27.9839 37.1664 26.5545 35.8981 25.5076 34.1801C24.4742 32.4622 23.9574 30.2543 23.9574 27.5566C23.9574 24.8186 24.4272 22.5705 25.3667 20.8123C26.3062 19.0406 27.6215 17.732 29.3126 16.8865C31.0037 16.0275 32.97 15.598 35.2114 15.598ZM35.4932 20.9532C34.5672 20.9532 33.7887 21.2485 33.1579 21.839C32.5405 22.4161 32.1781 23.3288 32.0708 24.577H38.8352C38.8218 23.9059 38.6876 23.2953 38.4326 22.745C38.1776 22.1947 37.8018 21.7585 37.3052 21.4364C36.822 21.1143 36.218 20.9532 35.4932 20.9532ZM61.6048 32.9923C62.3162 32.9923 62.9671 32.9185 63.5577 32.7709C64.1482 32.6232 64.7656 32.4353 65.4098 32.2072V37.9449C64.5509 38.3207 63.6382 38.6226 62.6719 38.8508C61.7189 39.0924 60.4976 39.2132 59.0078 39.2132C57.5314 39.2132 56.2295 38.985 55.1021 38.5287C53.9747 38.0589 53.0956 37.2536 52.4648 36.1128C51.8474 34.9586 51.5387 33.3547 51.5387 31.3012V21.8994H48.7806V18.6984L52.2836 16.2221L54.3169 11.4306H59.4708V16.0006H65.0676V21.8994H59.4708V30.7778C59.4708 31.5159 59.6587 32.0729 60.0345 32.4487C60.4103 32.8111 60.9338 32.9923 61.6048 32.9923ZM80.5695 32.9923C81.2808 32.9923 81.9318 32.9185 82.5223 32.7709C83.1129 32.6232 83.7302 32.4353 84.3745 32.2072V37.9449C83.5155 38.3207 82.6028 38.6226 81.6365 38.8508C80.6836 39.0924 79.4622 39.2132 77.9724 39.2132C76.496 39.2132 75.1941 38.985 74.0667 38.5287C72.9393 38.0589 72.0602 37.2536 71.4294 36.1128C70.812 34.9586 70.5033 33.3547 70.5033 31.3012V21.8994H67.7452V18.6984L71.2482 16.2221L73.2816 11.4306H78.4354V16.0006H84.0322V21.8994H78.4354V30.7778C78.4354 31.5159 78.6233 32.0729 78.9992 32.4487C79.375 32.8111 79.8984 32.9923 80.5695 32.9923ZM96.2324 38.8105H88.3607V7.48469H96.2324V38.8105ZM111.956 15.598C114.17 15.598 116.083 15.9872 117.693 16.7657C119.304 17.5307 120.546 18.685 121.418 20.2284C122.29 21.7719 122.727 23.7046 122.727 26.0265V29.5296H108.654C108.721 30.7241 109.164 31.7038 109.983 32.4689C110.815 33.2339 112.036 33.6164 113.647 33.6164C115.07 33.6164 116.371 33.4755 117.553 33.1936C118.747 32.9118 119.975 32.4756 121.237 31.885V37.5422C120.136 38.1193 118.935 38.5421 117.633 38.8105C116.331 39.079 114.687 39.2132 112.701 39.2132C110.406 39.2132 108.352 38.8038 106.54 37.9851C104.728 37.1664 103.299 35.8981 102.252 34.1801C101.219 32.4622 100.702 30.2543 100.702 27.5566C100.702 24.8186 101.172 22.5705 102.111 20.8123C103.051 19.0406 104.366 17.732 106.057 16.8865C107.748 16.0275 109.714 15.598 111.956 15.598ZM112.238 20.9532C111.311 20.9532 110.533 21.2485 109.902 21.839C109.285 22.4161 108.922 23.3288 108.815 24.577H115.58C115.566 23.9059 115.432 23.2953 115.177 22.745C114.922 22.1947 114.546 21.7585 114.049 21.4364C113.566 21.1143 112.962 20.9532 112.238 20.9532Z" fill="black"/>
<circle cx="126.511" cy="37.2835" r="2.2891" fill="#F4CE33"/>
</svg>
