<svg width="136" height="136" viewBox="0 0 136 136" fill="none" xmlns="http://www.w3.org/2000/svg">
<g filter="url(#filter0_d_29_18119)">
<circle cx="68" cy="64.0098" r="64" fill="white"/>
<path d="M17.3493 75.247C15.2745 69.0533 15.1157 62.6056 16.0359 56.2994C19.7381 30.8787 37.1558 14.6125 60.8557 9.42019C63.3383 8.87593 65.9075 8.95213 68.3937 9.19523C70.8799 9.43834 72.5433 11.0094 72.6047 13.5929C72.6696 16.238 71.2659 18.0123 68.5452 18.4586C65.8245 18.9049 63.1326 18.6509 60.4372 18.9339C37.2027 21.3613 19.0669 40.6029 17.5406 64.2892C17.3024 67.9612 17.8256 71.5715 17.3493 75.247Z" fill="url(#paint0_linear_29_18119)"/>
<path d="M102.52 103.19C99.3411 107.428 95.2312 110.614 90.6124 113.11C66.797 125.973 35.9669 118.444 20.5591 96.0131C20.016 95.2721 19.5333 94.4882 19.1157 93.6691C17.9646 91.2489 18.311 89.0066 20.4653 87.4028C22.522 85.868 24.6907 86.1583 26.4949 87.9725C27.5096 88.9646 28.3849 90.0914 29.0965 91.3215C42.0543 114.718 73.2272 122.646 97.6055 106.681C99.287 105.592 100.886 104.358 102.52 103.19Z" fill="url(#paint1_linear_29_18119)"/>
<path d="M82.7422 16.4229C91.1714 17.8379 98.3016 21.8655 104.486 27.5294C121.345 43.0047 126.92 67.3296 118.646 88.8171C117.805 90.9942 116.888 93.1712 115.257 94.9056C113.626 96.64 111.685 97.1698 109.585 95.6966C107.644 94.336 106.742 92.529 107.687 90.1633C108.197 88.9443 108.769 87.7526 109.401 86.5929C122.525 61.5568 113.46 32.3371 88.5337 19.3292C86.6104 18.3314 84.6655 17.3916 82.7422 16.4229Z" fill="url(#paint2_linear_29_18119)"/>
<path d="M98.2624 42.1611H38.5V97.5134H98.2624V42.1611Z" fill="url(#paint3_linear_29_18119)"/>
<path d="M94.5585 42.1611H42.1914V97.5134H94.5585V42.1611Z" fill="url(#paint4_linear_29_18119)"/>
<path d="M98.2624 93.252H38.5V97.5121H98.2624V93.252Z" fill="url(#paint5_linear_29_18119)"/>
<path d="M56.2607 30.0098H52.1656C50.2905 30.0098 48.4904 30.8198 47.2454 32.2299L38.5 42.1603H48.4604L56.2607 30.0098Z" fill="url(#paint6_linear_29_18119)"/>
<path d="M63.2965 30.0098H56.2613L48.4609 42.1603H58.4213L63.2965 30.0098Z" fill="url(#paint7_linear_29_18119)"/>
<path d="M70.3454 30.0098H63.2951L58.4199 42.1603H68.3803L70.3454 30.0098Z" fill="url(#paint8_linear_29_18119)"/>
<path d="M77.3962 30.0098H70.3459L68.3809 42.1603H78.3413L77.3962 30.0098Z" fill="url(#paint9_linear_29_18119)"/>
<g opacity="0.4">
<path d="M58.3158 44.0195H48.4604H38.5V45.3096C38.5 48.0547 40.7351 50.2898 43.4802 50.2898C46.2253 50.2898 48.4604 48.0547 48.4604 45.3096C48.4604 48.0547 50.6955 50.2898 53.4406 50.2898C56.0207 50.2898 58.1358 48.3097 58.3758 45.7896C58.6158 48.3097 60.7159 50.2898 63.311 50.2898C66.0561 50.2898 68.2912 48.0547 68.2912 45.3096V44.0195H58.4208H58.3158Z" fill="#003073"/>
<path d="M88.3017 44.0195H78.3413H68.3809V45.3096C68.3809 48.0547 70.6159 50.2898 73.3611 50.2898C76.1062 50.2898 78.3413 48.0547 78.3413 45.3096C78.3413 48.0547 80.5764 50.2898 83.3215 50.2898C86.0666 50.2898 88.3017 48.0547 88.3017 45.3096C88.3017 48.0547 90.5368 50.2898 93.2819 50.2898C96.027 50.2898 98.2621 48.0547 98.2621 45.3096V44.0195H88.3017Z" fill="#003073"/>
</g>
<path d="M84.4468 30.0098H77.3965L78.3415 42.1603H88.3019L84.4468 30.0098Z" fill="url(#paint10_linear_29_18119)"/>
<path d="M87.6424 30.0098H84.4473L88.3024 42.1603H98.2628L93.3876 33.3849C92.2176 31.2998 90.0275 30.0098 87.6424 30.0098Z" fill="url(#paint11_linear_29_18119)"/>
<path d="M43.4802 48.4164C40.7351 48.4164 38.5 46.1963 38.5 43.4362V42.1611H48.4604V43.4512C48.4604 46.1963 46.2253 48.4164 43.4802 48.4164Z" fill="url(#paint12_linear_29_18119)"/>
<path d="M63.2966 48.4164C60.5515 48.4164 58.3164 46.1813 58.3164 43.4362V42.1611H68.2768V43.4512C68.2768 46.1963 66.0567 48.4164 63.2966 48.4164Z" fill="url(#paint13_linear_29_18119)"/>
<path d="M53.4411 48.4164C50.696 48.4164 48.4609 46.1813 48.4609 43.4362V42.1611H58.4213V43.4512C58.4213 46.1963 56.1863 48.4164 53.4411 48.4164Z" fill="url(#paint14_linear_29_18119)"/>
<path d="M83.322 48.4164C80.5769 48.4164 78.3418 46.1813 78.3418 43.4362V42.1611H88.3022V43.4512C88.3022 46.1963 86.0671 48.4164 83.322 48.4164Z" fill="url(#paint15_linear_29_18119)"/>
<path opacity="0.2" d="M47.2453 32.2299L45.8652 33.7899C67.9011 30.2498 85.3768 34.825 97.0923 40.0752L93.3722 33.3849C92.2171 31.2998 90.027 30.0098 87.6419 30.0098H84.4468H77.3965H70.3462H63.2959H56.2457H52.1655C50.2904 30.0098 48.4903 30.8198 47.2453 32.2299Z" fill="#FFF1C9"/>
<path d="M73.3611 48.4164C70.616 48.4164 68.3809 46.1813 68.3809 43.4362V42.1611H78.3413V43.4512C78.3413 46.1963 76.1062 48.4164 73.3611 48.4164Z" fill="url(#paint16_linear_29_18119)"/>
<path d="M93.2829 48.4154C90.5378 48.4154 88.3027 46.1803 88.3027 43.4352V42.1602H98.2631V43.4502C98.2631 46.1953 96.0281 48.4154 93.2829 48.4154Z" fill="url(#paint17_linear_29_18119)"/>
<path opacity="0.4" d="M98.2624 42.1611H38.5V44.0212H98.2624V42.1611Z" fill="url(#paint18_linear_29_18119)"/>
<path opacity="0.3" d="M76.7825 94.663C76.7825 95.443 73.1674 96.073 68.7272 96.073C64.287 96.073 60.6719 95.443 60.6719 94.663C60.6719 93.883 64.287 93.2529 68.7272 93.2529C73.1674 93.2529 76.7825 93.883 76.7825 94.663Z" fill="#003073"/>
<path d="M72.4494 60.1767C74.9095 61.9017 75.4346 63.8218 75.7796 64.9919C76.1246 66.1619 74.6545 67.002 71.9694 64.0768C69.2693 61.1667 70.8744 59.0666 72.4494 60.1767Z" fill="#FFC28C"/>
<path opacity="0.3" d="M71.7281 59.8906C71.9531 59.9206 72.2081 60.0106 72.4481 60.1756C73.9781 61.2407 74.7582 62.3957 75.2082 63.3858C74.9832 63.9858 74.0982 64.9458 73.2581 65.2758C72.8681 64.9758 72.4331 64.5858 71.9681 64.0758C71.7431 63.8358 71.5631 63.5958 71.398 63.3708C71.143 61.9907 71.203 60.3106 71.7281 59.8906Z" fill="#520606"/>
<path d="M71.9983 59.5013C74.2184 60.5663 74.7884 62.0664 75.0284 62.6664C75.2684 63.2665 73.1083 65.6665 71.9683 64.8865C70.8282 64.1065 70.5582 58.8113 71.9983 59.5013Z" fill="url(#paint19_linear_29_18119)"/>
<path d="M65.5927 60.1767C63.1326 61.9017 62.6076 63.8218 62.2626 64.9919C61.9176 66.1619 63.3877 67.002 66.0728 64.0768C68.7729 61.1667 67.1678 59.0666 65.5927 60.1767Z" fill="#FFC28C"/>
<path d="M65.0986 69.6572C64.9786 69.4022 65.4136 69.4172 65.6986 69.7022C65.9986 69.9722 65.8186 70.3172 65.8186 70.3172L65.0986 69.6572Z" fill="#FFC28C"/>
<path d="M75.8092 65.4571C75.3592 67.2272 73.6941 69.8223 73.3641 70.0473C73.0341 70.2723 72.7491 69.9273 72.8391 69.5673C72.9291 69.1923 73.9341 65.4421 74.3241 64.8571C74.7142 64.2871 76.0042 64.6771 75.8092 65.4571Z" fill="#FFC28C"/>
<path d="M72.9416 69.6572C73.0616 69.4022 72.6265 69.4172 72.3415 69.7022C72.0415 69.9722 72.2215 70.3172 72.2215 70.3172L72.9416 69.6572Z" fill="#FFC28C"/>
<path d="M71.4734 92.7125C71.3984 93.1326 71.4734 93.6426 71.5934 93.7626C71.7134 93.8826 72.6734 94.7526 73.6785 94.8276C74.6685 94.9176 73.3335 93.6726 72.9884 93.4626C72.6434 93.2526 72.5984 93.1626 72.5384 92.7875C72.4784 92.4275 71.4734 92.7125 71.4734 92.7125Z" fill="#780D00"/>
<path d="M66.2223 92.7125C66.2973 93.1326 66.2223 93.6426 66.1023 93.7626C65.9823 93.8826 65.0222 94.7526 64.0172 94.8276C63.0271 94.9176 64.3622 93.6726 64.7072 93.4626C65.0522 93.2526 65.0972 93.1626 65.1572 92.7875C65.2172 92.4275 66.2223 92.7125 66.2223 92.7125Z" fill="#780D00"/>
<path opacity="0.3" d="M66.3141 59.8906C66.0891 59.9206 65.8341 60.0106 65.5941 60.1756C64.064 61.2407 63.284 62.3957 62.834 63.3858C63.059 63.9858 63.944 64.9458 64.7841 65.2758C65.1741 64.9758 65.6091 64.5858 66.0741 64.0758C66.2991 63.8358 66.4791 63.5958 66.6441 63.3708C66.8992 61.9907 66.8391 60.3106 66.3141 59.8906Z" fill="#520606"/>
<path d="M66.0427 59.5013C63.8226 60.5663 63.2526 62.0664 63.0126 62.6664C62.7726 63.2665 64.9327 65.6665 66.0727 64.8865C67.2128 64.1065 67.4828 58.8113 66.0427 59.5013Z" fill="url(#paint20_linear_29_18119)"/>
<path d="M72.5532 71.3062C71.7732 68.141 69.3131 68.201 68.8331 70.3761C68.353 68.201 65.8929 68.141 65.1129 71.3062C64.4079 74.2163 65.0529 92.427 65.0529 92.697C65.0529 92.952 66.1629 93.222 66.2679 92.697C66.373 92.262 68.128 79.4365 68.728 73.6613C68.8031 73.6763 68.8631 73.6763 68.9381 73.6763C69.5381 79.4665 71.2932 92.262 71.3832 92.712C71.5032 93.2371 72.5982 92.967 72.5982 92.712C72.6132 92.427 73.2582 74.2163 72.5532 71.3062Z" fill="url(#paint21_linear_29_18119)"/>
<path opacity="0.3" d="M72.6573 71.9812C72.6273 71.7112 72.5823 71.4862 72.5523 71.3062C71.7723 68.141 69.3122 68.201 68.8321 70.3761C68.3521 68.201 65.892 68.141 65.112 71.3062C65.097 71.3812 65.082 71.4712 65.067 71.5612C64.992 72.5662 72.2973 73.0012 72.6573 71.9812Z" fill="#D01700"/>
<path d="M66.0427 59.5017C63.3876 61.1668 64.9926 64.6469 65.3526 66.657C65.6977 68.6671 65.2626 70.1972 65.0676 71.2172C64.8576 72.2372 72.3279 72.7023 72.6729 71.6522C73.018 70.6022 71.9529 67.9171 72.5529 65.892C73.168 63.8669 73.108 60.6718 72.1179 59.6817C71.1279 58.6917 67.2877 58.7217 66.0427 59.5017Z" fill="url(#paint22_linear_29_18119)"/>
<path d="M67.8422 57.5504C68.0522 58.0454 67.9022 58.6754 67.8422 58.9305C67.7822 59.1705 68.3522 59.5305 69.0873 59.4855C69.8223 59.4405 69.9423 59.0655 69.8823 58.8554C69.8223 58.6454 69.7473 57.4004 69.7473 57.4004L67.8422 57.5054V57.5504Z" fill="#FFC28C"/>
<path d="M66.7197 55.3912C66.3597 55.1062 66.0897 55.7362 66.3147 56.1112C66.5397 56.5012 66.6147 56.7412 66.6597 56.9062C66.7047 57.0712 67.0947 57.3562 67.1697 56.7412C67.2297 56.1412 66.7197 55.3912 66.7197 55.3912Z" fill="#FFC28C"/>
<path d="M71.1424 55.3912C71.5024 55.1062 71.7725 55.7362 71.5474 56.1112C71.3224 56.5012 71.2474 56.7412 71.2024 56.9062C71.1574 57.0712 70.7674 57.3562 70.6924 56.7412C70.6324 56.1412 71.1424 55.3912 71.1424 55.3912Z" fill="#FFC28C"/>
<path opacity="0.3" d="M68.2188 58.7501C69.0888 58.7501 69.1788 58.7501 69.7338 58.7501C69.7638 58.7501 69.8088 58.7201 69.8538 58.7051C69.7938 58.3151 69.7488 57.415 69.7488 57.415L67.8438 57.52V57.565C67.9938 57.9251 67.9638 58.3601 67.9038 58.6601C68.0088 58.7051 68.1138 58.7501 68.2188 58.7501Z" fill="#FF7800"/>
<path d="M68.2186 58.5712C67.5136 58.5712 66.7936 57.1011 66.4785 55.691C66.1635 54.281 66.0285 52.0459 68.9986 52.0459C71.9538 52.0459 71.3837 55.526 71.3987 56.0061C71.4137 56.4861 70.3037 58.5562 69.7487 58.5562C69.1787 58.5712 69.0887 58.5712 68.2186 58.5712Z" fill="#FFC28C"/>
<path d="M66.5988 52.9305C65.5638 53.6206 66.4788 55.5257 66.4788 55.7507C66.4788 55.9907 66.4788 54.7456 66.8388 54.2206C67.1988 53.6956 67.1088 52.7805 67.0788 52.7655C67.0638 52.7505 66.5988 52.9305 66.5988 52.9305Z" fill="#AB5000"/>
<path d="M71.2935 52.9305C72.3285 53.6206 71.4135 55.5257 71.4135 55.7507C71.4135 55.9907 71.4135 54.7456 71.0535 54.2206C70.6935 53.6956 70.7835 52.7805 70.8135 52.7655C70.8285 52.7505 71.2935 52.9305 71.2935 52.9305Z" fill="#AB5000"/>
<path opacity="0.2" d="M70.4684 52.4495C69.9284 51.9844 68.5783 51.8944 67.2883 52.4045C65.9232 52.9595 65.9532 54.2795 67.5583 54.3245C68.6383 54.3545 69.6884 54.0845 70.2584 53.6495C70.6484 54.1145 71.2184 54.4895 71.4134 54.3545C71.7585 54.1145 71.1884 52.5695 70.4684 52.4495Z" fill="#A14B00"/>
<path opacity="0.2" d="M70.4684 52.345C69.9284 51.8799 68.5783 51.7899 67.2883 52.3C65.9232 52.855 65.9532 54.175 67.5583 54.22C68.6383 54.25 69.6884 53.98 70.2584 53.545C70.6484 54.01 71.2184 54.385 71.4134 54.25C71.7585 54.025 71.1884 52.465 70.4684 52.345Z" fill="#A14B00"/>
<path d="M70.1984 52.2554C69.1333 52.6454 71.0234 54.4154 71.4134 54.1454C71.7884 53.8754 71.0234 51.9553 70.1984 52.2554Z" fill="#AB5000"/>
<path opacity="0.3" d="M71.4135 54.0695C71.1285 54.2645 70.0184 53.3495 69.8984 52.6895C69.9434 53.3345 71.1285 54.3395 71.4135 54.1295C71.4735 54.0845 71.5035 53.9945 71.5035 53.8895C71.4885 53.9795 71.4585 54.0395 71.4135 54.0695Z" fill="#FF7700"/>
<path opacity="0.2" d="M71.4141 53.7259C71.1441 53.9059 70.1541 53.1108 69.9441 52.4658C69.5841 53.0508 71.0841 54.3859 71.4141 54.1609C71.5191 54.0859 71.5341 53.8609 71.4741 53.6059C71.4591 53.6509 71.4441 53.6959 71.4141 53.7259Z" fill="#AB5000"/>
<path d="M67.2883 52.1952C65.9232 52.7502 65.9532 54.0703 67.5583 54.1153C69.1634 54.1603 70.7384 53.5302 70.7084 52.6902C70.7084 52.5402 70.6334 52.3902 70.5284 52.2852C70.0184 51.7752 68.6233 51.6702 67.2883 52.1952Z" fill="#AB5000"/>
<path opacity="0.2" d="M67.5594 53.7258C66.8394 53.7108 66.4494 53.4108 66.3444 53.0658C66.1944 53.5758 66.5694 54.0858 67.5594 54.1158C69.1645 54.1608 70.7396 53.5308 70.7096 52.6907C70.7096 52.6307 70.6946 52.5707 70.6646 52.5107C70.4546 53.2458 69.0145 53.7708 67.5594 53.7258Z" fill="#AB5000"/>
<path opacity="0.3" d="M67.5576 54.0392C66.7775 54.0092 66.3725 53.6792 66.3125 53.2892C66.3125 53.7242 66.7175 54.0842 67.5576 54.1142C69.1626 54.1592 70.7377 53.5292 70.7077 52.6892C70.7077 52.6742 70.7077 52.6592 70.6927 52.6592C70.6777 53.4692 69.1326 54.0842 67.5576 54.0392Z" fill="#FF7700"/>
<path opacity="0.3" d="M65.7883 68.6068C66.3733 66.6867 64.7833 64.0166 64.7833 64.0166L64.7383 64.0466C64.9333 65.0066 65.2183 65.9217 65.3533 66.6417C65.6983 68.6518 65.2633 70.1819 65.0683 71.2019C64.9333 71.9069 68.4434 72.3419 70.7535 72.2069C67.1084 72.2669 65.3083 70.1518 65.7883 68.6068Z" fill="url(#paint23_linear_29_18119)"/>
<path d="M62.2328 65.4571C62.6828 67.2272 64.3479 69.8223 64.6779 70.0473C65.0079 70.2723 65.293 69.9273 65.203 69.5673C65.1129 69.1923 64.1079 65.4421 63.7179 64.8571C63.3279 64.2871 62.0378 64.6771 62.2328 65.4571Z" fill="#FFC28C"/>
<path d="M64.4082 69.7465C64.6332 70.0015 64.6632 70.2415 64.7832 70.4665C64.9032 70.6915 65.0682 71.0515 65.5632 71.1865C66.0733 71.3365 66.8233 71.2165 66.7483 70.8865C66.6733 70.5415 66.1333 70.2565 65.6983 69.9865C65.2632 69.7165 65.1282 69.3564 65.1282 69.3564L64.4082 69.7465Z" fill="#FFC28C"/>
<path d="M73.648 69.7465C73.423 70.0015 73.393 70.2415 73.273 70.4665C73.153 70.6915 72.988 71.0515 72.493 71.1865C71.983 71.3365 71.2329 71.2165 71.308 70.8865C71.383 70.5415 71.923 70.2565 72.358 69.9865C72.793 69.7165 72.928 69.3564 72.928 69.3564L73.648 69.7465Z" fill="#FFC28C"/>
</g>
<defs>
<filter id="filter0_d_29_18119" x="0" y="0.00976562" width="136" height="136" filterUnits="userSpaceOnUse" color-interpolation-filters="sRGB">
<feFlood flood-opacity="0" result="BackgroundImageFix"/>
<feColorMatrix in="SourceAlpha" type="matrix" values="0 0 0 0 0 0 0 0 0 0 0 0 0 0 0 0 0 0 127 0" result="hardAlpha"/>
<feOffset dy="4"/>
<feGaussianBlur stdDeviation="2"/>
<feComposite in2="hardAlpha" operator="out"/>
<feColorMatrix type="matrix" values="0 0 0 0 0 0 0 0 0 0 0 0 0 0 0 0 0 0 0.25 0"/>
<feBlend mode="normal" in2="BackgroundImageFix" result="effect1_dropShadow_29_18119"/>
<feBlend mode="normal" in="SourceGraphic" in2="effect1_dropShadow_29_18119" result="shape"/>
</filter>
<linearGradient id="paint0_linear_29_18119" x1="72.3334" y1="11.9142" x2="12.2634" y2="81.3194" gradientUnits="userSpaceOnUse">
<stop stop-color="#FA7914"/>
<stop offset="1" stop-color="#F89B23" stop-opacity="0.7"/>
</linearGradient>
<linearGradient id="paint1_linear_29_18119" x1="21.7611" y1="90.3367" x2="102.226" y2="107.115" gradientUnits="userSpaceOnUse">
<stop stop-color="#5D76F0"/>
<stop offset="1" stop-color="#5EA5F6" stop-opacity="0.7"/>
</linearGradient>
<linearGradient id="paint2_linear_29_18119" x1="82.9266" y1="16.7557" x2="114.026" y2="98.9444" gradientUnits="userSpaceOnUse">
<stop stop-color="#B2BAFF"/>
<stop offset="1" stop-color="#8067F6"/>
</linearGradient>
<linearGradient id="paint3_linear_29_18119" x1="99.237" y1="39.9177" x2="32.9713" y2="104.162" gradientUnits="userSpaceOnUse">
<stop stop-color="#5CDEFF"/>
<stop offset="1" stop-color="#AE5CFF"/>
</linearGradient>
<linearGradient id="paint4_linear_29_18119" x1="97.2288" y1="41.8659" x2="35.2782" y2="101.926" gradientUnits="userSpaceOnUse">
<stop stop-color="#CCDCFF"/>
<stop offset="1" stop-color="#EBF0FF"/>
</linearGradient>
<linearGradient id="paint5_linear_29_18119" x1="68.3783" y1="82.8555" x2="68.3783" y2="105.515" gradientUnits="userSpaceOnUse">
<stop stop-color="#5CDEFF"/>
<stop offset="1" stop-color="#AE5CFF"/>
</linearGradient>
<linearGradient id="paint6_linear_29_18119" x1="38.5" y1="36.0827" x2="56.2537" y2="36.0827" gradientUnits="userSpaceOnUse">
<stop stop-color="#5CDEFF"/>
<stop offset="1" stop-color="#AE5CFF"/>
</linearGradient>
<linearGradient id="paint7_linear_29_18119" x1="48.4599" y1="36.0827" x2="63.3031" y2="36.0827" gradientUnits="userSpaceOnUse">
<stop stop-color="#FFDB45"/>
<stop offset="0.2027" stop-color="#FFBE45"/>
<stop offset="1" stop-color="#FFDC31"/>
</linearGradient>
<linearGradient id="paint8_linear_29_18119" x1="58.418" y1="36.0827" x2="70.3505" y2="36.0827" gradientUnits="userSpaceOnUse">
<stop stop-color="#5CDEFF"/>
<stop offset="1" stop-color="#AE5CFF"/>
</linearGradient>
<linearGradient id="paint9_linear_29_18119" x1="68.3779" y1="36.0827" x2="78.3374" y2="36.0827" gradientUnits="userSpaceOnUse">
<stop stop-color="#FFDB45"/>
<stop offset="0.2027" stop-color="#FFBE45"/>
<stop offset="1" stop-color="#FFDC31"/>
</linearGradient>
<linearGradient id="paint10_linear_29_18119" x1="77.4001" y1="36.0827" x2="88.297" y2="36.0827" gradientUnits="userSpaceOnUse">
<stop stop-color="#5CDEFF"/>
<stop offset="1" stop-color="#AE5CFF"/>
</linearGradient>
<linearGradient id="paint11_linear_29_18119" x1="84.4495" y1="36.0827" x2="98.2569" y2="36.0827" gradientUnits="userSpaceOnUse">
<stop stop-color="#FFDB45"/>
<stop offset="0.2027" stop-color="#FFBE45"/>
<stop offset="1" stop-color="#FFDC31"/>
</linearGradient>
<linearGradient id="paint12_linear_29_18119" x1="43.4797" y1="42.4485" x2="43.4797" y2="50.8087" gradientUnits="userSpaceOnUse">
<stop stop-color="#5CDEFF"/>
<stop offset="1" stop-color="#AE5CFF"/>
</linearGradient>
<linearGradient id="paint13_linear_29_18119" x1="63.3031" y1="41.7478" x2="63.3031" y2="54.3057" gradientUnits="userSpaceOnUse">
<stop stop-color="#5CDEFF"/>
<stop offset="1" stop-color="#AE5CFF"/>
</linearGradient>
<linearGradient id="paint14_linear_29_18119" x1="53.4396" y1="47.8791" x2="53.4396" y2="43.602" gradientUnits="userSpaceOnUse">
<stop stop-color="#FF961F"/>
<stop offset="1" stop-color="#FFDC31"/>
</linearGradient>
<linearGradient id="paint15_linear_29_18119" x1="83.3176" y1="41.7478" x2="83.3176" y2="54.3057" gradientUnits="userSpaceOnUse">
<stop stop-color="#5CDEFF"/>
<stop offset="1" stop-color="#AE5CFF"/>
</linearGradient>
<linearGradient id="paint16_linear_29_18119" x1="73.3576" y1="47.8791" x2="73.3576" y2="43.602" gradientUnits="userSpaceOnUse">
<stop stop-color="#FF961F"/>
<stop offset="1" stop-color="#FFDC31"/>
</linearGradient>
<linearGradient id="paint17_linear_29_18119" x1="93.2775" y1="47.8781" x2="93.2775" y2="43.6011" gradientUnits="userSpaceOnUse">
<stop stop-color="#FF961F"/>
<stop offset="1" stop-color="#FFDC31"/>
</linearGradient>
<linearGradient id="paint18_linear_29_18119" x1="68.3783" y1="42.0041" x2="68.3783" y2="43.6909" gradientUnits="userSpaceOnUse">
<stop stop-color="#FF1F1F"/>
<stop offset="1" stop-color="#FFDC31"/>
</linearGradient>
<linearGradient id="paint19_linear_29_18119" x1="69.1465" y1="51.3952" x2="75.145" y2="68.9556" gradientUnits="userSpaceOnUse">
<stop stop-color="#5CDEFF"/>
<stop offset="1" stop-color="#AE5CFF"/>
</linearGradient>
<linearGradient id="paint20_linear_29_18119" x1="68.8973" y1="51.3953" x2="62.8988" y2="68.9556" gradientUnits="userSpaceOnUse">
<stop stop-color="#5CDEFF"/>
<stop offset="1" stop-color="#AE5CFF"/>
</linearGradient>
<linearGradient id="paint21_linear_29_18119" x1="76.7527" y1="73.8706" x2="59.7051" y2="90.398" gradientUnits="userSpaceOnUse">
<stop stop-color="#FF961F"/>
<stop offset="1" stop-color="#FFDC31"/>
</linearGradient>
<linearGradient id="paint22_linear_29_18119" x1="73.9699" y1="61.0633" x2="63.2321" y2="71.4734" gradientUnits="userSpaceOnUse">
<stop stop-color="#5CDEFF"/>
<stop offset="1" stop-color="#AE5CFF"/>
</linearGradient>
<linearGradient id="paint23_linear_29_18119" x1="73.5945" y1="58.6836" x2="62.9398" y2="75.8496" gradientUnits="userSpaceOnUse">
<stop stop-color="#5CDEFF"/>
<stop offset="1" stop-color="#AE5CFF"/>
</linearGradient>
</defs>
</svg>
