<svg width="136" height="136" viewBox="0 0 136 136" fill="none" xmlns="http://www.w3.org/2000/svg">
<g filter="url(#filter0_d_29_18060)">
<circle cx="68" cy="64.0098" r="64" fill="white"/>
</g>
<path d="M98.4382 88.3875V89.5706C98.4382 92.2398 96.3328 94.4036 93.7357 94.4036H40.7024C38.1054 94.4036 36 92.2398 36 89.5706V88.3875C36 87.8337 36.4368 87.3848 36.9756 87.3848H97.4626C98.0014 87.3848 98.4382 87.8337 98.4382 88.3875Z" fill="#FF993F"/>
<path d="M76.5459 87.3848V88.6883C76.5459 89.681 75.7751 90.4731 74.8095 90.4731H59.6292C58.6731 90.4731 57.8926 89.681 57.8926 88.6883V87.3848H76.5459Z" fill="#4F5D99"/>
<path d="M95.1598 51.9151V87.3855H39.2773V51.9151C39.2773 49.7 41.0245 47.9043 43.1797 47.9043H91.2574C93.4126 47.9043 95.1598 49.7 95.1598 51.9151Z" fill="#FFAB60"/>
<path d="M90.8672 54.3179V87.3868H43.5703V54.3179C43.5703 53.2148 44.4483 52.3125 45.5215 52.3125H88.916C89.989 52.3125 90.8672 53.2148 90.8672 54.3179Z" fill="#E9E9FF"/>
<g opacity="0.3">
<path d="M77.3595 87.3829H57.3988L45.9258 52.3086H65.8767L77.3595 87.3829Z" fill="white"/>
<path d="M85.5041 87.3829H81.2308L69.748 52.3086H74.0308L85.5041 87.3829Z" fill="white"/>
</g>
<path d="M42.1194 90.8943C42.1194 91.5221 41.6154 92.0289 41.0045 92.0289C40.4042 92.0289 39.9004 91.5221 39.9004 90.8943C39.9004 90.2665 40.4042 89.7598 41.0045 89.7598C41.6154 89.7598 42.1194 90.2665 42.1194 90.8943Z" fill="#7BD681"/>
<path d="M46.4173 90.8943C46.4173 91.5221 45.9242 92.0289 45.3134 92.0289C44.7023 92.0289 44.209 91.5221 44.209 90.8943C44.209 90.2665 44.7023 89.7598 45.3134 89.7598C45.9242 89.7598 46.4173 90.2665 46.4173 90.8943Z" fill="#FDC72E"/>
<path d="M50.7285 90.8943C50.7285 91.5221 50.2355 92.0289 49.6246 92.0289C49.0136 92.0289 48.5098 91.5221 48.5098 90.8943C48.5098 90.2665 49.0136 89.7598 49.6246 89.7598C50.2355 89.7598 50.7285 90.2665 50.7285 90.8943Z" fill="#ED524E"/>
<path d="M67.2192 76.9091L67.2192 83.9447C57.3037 83.9447 49.2384 75.6469 49.2384 65.4475L49.2383 52.2803L56.0672 52.2803L56.0672 65.4475C56.0673 71.7752 61.0791 76.9091 67.2192 76.9091Z" fill="#F6C334"/>
<path d="M85.1994 52.2803L85.1995 65.4475C85.1995 75.647 77.1343 83.9447 67.2188 83.9446L67.2188 76.909C73.3589 76.909 78.3706 71.7752 78.3706 65.4475L78.3705 52.2803L85.1994 52.2803Z" fill="#1A73E8"/>
<path d="M56.074 52.2788L56.074 47.065C56.074 46.2643 55.4424 45.6153 54.6634 45.6153L50.643 45.6152C49.864 45.6152 49.2324 46.2643 49.2324 47.065L49.2324 52.2788L56.074 52.2788Z" fill="#E9E9FF"/>
<path d="M78.3633 52.2788L78.3633 47.065C78.3633 46.2643 78.9948 45.6152 79.7739 45.6152L83.7942 45.6153C84.5733 45.6153 85.2048 46.2643 85.2048 47.065L85.2048 52.2788L78.3633 52.2788Z" fill="#E9E9FF"/>
<path d="M87.2769 41.7133L87.2769 40.7425C87.2768 39.0964 85.9782 37.7617 84.3766 37.7617L79.1853 37.7617C77.5835 37.7617 76.2851 39.0964 76.2852 40.7425L76.2852 41.7133C76.2853 43.4579 87.2769 43.4579 87.2769 41.7133Z" fill="#F98218"/>
<path d="M84.7152 33.3684C84.7152 35.097 83.3522 36.5079 81.6604 36.5079C79.9783 36.5079 78.6153 35.0971 78.6152 33.3685C78.6152 31.6297 79.9782 30.2285 81.6603 30.2285C83.3521 30.2285 84.7152 31.6296 84.7152 33.3684Z" fill="#FDC72E"/>
<path d="M58.148 41.7133L58.148 40.7425C58.1479 39.0964 56.8493 37.7617 55.2477 37.7617L50.0564 37.7617C48.4546 37.7617 47.1562 39.0964 47.1563 40.7425L47.1563 41.7133C47.1563 43.4579 58.148 43.4579 58.148 41.7133Z" fill="#F98218"/>
<path d="M55.5863 33.3684C55.5863 35.097 54.2233 36.5079 52.5315 36.5079C50.8494 36.5079 49.4864 35.0971 49.4863 33.3685C49.4863 31.6297 50.8493 30.2285 52.5314 30.2285C54.2232 30.2285 55.5863 31.6296 55.5863 33.3684Z" fill="#FDC72E"/>
<path d="M93.5096 41.5559L91.4539 43.6687C91.2914 43.8357 91.2914 44.1054 91.4539 44.2724C91.6163 44.4394 91.8787 44.4394 92.0412 44.2724L94.0969 42.1596C94.2593 41.9926 94.2593 41.7229 94.0969 41.5559C93.9344 41.3889 93.672 41.3889 93.5096 41.5559Z" fill="#4F5D99"/>
<path d="M96.0276 44.9513L93.1204 44.9512C92.8906 44.9512 92.7051 45.1418 92.7051 45.378C92.7051 45.6141 92.8906 45.8048 93.1204 45.8049L96.0275 45.805C96.2573 45.805 96.4428 45.6143 96.4428 45.3782C96.4428 45.142 96.2573 44.9513 96.0276 44.9513Z" fill="#4F5D99"/>
<path d="M90.7954 39.5743L90.7954 42.5625C90.7954 42.7986 90.6099 42.9893 90.3801 42.9893C90.1504 42.9893 89.9648 42.7986 89.9648 42.5624L89.9649 39.5743C89.9649 39.3381 90.1504 39.1474 90.3801 39.1475C90.6099 39.1475 90.7954 39.3382 90.7954 39.5743Z" fill="#4F5D99"/>
<path d="M40.9298 41.5549L42.9855 43.6677C43.148 43.8347 43.148 44.1044 42.9855 44.2714C42.8231 44.4384 42.5607 44.4384 42.3983 44.2714L40.3425 42.1586C40.1801 41.9916 40.1801 41.7219 40.3425 41.5549C40.505 41.3879 40.7674 41.3879 40.9298 41.5549Z" fill="#4F5D99"/>
<path d="M38.4133 44.9513L41.3205 44.9512C41.5503 44.9512 41.7358 45.1418 41.7358 45.378C41.7358 45.6141 41.5503 45.8048 41.3205 45.8049L38.4133 45.805C38.1836 45.805 37.998 45.6143 37.998 45.3782C37.998 45.142 38.1836 44.9513 38.4133 44.9513Z" fill="#4F5D99"/>
<path d="M43.6445 39.5743L43.6445 42.5625C43.6445 42.7986 43.8301 42.9893 44.0598 42.9893C44.2896 42.9893 44.4751 42.7986 44.4751 42.5624L44.4751 39.5743C44.4751 39.3381 44.2896 39.1474 44.0598 39.1475C43.8301 39.1475 43.6445 39.3382 43.6445 39.5743Z" fill="#4F5D99"/>
<path d="M72.3104 62.5045L64.8239 70.8552C64.6543 71.0542 64.3392 70.8966 64.3796 70.6392L65.5829 63.0772C65.6071 62.911 65.4859 62.7699 65.3325 62.7699L62.3201 62.7699C62.0858 62.7699 61.9728 62.4793 62.1343 62.3135L69.637 54.6766C69.8228 54.4856 70.1296 54.6599 70.0732 54.9173L68.5306 61.7323C68.4904 61.8985 68.6114 62.0562 68.781 62.0562H72.1164C72.3427 62.0562 72.4638 62.3302 72.3104 62.5045Z" fill="#FDC72E"/>
<path d="M16.5173 75.1357C14.4425 68.942 14.2837 62.4943 15.2038 56.1881C18.9061 30.7674 36.3238 14.5011 60.0237 9.30887C62.5063 8.7646 65.0755 8.8408 67.5616 9.08391C70.0478 9.32701 71.7113 10.8981 71.7726 13.4816C71.8376 16.1267 70.4339 17.901 67.7132 18.3473C64.9925 18.7936 62.3006 18.5396 59.6051 18.8226C36.3707 21.25 18.2349 40.4915 16.7085 64.1779C16.4704 67.8499 16.9936 71.4601 16.5173 75.1357Z" fill="url(#paint0_linear_29_18060)"/>
<path d="M101.688 103.079C98.5091 107.317 94.3991 110.503 89.7804 112.999C65.965 125.862 35.1349 118.333 19.727 95.9017C19.184 95.1608 18.7013 94.3769 18.2837 93.5578C17.1326 91.1376 17.479 88.8952 19.6332 87.2915C21.69 85.7567 23.8586 86.0469 25.6628 87.8611C26.6775 88.8533 27.5528 89.98 28.2645 91.2102C41.2222 114.606 72.3952 122.534 96.7735 106.569C98.455 105.481 100.053 104.247 101.688 103.079Z" fill="url(#paint1_linear_29_18060)"/>
<path d="M81.9121 16.3115C90.3413 17.7266 97.4715 21.7542 103.656 27.4181C120.515 42.8933 126.09 67.2183 117.816 88.7058C116.975 90.8829 116.058 93.0599 114.427 94.7943C112.796 96.5287 110.855 97.0584 108.755 95.5853C106.814 94.2246 105.912 92.4177 106.857 90.052C107.367 88.833 107.939 87.6413 108.571 86.4816C121.695 61.4455 112.63 32.2258 87.7036 19.2179C85.7803 18.2201 83.8354 17.2803 81.9121 16.3115Z" fill="url(#paint2_linear_29_18060)"/>
<defs>
<filter id="filter0_d_29_18060" x="0" y="0.00976562" width="136" height="136" filterUnits="userSpaceOnUse" color-interpolation-filters="sRGB">
<feFlood flood-opacity="0" result="BackgroundImageFix"/>
<feColorMatrix in="SourceAlpha" type="matrix" values="0 0 0 0 0 0 0 0 0 0 0 0 0 0 0 0 0 0 127 0" result="hardAlpha"/>
<feOffset dy="4"/>
<feGaussianBlur stdDeviation="2"/>
<feComposite in2="hardAlpha" operator="out"/>
<feColorMatrix type="matrix" values="0 0 0 0 0 0 0 0 0 0 0 0 0 0 0 0 0 0 0.25 0"/>
<feBlend mode="normal" in2="BackgroundImageFix" result="effect1_dropShadow_29_18060"/>
<feBlend mode="normal" in="SourceGraphic" in2="effect1_dropShadow_29_18060" result="shape"/>
</filter>
<linearGradient id="paint0_linear_29_18060" x1="71.5014" y1="11.8029" x2="11.4314" y2="81.2081" gradientUnits="userSpaceOnUse">
<stop stop-color="#FA7914"/>
<stop offset="1" stop-color="#F89B23" stop-opacity="0.7"/>
</linearGradient>
<linearGradient id="paint1_linear_29_18060" x1="20.9291" y1="90.2254" x2="101.394" y2="107.004" gradientUnits="userSpaceOnUse">
<stop stop-color="#5D76F0"/>
<stop offset="1" stop-color="#5EA5F6" stop-opacity="0.7"/>
</linearGradient>
<linearGradient id="paint2_linear_29_18060" x1="82.0965" y1="16.6443" x2="113.196" y2="98.8331" gradientUnits="userSpaceOnUse">
<stop stop-color="#B2BAFF"/>
<stop offset="1" stop-color="#8067F6"/>
</linearGradient>
</defs>
</svg>
