<svg width="56" height="56" viewBox="0 0 56 56" fill="none" xmlns="http://www.w3.org/2000/svg">
<g filter="url(#filter0_d_29_22267)">
<circle cx="28" cy="24" r="24" fill="white"/>
<path d="M9.006 28.214C8.22794 25.8913 8.1684 23.4734 8.51345 21.1086C9.90178 11.5758 16.4334 5.47601 25.3209 3.52891C26.2519 3.32481 27.2153 3.35339 28.1476 3.44455C29.0799 3.53571 29.7037 4.12488 29.7267 5.09367C29.7511 6.08559 29.2247 6.75095 28.2045 6.91831C27.1842 7.08567 26.1747 6.99043 25.1639 7.09656C16.451 8.00684 9.6501 15.2224 9.07771 24.1048C8.98841 25.4818 9.18461 26.8356 9.006 28.214Z" fill="url(#paint0_linear_29_22267)"/>
<path d="M40.947 38.6935C39.7549 40.2827 38.2136 41.4774 36.4816 42.4135C27.5508 47.237 15.9895 44.4137 10.2116 36.0021C10.0079 35.7242 9.82694 35.4303 9.67034 35.1231C9.23869 34.2155 9.36859 33.3747 10.1764 32.7732C10.9477 32.1977 11.761 32.3065 12.4375 32.9869C12.818 33.3589 13.1463 33.7815 13.4132 34.2428C18.2723 43.0163 29.9621 45.9893 39.104 40.0024C39.7346 39.5942 40.334 39.1316 40.947 38.6935Z" fill="url(#paint1_linear_29_22267)"/>
<path d="M33.5293 6.15527C36.6902 6.68593 39.3641 8.19626 41.6834 10.3202C48.0053 16.1235 50.0959 25.2453 46.9931 33.3031C46.6778 34.1195 46.3341 34.9359 45.7225 35.5863C45.1109 36.2367 44.3829 36.4354 43.5954 35.8829C42.8674 35.3727 42.5291 34.6951 42.8836 33.8079C43.0748 33.3508 43.2894 32.9039 43.5264 32.469C48.4477 23.0805 45.0486 12.1231 35.7011 7.24516C34.9799 6.87098 34.2505 6.51857 33.5293 6.15527Z" fill="url(#paint2_linear_29_22267)"/>
<path d="M39.3484 15.8076H16.9375V36.5647H39.3484V15.8076Z" fill="url(#paint3_linear_29_22267)"/>
<path d="M37.9599 15.8076H18.3223V36.5647H37.9599V15.8076Z" fill="url(#paint4_linear_29_22267)"/>
<path d="M39.3484 34.9658H16.9375V36.5634H39.3484V34.9658Z" fill="url(#paint5_linear_29_22267)"/>
<path d="M23.5978 11.25H22.0621C21.3589 11.25 20.6839 11.5538 20.217 12.0825L16.9375 15.8064H20.6727L23.5978 11.25Z" fill="url(#paint6_linear_29_22267)"/>
<path d="M26.2352 11.25H23.597L20.6719 15.8064H24.407L26.2352 11.25Z" fill="url(#paint7_linear_29_22267)"/>
<path d="M28.8803 11.25H26.2364L24.4082 15.8064H28.1434L28.8803 11.25Z" fill="url(#paint8_linear_29_22267)"/>
<path d="M31.5233 11.25H28.8795L28.1426 15.8064H31.8777L31.5233 11.25Z" fill="url(#paint9_linear_29_22267)"/>
<g opacity="0.4">
<path d="M24.3684 16.5039H20.6727H16.9375V16.9877C16.9375 18.0171 17.7757 18.8553 18.8051 18.8553C19.8345 18.8553 20.6727 18.0171 20.6727 16.9877C20.6727 18.0171 21.5108 18.8553 22.5402 18.8553C23.5078 18.8553 24.3009 18.1127 24.3909 17.1677C24.4809 18.1127 25.2685 18.8553 26.2416 18.8553C27.271 18.8553 28.1092 18.0171 28.1092 16.9877V16.5039H24.4078H24.3684Z" fill="#003073"/>
<path d="M35.6129 16.5039H31.8777H28.1426V16.9877C28.1426 18.0171 28.9807 18.8553 30.0102 18.8553C31.0396 18.8553 31.8777 18.0171 31.8777 16.9877C31.8777 18.0171 32.7159 18.8553 33.7453 18.8553C34.7747 18.8553 35.6129 18.0171 35.6129 16.9877C35.6129 18.0171 36.451 18.8553 37.4805 18.8553C38.5099 18.8553 39.348 18.0171 39.348 16.9877V16.5039H35.6129Z" fill="#003073"/>
</g>
<path d="M34.1673 11.25H31.5234L31.8778 15.8064H35.613L34.1673 11.25Z" fill="url(#paint10_linear_29_22267)"/>
<path d="M35.3642 11.25H34.166L35.6117 15.8064H39.3469L37.5187 12.5157C37.0799 11.7338 36.2586 11.25 35.3642 11.25Z" fill="url(#paint11_linear_29_22267)"/>
<path d="M18.8051 18.1533C17.7757 18.1533 16.9375 17.3208 16.9375 16.2858V15.8076H20.6727V16.2914C20.6727 17.3208 19.8345 18.1533 18.8051 18.1533Z" fill="url(#paint12_linear_29_22267)"/>
<path d="M26.2348 18.1533C25.2053 18.1533 24.3672 17.3152 24.3672 16.2858V15.8076H28.1023V16.2914C28.1023 17.3208 27.2698 18.1533 26.2348 18.1533Z" fill="url(#paint13_linear_29_22267)"/>
<path d="M22.5395 18.1533C21.51 18.1533 20.6719 17.3152 20.6719 16.2858V15.8076H24.407V16.2914C24.407 17.3208 23.5689 18.1533 22.5395 18.1533Z" fill="url(#paint14_linear_29_22267)"/>
<path d="M33.7445 18.1533C32.7151 18.1533 31.877 17.3152 31.877 16.2858V15.8076H35.6121V16.2914C35.6121 17.3208 34.7739 18.1533 33.7445 18.1533Z" fill="url(#paint15_linear_29_22267)"/>
<path opacity="0.2" d="M20.2187 12.0825L19.7012 12.6676C27.9646 11.34 34.518 13.0557 38.9113 15.0245L37.5163 12.5157C37.0831 11.7338 36.2618 11.25 35.3674 11.25H34.1693H31.5254H28.8815H26.2377H23.5938H22.0638C21.3606 11.25 20.6856 11.5538 20.2187 12.0825Z" fill="#FFF1C9"/>
<path d="M30.0102 18.1533C28.9807 18.1533 28.1426 17.3152 28.1426 16.2858V15.8076H31.8777V16.2914C31.8777 17.3208 31.0396 18.1533 30.0102 18.1533Z" fill="url(#paint16_linear_29_22267)"/>
<path d="M37.4828 18.1533C36.4534 18.1533 35.6152 17.3152 35.6152 16.2858V15.8076H39.3504V16.2914C39.3504 17.3208 38.5122 18.1533 37.4828 18.1533Z" fill="url(#paint17_linear_29_22267)"/>
<path opacity="0.4" d="M39.3484 15.8076H16.9375V16.5051H39.3484V15.8076Z" fill="url(#paint18_linear_29_22267)"/>
<path opacity="0.3" d="M31.2934 35.4946C31.2934 35.7871 29.9378 36.0234 28.2727 36.0234C26.6076 36.0234 25.252 35.7871 25.252 35.4946C25.252 35.2021 26.6076 34.9658 28.2727 34.9658C29.9378 34.9658 31.2934 35.2021 31.2934 35.4946Z" fill="#003073"/>
<path d="M29.6717 22.5614C30.5942 23.2083 30.7911 23.9283 30.9205 24.3671C31.0499 24.8058 30.4986 25.1209 29.4917 24.0239C28.4792 22.9326 29.0811 22.1451 29.6717 22.5614Z" fill="#FFC28C"/>
<path opacity="0.3" d="M29.4012 22.4541C29.4856 22.4654 29.5812 22.4991 29.6712 22.561C30.245 22.9604 30.5375 23.3935 30.7062 23.7648C30.6219 23.9898 30.29 24.3498 29.975 24.4736C29.8287 24.3611 29.6656 24.2148 29.4912 24.0235C29.4068 23.9335 29.3393 23.8435 29.2774 23.7592C29.1818 23.2416 29.2043 22.6116 29.4012 22.4541Z" fill="#520606"/>
<path d="M29.5001 22.3083C30.3326 22.7077 30.5464 23.2703 30.6364 23.4953C30.7264 23.7203 29.9164 24.6203 29.4888 24.3278C29.0613 24.0353 28.9601 22.0496 29.5001 22.3083Z" fill="url(#paint19_linear_29_22267)"/>
<path d="M27.0995 22.5614C26.1769 23.2083 25.9801 23.9283 25.8507 24.3671C25.7213 24.8058 26.2726 25.1209 27.2795 24.0239C28.292 22.9326 27.6901 22.1451 27.0995 22.5614Z" fill="#FFC28C"/>
<path d="M26.9159 26.1175C26.8709 26.0219 27.034 26.0275 27.1409 26.1344C27.2534 26.2357 27.1859 26.3651 27.1859 26.3651L26.9159 26.1175Z" fill="#FFC28C"/>
<path d="M30.9307 24.5415C30.7619 25.2053 30.1375 26.1785 30.0137 26.2629C29.89 26.3472 29.7831 26.2179 29.8169 26.0829C29.8506 25.9422 30.2275 24.5359 30.3738 24.3165C30.52 24.1028 31.0038 24.249 30.9307 24.5415Z" fill="#FFC28C"/>
<path d="M29.8565 26.1175C29.9015 26.0219 29.7384 26.0275 29.6315 26.1344C29.519 26.2357 29.5865 26.3651 29.5865 26.3651L29.8565 26.1175Z" fill="#FFC28C"/>
<path d="M29.3042 34.7628C29.2761 34.9203 29.3042 35.1116 29.3492 35.1566C29.3942 35.2016 29.7542 35.5278 30.1311 35.556C30.5024 35.5897 30.0018 35.1228 29.8724 35.0441C29.743 34.9653 29.7261 34.9316 29.7036 34.7909C29.6811 34.6559 29.3042 34.7628 29.3042 34.7628Z" fill="#780D00"/>
<path d="M27.3346 34.7628C27.3627 34.9203 27.3346 35.1116 27.2896 35.1566C27.2446 35.2016 26.8846 35.5278 26.5077 35.556C26.1364 35.5897 26.637 35.1228 26.7664 35.0441C26.8958 34.9653 26.9127 34.9316 26.9352 34.7909C26.9577 34.6559 27.3346 34.7628 27.3346 34.7628Z" fill="#780D00"/>
<path opacity="0.3" d="M27.3695 22.4541C27.2851 22.4654 27.1895 22.4991 27.0995 22.561C26.5257 22.9604 26.2332 23.3935 26.0645 23.7648C26.1488 23.9898 26.4807 24.3498 26.7957 24.4736C26.942 24.3611 27.1051 24.2148 27.2795 24.0235C27.3639 23.9335 27.4314 23.8435 27.4933 23.7592C27.5889 23.2416 27.5664 22.6116 27.3695 22.4541Z" fill="#520606"/>
<path d="M27.2663 22.3083C26.4337 22.7077 26.22 23.2703 26.13 23.4953C26.04 23.7203 26.85 24.6203 27.2775 24.3278C27.705 24.0353 27.8063 22.0496 27.2663 22.3083Z" fill="url(#paint20_linear_29_22267)"/>
<path d="M29.7087 26.735C29.4162 25.5481 28.4936 25.5706 28.3136 26.3863C28.1336 25.5706 27.2111 25.5481 26.9186 26.735C26.6542 27.8263 26.8961 34.6554 26.8961 34.7566C26.8961 34.8523 27.3123 34.9535 27.3517 34.7566C27.3911 34.5935 28.0492 29.7839 28.2742 27.6182C28.3024 27.6238 28.3249 27.6238 28.353 27.6238C28.578 29.7952 29.2362 34.5935 29.2699 34.7623C29.3149 34.9591 29.7255 34.8579 29.7255 34.7623C29.7312 34.6554 29.9731 27.8263 29.7087 26.735Z" fill="url(#paint21_linear_29_22267)"/>
<path opacity="0.3" d="M29.7489 26.9882C29.7377 26.8869 29.7208 26.8026 29.7095 26.735C29.417 25.5481 28.4945 25.5706 28.3145 26.3863C28.1345 25.5706 27.2119 25.5481 26.9194 26.735C26.9138 26.7632 26.9082 26.7969 26.9026 26.8307C26.8744 27.2076 29.6139 27.3707 29.7489 26.9882Z" fill="#D01700"/>
<path d="M27.2694 22.3084C26.2738 22.9328 26.8757 24.2378 27.0107 24.9916C27.14 25.7454 26.9769 26.3192 26.9038 26.7017C26.825 27.0842 29.6264 27.2586 29.7558 26.8648C29.8852 26.4711 29.4858 25.4641 29.7108 24.7047C29.9414 23.9453 29.9189 22.7472 29.5476 22.3759C29.1764 22.0046 27.7363 22.0159 27.2694 22.3084Z" fill="url(#paint22_linear_29_22267)"/>
<path d="M27.9469 21.5758C28.0257 21.7614 27.9694 21.9977 27.9469 22.0933C27.9244 22.1833 28.1382 22.3183 28.4138 22.3014C28.6895 22.2846 28.7345 22.1439 28.712 22.0652C28.6895 21.9864 28.6613 21.5195 28.6613 21.5195L27.9469 21.5589V21.5758Z" fill="#FFC28C"/>
<path d="M27.5245 20.7662C27.3895 20.6593 27.2883 20.8956 27.3727 21.0362C27.457 21.1825 27.4852 21.2725 27.502 21.3343C27.5189 21.3962 27.6652 21.5031 27.6933 21.2725C27.7158 21.0475 27.5245 20.7662 27.5245 20.7662Z" fill="#FFC28C"/>
<path d="M29.1843 20.7662C29.3193 20.6593 29.4205 20.8956 29.3362 21.0362C29.2518 21.1825 29.2236 21.2725 29.2068 21.3343C29.1899 21.3962 29.0436 21.5031 29.0155 21.2725C28.993 21.0475 29.1843 20.7662 29.1843 20.7662Z" fill="#FFC28C"/>
<path opacity="0.3" d="M28.0859 22.0251C28.4122 22.0251 28.446 22.0251 28.6541 22.0251C28.6653 22.0251 28.6822 22.0138 28.6991 22.0082C28.6766 21.8619 28.6597 21.5244 28.6597 21.5244L27.9453 21.5638V21.5807C28.0016 21.7157 27.9903 21.8788 27.9678 21.9913C28.0072 22.0082 28.0466 22.0251 28.0859 22.0251Z" fill="#FF7800"/>
<path d="M28.0869 21.9587C27.8225 21.9587 27.5525 21.4074 27.4343 20.8786C27.3162 20.3499 27.2656 19.5117 28.3794 19.5117C29.4875 19.5117 29.2738 20.8168 29.2794 20.9968C29.285 21.1768 28.8688 21.9531 28.6606 21.9531C28.4469 21.9587 28.4131 21.9587 28.0869 21.9587Z" fill="#FFC28C"/>
<path d="M27.4799 19.8435C27.0918 20.1022 27.4349 20.8166 27.4349 20.901C27.4349 20.991 27.4349 20.5241 27.5699 20.3272C27.7049 20.1303 27.6712 19.7872 27.6599 19.7816C27.6543 19.776 27.4799 19.8435 27.4799 19.8435Z" fill="#AB5000"/>
<path d="M29.239 19.8435C29.6271 20.1022 29.284 20.8166 29.284 20.901C29.284 20.991 29.284 20.5241 29.149 20.3272C29.014 20.1303 29.0477 19.7872 29.059 19.7816C29.0646 19.776 29.239 19.8435 29.239 19.8435Z" fill="#AB5000"/>
<path opacity="0.2" d="M28.9318 19.6628C28.7292 19.4884 28.223 19.4547 27.7392 19.6459C27.2273 19.8541 27.2386 20.3491 27.8405 20.366C28.2455 20.3772 28.6392 20.276 28.853 20.1128C28.9993 20.2872 29.213 20.4278 29.2861 20.3772C29.4155 20.2872 29.2018 19.7078 28.9318 19.6628Z" fill="#A14B00"/>
<path opacity="0.2" d="M28.9318 19.6237C28.7292 19.4494 28.223 19.4156 27.7392 19.6069C27.2273 19.815 27.2386 20.31 27.8405 20.3269C28.2455 20.3381 28.6392 20.2369 28.853 20.0738C28.9993 20.2481 29.213 20.3888 29.2861 20.3382C29.4155 20.2538 29.2018 19.6687 28.9318 19.6237Z" fill="#A14B00"/>
<path d="M28.8295 19.59C28.4301 19.7363 29.1389 20.4001 29.2852 20.2988C29.4258 20.1975 29.1389 19.4775 28.8295 19.59Z" fill="#AB5000"/>
<path opacity="0.3" d="M29.2849 20.2705C29.1781 20.3436 28.7618 20.0004 28.7168 19.7529C28.7337 19.9948 29.1781 20.3717 29.2849 20.293C29.3074 20.2761 29.3187 20.2423 29.3187 20.2029C29.3131 20.2367 29.3018 20.2592 29.2849 20.2705Z" fill="#FF7700"/>
<path opacity="0.2" d="M29.2869 20.1415C29.1856 20.209 28.8144 19.9108 28.7356 19.6689C28.6006 19.8883 29.1631 20.389 29.2869 20.3046C29.3263 20.2765 29.3319 20.1921 29.3094 20.0965C29.3038 20.1133 29.2981 20.1302 29.2869 20.1415Z" fill="#AB5000"/>
<path d="M27.7392 19.5675C27.2273 19.7756 27.2386 20.2706 27.8405 20.2875C28.4424 20.3044 29.033 20.0681 29.0218 19.7531C29.0218 19.6968 28.9936 19.6406 28.9543 19.6012C28.763 19.41 28.2399 19.3706 27.7392 19.5675Z" fill="#AB5000"/>
<path opacity="0.2" d="M27.8406 20.1422C27.5706 20.1365 27.4244 20.024 27.385 19.8947C27.3288 20.0859 27.4694 20.2772 27.8406 20.2884C28.4425 20.3053 29.0332 20.069 29.0219 19.754C29.0219 19.7315 29.0163 19.709 29.0051 19.6865C28.9263 19.9622 28.3863 20.159 27.8406 20.1422Z" fill="#AB5000"/>
<path opacity="0.3" d="M27.8399 20.2587C27.5474 20.2475 27.3955 20.1237 27.373 19.9775C27.373 20.1406 27.5249 20.2756 27.8399 20.2869C28.4418 20.3037 29.0325 20.0675 29.0212 19.7525C29.0212 19.7468 29.0212 19.7412 29.0156 19.7412C29.01 20.045 28.4306 20.2756 27.8399 20.2587Z" fill="#FF7700"/>
<path opacity="0.3" d="M27.1731 25.7223C27.3924 25.0023 26.7962 24.001 26.7962 24.001L26.7793 24.0122C26.8524 24.3722 26.9593 24.7154 27.0099 24.9854C27.1393 25.7392 26.9762 26.3129 26.9031 26.6955C26.8524 26.9598 28.1687 27.123 29.035 27.0724C27.6681 27.0949 26.9931 26.3017 27.1731 25.7223Z" fill="url(#paint23_linear_29_22267)"/>
<path d="M25.8395 24.5415C26.0083 25.2053 26.6327 26.1785 26.7564 26.2629C26.8802 26.3472 26.9871 26.2179 26.9533 26.0829C26.9196 25.9422 26.5427 24.5359 26.3964 24.3165C26.2502 24.1028 25.7664 24.249 25.8395 24.5415Z" fill="#FFC28C"/>
<path d="M26.6543 26.1502C26.7387 26.2458 26.7499 26.3358 26.7949 26.4202C26.8399 26.5046 26.9018 26.6396 27.0874 26.6902C27.2787 26.7464 27.56 26.7014 27.5318 26.5777C27.5037 26.4483 27.3012 26.3414 27.1381 26.2402C26.9749 26.1389 26.9243 26.0039 26.9243 26.0039L26.6543 26.1502Z" fill="#FFC28C"/>
<path d="M30.1197 26.1502C30.0353 26.2458 30.0241 26.3358 29.9791 26.4202C29.9341 26.5046 29.8722 26.6396 29.6866 26.6902C29.4953 26.7464 29.2141 26.7014 29.2422 26.5777C29.2703 26.4483 29.4728 26.3414 29.636 26.2402C29.7991 26.1389 29.8497 26.0039 29.8497 26.0039L30.1197 26.1502Z" fill="#FFC28C"/>
</g>
<defs>
<filter id="filter0_d_29_22267" x="0" y="0" width="56" height="56" filterUnits="userSpaceOnUse" color-interpolation-filters="sRGB">
<feFlood flood-opacity="0" result="BackgroundImageFix"/>
<feColorMatrix in="SourceAlpha" type="matrix" values="0 0 0 0 0 0 0 0 0 0 0 0 0 0 0 0 0 0 127 0" result="hardAlpha"/>
<feOffset dy="4"/>
<feGaussianBlur stdDeviation="2"/>
<feComposite in2="hardAlpha" operator="out"/>
<feColorMatrix type="matrix" values="0 0 0 0 0 0 0 0 0 0 0 0 0 0 0 0 0 0 0.25 0"/>
<feBlend mode="normal" in2="BackgroundImageFix" result="effect1_dropShadow_29_22267"/>
<feBlend mode="normal" in="SourceGraphic" in2="effect1_dropShadow_29_22267" result="shape"/>
</filter>
<linearGradient id="paint0_linear_29_22267" x1="29.625" y1="4.46417" x2="7.09879" y2="30.4911" gradientUnits="userSpaceOnUse">
<stop stop-color="#FA7914"/>
<stop offset="1" stop-color="#F89B23" stop-opacity="0.7"/>
</linearGradient>
<linearGradient id="paint1_linear_29_22267" x1="10.6624" y1="33.8734" x2="40.8368" y2="40.1654" gradientUnits="userSpaceOnUse">
<stop stop-color="#5D76F0"/>
<stop offset="1" stop-color="#5EA5F6" stop-opacity="0.7"/>
</linearGradient>
<linearGradient id="paint2_linear_29_22267" x1="33.5984" y1="6.28007" x2="45.2607" y2="37.1009" gradientUnits="userSpaceOnUse">
<stop stop-color="#B2BAFF"/>
<stop offset="1" stop-color="#8067F6"/>
</linearGradient>
<linearGradient id="paint3_linear_29_22267" x1="39.7139" y1="14.9663" x2="14.8643" y2="39.0578" gradientUnits="userSpaceOnUse">
<stop stop-color="#5CDEFF"/>
<stop offset="1" stop-color="#AE5CFF"/>
</linearGradient>
<linearGradient id="paint4_linear_29_22267" x1="38.9613" y1="15.6969" x2="15.7298" y2="38.2196" gradientUnits="userSpaceOnUse">
<stop stop-color="#CCDCFF"/>
<stop offset="1" stop-color="#EBF0FF"/>
</linearGradient>
<linearGradient id="paint5_linear_29_22267" x1="28.1419" y1="31.0672" x2="28.1419" y2="39.5643" gradientUnits="userSpaceOnUse">
<stop stop-color="#5CDEFF"/>
<stop offset="1" stop-color="#AE5CFF"/>
</linearGradient>
<linearGradient id="paint6_linear_29_22267" x1="16.9375" y1="13.5274" x2="23.5952" y2="13.5274" gradientUnits="userSpaceOnUse">
<stop stop-color="#5CDEFF"/>
<stop offset="1" stop-color="#AE5CFF"/>
</linearGradient>
<linearGradient id="paint7_linear_29_22267" x1="20.6715" y1="13.5274" x2="26.2377" y2="13.5274" gradientUnits="userSpaceOnUse">
<stop stop-color="#FFDB45"/>
<stop offset="0.2027" stop-color="#FFBE45"/>
<stop offset="1" stop-color="#FFDC31"/>
</linearGradient>
<linearGradient id="paint8_linear_29_22267" x1="24.4075" y1="13.5274" x2="28.8822" y2="13.5274" gradientUnits="userSpaceOnUse">
<stop stop-color="#5CDEFF"/>
<stop offset="1" stop-color="#AE5CFF"/>
</linearGradient>
<linearGradient id="paint9_linear_29_22267" x1="28.1415" y1="13.5274" x2="31.8763" y2="13.5274" gradientUnits="userSpaceOnUse">
<stop stop-color="#FFDB45"/>
<stop offset="0.2027" stop-color="#FFBE45"/>
<stop offset="1" stop-color="#FFDC31"/>
</linearGradient>
<linearGradient id="paint10_linear_29_22267" x1="31.5248" y1="13.5274" x2="35.6111" y2="13.5274" gradientUnits="userSpaceOnUse">
<stop stop-color="#5CDEFF"/>
<stop offset="1" stop-color="#AE5CFF"/>
</linearGradient>
<linearGradient id="paint11_linear_29_22267" x1="34.1669" y1="13.5274" x2="39.3446" y2="13.5274" gradientUnits="userSpaceOnUse">
<stop stop-color="#FFDB45"/>
<stop offset="0.2027" stop-color="#FFBE45"/>
<stop offset="1" stop-color="#FFDC31"/>
</linearGradient>
<linearGradient id="paint12_linear_29_22267" x1="18.8049" y1="15.9154" x2="18.8049" y2="19.0505" gradientUnits="userSpaceOnUse">
<stop stop-color="#5CDEFF"/>
<stop offset="1" stop-color="#AE5CFF"/>
</linearGradient>
<linearGradient id="paint13_linear_29_22267" x1="26.2372" y1="15.6526" x2="26.2372" y2="20.3618" gradientUnits="userSpaceOnUse">
<stop stop-color="#5CDEFF"/>
<stop offset="1" stop-color="#AE5CFF"/>
</linearGradient>
<linearGradient id="paint14_linear_29_22267" x1="22.5389" y1="17.9519" x2="22.5389" y2="16.348" gradientUnits="userSpaceOnUse">
<stop stop-color="#FF961F"/>
<stop offset="1" stop-color="#FFDC31"/>
</linearGradient>
<linearGradient id="paint15_linear_29_22267" x1="33.7429" y1="15.6526" x2="33.7429" y2="20.3618" gradientUnits="userSpaceOnUse">
<stop stop-color="#5CDEFF"/>
<stop offset="1" stop-color="#AE5CFF"/>
</linearGradient>
<linearGradient id="paint16_linear_29_22267" x1="30.0089" y1="17.9519" x2="30.0089" y2="16.348" gradientUnits="userSpaceOnUse">
<stop stop-color="#FF961F"/>
<stop offset="1" stop-color="#FFDC31"/>
</linearGradient>
<linearGradient id="paint17_linear_29_22267" x1="37.4808" y1="17.9519" x2="37.4808" y2="16.348" gradientUnits="userSpaceOnUse">
<stop stop-color="#FF961F"/>
<stop offset="1" stop-color="#FFDC31"/>
</linearGradient>
<linearGradient id="paint18_linear_29_22267" x1="28.1419" y1="15.7487" x2="28.1419" y2="16.3813" gradientUnits="userSpaceOnUse">
<stop stop-color="#FF1F1F"/>
<stop offset="1" stop-color="#FFDC31"/>
</linearGradient>
<linearGradient id="paint19_linear_29_22267" x1="28.4307" y1="19.2686" x2="30.6801" y2="25.8537" gradientUnits="userSpaceOnUse">
<stop stop-color="#5CDEFF"/>
<stop offset="1" stop-color="#AE5CFF"/>
</linearGradient>
<linearGradient id="paint20_linear_29_22267" x1="28.3367" y1="19.2686" x2="26.0873" y2="25.8537" gradientUnits="userSpaceOnUse">
<stop stop-color="#5CDEFF"/>
<stop offset="1" stop-color="#AE5CFF"/>
</linearGradient>
<linearGradient id="paint21_linear_29_22267" x1="31.2835" y1="27.6967" x2="24.8906" y2="33.8945" gradientUnits="userSpaceOnUse">
<stop stop-color="#FF961F"/>
<stop offset="1" stop-color="#FFDC31"/>
</linearGradient>
<linearGradient id="paint22_linear_29_22267" x1="30.2421" y1="22.894" x2="26.2155" y2="26.7978" gradientUnits="userSpaceOnUse">
<stop stop-color="#5CDEFF"/>
<stop offset="1" stop-color="#AE5CFF"/>
</linearGradient>
<linearGradient id="paint23_linear_29_22267" x1="30.1004" y1="22.0011" x2="26.1049" y2="28.4383" gradientUnits="userSpaceOnUse">
<stop stop-color="#5CDEFF"/>
<stop offset="1" stop-color="#AE5CFF"/>
</linearGradient>
</defs>
</svg>
