<svg width="56" height="56" viewBox="0 0 56 56" fill="none" xmlns="http://www.w3.org/2000/svg">
<g filter="url(#filter0_d_29_22209)">
<circle cx="28" cy="24" r="24" fill="white"/>
<path d="M39.4143 33.1416V33.5853C39.4143 34.5863 38.6248 35.3977 37.6509 35.3977H17.7634C16.7895 35.3977 16 34.5863 16 33.5853V33.1416C16 32.934 16.1638 32.7656 16.3658 32.7656H39.0485C39.2505 32.7656 39.4143 32.934 39.4143 33.1416Z" fill="#FF993F"/>
<path d="M31.204 32.7656V33.2545C31.204 33.6267 30.9149 33.9238 30.5528 33.9238H24.8602C24.5017 33.9238 24.209 33.6267 24.209 33.2545V32.7656H31.204Z" fill="#4F5D99"/>
<path d="M38.1844 19.465V32.7664H17.2285V19.465C17.2285 18.6343 17.8837 17.9609 18.6919 17.9609H36.721C37.5292 17.9609 38.1844 18.6343 38.1844 19.465Z" fill="#FFAB60"/>
<path d="M36.5742 20.3653V32.7661H18.8379V20.3653C18.8379 19.9517 19.1671 19.6133 19.5696 19.6133H35.8425C36.2449 19.6133 36.5742 19.9517 36.5742 20.3653Z" fill="#E9E9FF"/>
<g opacity="0.3">
<path d="M31.5103 32.7661H24.025L19.7227 19.6133H27.2042L31.5103 32.7661Z" fill="white"/>
<path d="M34.5667 32.7661H32.9642L28.6582 19.6133H30.2642L34.5667 32.7661Z" fill="white"/>
</g>
<path d="M18.2931 34.0817C18.2931 34.3171 18.1041 34.5072 17.875 34.5072C17.6499 34.5072 17.4609 34.3171 17.4609 34.0817C17.4609 33.8463 17.6499 33.6563 17.875 33.6563C18.1041 33.6562 18.2931 33.8463 18.2931 34.0817Z" fill="#7BD681"/>
<path d="M19.9062 34.0817C19.9062 34.3171 19.7213 34.5072 19.4923 34.5072C19.2631 34.5072 19.0781 34.3171 19.0781 34.0817C19.0781 33.8463 19.2631 33.6563 19.4923 33.6563C19.7213 33.6562 19.9062 33.8463 19.9062 34.0817Z" fill="#FDC72E"/>
<path d="M21.5215 34.0817C21.5215 34.3171 21.3366 34.5072 21.1075 34.5072C20.8784 34.5072 20.6895 34.3171 20.6895 34.0817C20.6895 33.8463 20.8784 33.6563 21.1075 33.6563C21.3366 33.6562 21.5215 33.8463 21.5215 34.0817Z" fill="#ED524E"/>
<path d="M27.7077 28.8393L27.7077 31.4777C23.9894 31.4777 20.9649 28.366 20.9649 24.5412L20.9648 19.6035L23.5257 19.6035L23.5257 24.5412C23.5257 26.9141 25.4051 28.8393 27.7077 28.8393Z" fill="#F6C334"/>
<path d="M34.4498 19.6035L34.4498 24.5412C34.4498 28.366 31.4254 31.4777 27.707 31.4776L27.707 28.8393C30.0096 28.8393 31.889 26.9141 31.889 24.5412L31.8889 19.6035L34.4498 19.6035Z" fill="#1A73E8"/>
<path d="M23.5265 19.6024L23.5265 17.6472C23.5265 17.3469 23.2897 17.1035 22.9975 17.1035L21.4899 17.1035C21.1978 17.1035 20.9609 17.3469 20.9609 17.6472L20.9609 19.6024L23.5265 19.6024Z" fill="#E9E9FF"/>
<path d="M31.8867 19.6024L31.8867 17.6472C31.8867 17.3469 32.1235 17.1035 32.4157 17.1035L33.9233 17.1035C34.2155 17.1035 34.4523 17.3469 34.4523 17.6472L34.4523 19.6024L31.8867 19.6024Z" fill="#E9E9FF"/>
<path d="M35.2274 15.64L35.2274 15.276C35.2273 14.6587 34.7404 14.1582 34.1398 14.1582L32.193 14.1582C31.5923 14.1582 31.1055 14.6587 31.1055 15.276L31.1055 15.64C31.1055 16.2943 35.2274 16.2943 35.2274 15.64Z" fill="#F98218"/>
<path d="M34.266 12.5105C34.266 13.1587 33.7549 13.6878 33.1205 13.6878C32.4897 13.6878 31.9785 13.1587 31.9785 12.5105C31.9785 11.8584 32.4896 11.333 33.1204 11.333C33.7548 11.333 34.266 11.8584 34.266 12.5105Z" fill="#FDC72E"/>
<path d="M24.3074 15.64L24.3074 15.276C24.3074 14.6587 23.8205 14.1582 23.2198 14.1582L21.2731 14.1582C20.6724 14.1582 20.1855 14.6587 20.1855 15.276L20.1856 15.64C20.1856 16.2943 24.3075 16.2943 24.3074 15.64Z" fill="#F98218"/>
<path d="M23.3461 12.5105C23.3461 13.1587 22.835 13.6878 22.2005 13.6878C21.5697 13.6878 21.0586 13.1587 21.0586 12.5105C21.0586 11.8584 21.5697 11.333 22.2005 11.333C22.8349 11.333 23.3461 11.8584 23.3461 12.5105Z" fill="#FDC72E"/>
<path d="M37.5666 15.5792L36.7957 16.3715C36.7348 16.4341 36.7348 16.5352 36.7957 16.5979C36.8566 16.6605 36.955 16.6605 37.0159 16.5979L37.7868 15.8056C37.8477 15.7429 37.8477 15.6418 37.7868 15.5792C37.7259 15.5166 37.6275 15.5166 37.5666 15.5792Z" fill="#4F5D99"/>
<path d="M38.5135 16.8526L37.4233 16.8525C37.3372 16.8525 37.2676 16.924 37.2676 17.0126C37.2676 17.1012 37.3372 17.1727 37.4233 17.1727L38.5135 17.1727C38.5997 17.1727 38.6692 17.1012 38.6692 17.0127C38.6692 16.9241 38.5997 16.8526 38.5135 16.8526Z" fill="#4F5D99"/>
<path d="M36.5497 14.8368L36.5497 15.9574C36.5497 16.0459 36.4802 16.1174 36.394 16.1174C36.3079 16.1174 36.2383 16.0459 36.2383 15.9574L36.2383 14.8368C36.2383 14.7483 36.3079 14.6768 36.394 14.6768C36.4802 14.6768 36.5497 14.7483 36.5497 14.8368Z" fill="#4F5D99"/>
<path d="M17.8499 15.5792L18.6208 16.3715C18.6817 16.4341 18.6817 16.5352 18.6208 16.5979C18.5599 16.6605 18.4615 16.6605 18.4006 16.5979L17.6297 15.8056C17.5688 15.7429 17.5688 15.6418 17.6297 15.5792C17.6906 15.5166 17.789 15.5166 17.8499 15.5792Z" fill="#4F5D99"/>
<path d="M16.9057 16.8526L17.9959 16.8525C18.0821 16.8525 18.1517 16.924 18.1517 17.0126C18.1517 17.1012 18.0821 17.1727 17.9959 17.1727L16.9057 17.1727C16.8196 17.1727 16.75 17.1012 16.75 17.0127C16.75 16.9241 16.8196 16.8526 16.9057 16.8526Z" fill="#4F5D99"/>
<path d="M18.8672 14.8368L18.8672 15.9574C18.8672 16.0459 18.9368 16.1174 19.0229 16.1174C19.1091 16.1174 19.1787 16.0459 19.1787 15.9574L19.1786 14.8368C19.1786 14.7483 19.1091 14.6768 19.0229 14.6768C18.9368 14.6768 18.8672 14.7483 18.8672 14.8368Z" fill="#4F5D99"/>
<path d="M29.6179 23.4355L26.8104 26.567C26.7468 26.6417 26.6287 26.5825 26.6438 26.486L27.095 23.6503C27.1041 23.588 27.0587 23.5351 27.0011 23.5351L25.8715 23.5351C25.7837 23.5351 25.7413 23.4261 25.8018 23.3639L28.6154 20.5C28.685 20.4285 28.8001 20.4938 28.7789 20.5903L28.2004 23.146C28.1854 23.2083 28.2308 23.2674 28.2943 23.2674H29.5451C29.63 23.2674 29.6754 23.3702 29.6179 23.4355Z" fill="#FDC72E"/>
<path d="M8.6935 28.173C7.91544 25.8503 7.8559 23.4324 8.20095 21.0676C9.58928 11.5348 16.1209 5.435 25.0084 3.48789C25.9394 3.2838 26.9028 3.31237 27.8351 3.40353C28.7674 3.4947 29.3912 4.08386 29.4142 5.05265C29.4386 6.04457 28.9122 6.70994 27.892 6.8773C26.8717 7.04466 25.8622 6.94941 24.8514 7.05554C16.1385 7.96582 9.3376 15.1814 8.76521 24.0638C8.67591 25.4408 8.87211 26.7946 8.6935 28.173Z" fill="url(#paint0_linear_29_22209)"/>
<path d="M40.6306 38.6525C39.4385 40.2417 37.8972 41.4364 36.1652 42.3725C27.2344 47.196 15.6731 44.3727 9.8952 35.9611C9.69154 35.6832 9.51053 35.3893 9.35394 35.0821C8.92228 34.1745 9.05219 33.3336 9.86002 32.7322C10.6313 32.1567 11.4446 32.2655 12.1211 32.9459C12.5016 33.3179 12.8299 33.7404 13.0967 34.2017C17.9559 42.9753 29.6457 45.9483 38.7876 39.9614C39.4182 39.5532 40.0176 39.0906 40.6306 38.6525Z" fill="url(#paint1_linear_29_22209)"/>
<path d="M33.2168 6.11426C36.3777 6.64491 39.0516 8.15524 41.3709 10.2792C47.6928 16.0824 49.7834 25.2043 46.6806 33.2621C46.3653 34.0785 46.0216 34.8949 45.41 35.5453C44.7984 36.1957 44.0704 36.3944 43.2829 35.8419C42.5549 35.3317 42.2166 34.6541 42.5711 33.7669C42.7623 33.3098 42.9769 32.8629 43.2139 32.428C48.1352 23.0395 44.7361 12.0821 35.3886 7.20414C34.6674 6.82996 33.938 6.47755 33.2168 6.11426Z" fill="url(#paint2_linear_29_22209)"/>
</g>
<defs>
<filter id="filter0_d_29_22209" x="0" y="0" width="56" height="56" filterUnits="userSpaceOnUse" color-interpolation-filters="sRGB">
<feFlood flood-opacity="0" result="BackgroundImageFix"/>
<feColorMatrix in="SourceAlpha" type="matrix" values="0 0 0 0 0 0 0 0 0 0 0 0 0 0 0 0 0 0 127 0" result="hardAlpha"/>
<feOffset dy="4"/>
<feGaussianBlur stdDeviation="2"/>
<feComposite in2="hardAlpha" operator="out"/>
<feColorMatrix type="matrix" values="0 0 0 0 0 0 0 0 0 0 0 0 0 0 0 0 0 0 0.25 0"/>
<feBlend mode="normal" in2="BackgroundImageFix" result="effect1_dropShadow_29_22209"/>
<feBlend mode="normal" in="SourceGraphic" in2="effect1_dropShadow_29_22209" result="shape"/>
</filter>
<linearGradient id="paint0_linear_29_22209" x1="29.3125" y1="4.42316" x2="6.78629" y2="30.4501" gradientUnits="userSpaceOnUse">
<stop stop-color="#FA7914"/>
<stop offset="1" stop-color="#F89B23" stop-opacity="0.7"/>
</linearGradient>
<linearGradient id="paint1_linear_29_22209" x1="10.346" y1="33.8324" x2="40.5204" y2="40.1244" gradientUnits="userSpaceOnUse">
<stop stop-color="#5D76F0"/>
<stop offset="1" stop-color="#5EA5F6" stop-opacity="0.7"/>
</linearGradient>
<linearGradient id="paint2_linear_29_22209" x1="33.2859" y1="6.23906" x2="44.9482" y2="37.0598" gradientUnits="userSpaceOnUse">
<stop stop-color="#B2BAFF"/>
<stop offset="1" stop-color="#8067F6"/>
</linearGradient>
</defs>
</svg>
