<svg width="56" height="56" viewBox="0 0 56 56" fill="none" xmlns="http://www.w3.org/2000/svg">
<g filter="url(#filter0_d_29_19517)">
<circle cx="28" cy="24" r="24" fill="white"/>
<path d="M8.6935 28.173C7.91544 25.8503 7.8559 23.4324 8.20095 21.0676C9.58928 11.5348 16.1209 5.435 25.0084 3.48789C25.9394 3.2838 26.9028 3.31237 27.8351 3.40353C28.7674 3.4947 29.3912 4.08386 29.4142 5.05265C29.4386 6.04457 28.9122 6.70994 27.892 6.8773C26.8717 7.04466 25.8622 6.94941 24.8514 7.05554C16.1385 7.96582 9.3376 15.1814 8.76521 24.0638C8.67591 25.4408 8.87211 26.7946 8.6935 28.173Z" fill="url(#paint0_linear_29_19517)"/>
<path d="M40.6345 38.6505C39.4424 40.2398 37.9011 41.4344 36.1691 42.3705C27.2383 47.1941 15.677 44.3707 9.8991 35.9591C9.69545 35.6813 9.51444 35.3873 9.35784 35.0801C8.92619 34.1726 9.05609 33.3317 9.86392 32.7303C10.6352 32.1547 11.4485 32.2636 12.125 32.9439C12.5055 33.316 12.8338 33.7385 13.1007 34.1998C17.9598 42.9733 29.6496 45.9464 38.7915 39.9595C39.4221 39.5513 40.0215 39.0886 40.6345 38.6505Z" fill="url(#paint1_linear_29_19517)"/>
<path d="M33.2168 6.11426C36.3777 6.64491 39.0516 8.15524 41.3709 10.2792C47.6928 16.0824 49.7834 25.2043 46.6806 33.2621C46.3653 34.0785 46.0216 34.8949 45.41 35.5453C44.7984 36.1957 44.0704 36.3944 43.2829 35.8419C42.5549 35.3317 42.2166 34.6541 42.5711 33.7669C42.7623 33.3098 42.9769 32.8629 43.2139 32.428C48.1352 23.0395 44.7361 12.0821 35.3886 7.20414C34.6674 6.82996 33.938 6.47755 33.2168 6.11426Z" fill="url(#paint2_linear_29_19517)"/>
<path d="M30.5566 18.8936C27.7122 18.8936 25.4062 21.1995 25.4062 24.044V25.1915L25.4077 25.1914C25.4073 25.8746 25.8193 26.5269 26.6634 27.0142C28.5255 28.0894 31.7781 27.9545 33.9283 26.7131C35.1043 26.0342 35.7055 25.1649 35.7056 24.3407L35.707 24.3405V24.044C35.707 21.1995 33.4011 18.8936 30.5566 18.8936Z" fill="url(#paint3_linear_29_19517)"/>
<path d="M30.5558 20.8538C32.3762 20.8538 33.8519 19.3781 33.8519 17.5578C33.8519 15.7374 32.3762 14.2617 30.5558 14.2617C28.7355 14.2617 27.2598 15.7374 27.2598 17.5578C27.2598 19.3781 28.7355 20.8538 30.5558 20.8538Z" fill="url(#paint4_radial_29_19517)"/>
<path d="M23.4981 22.9639C20.6536 22.9639 18.3477 25.2698 18.3477 28.1143V29.2618L18.3491 29.2617C18.3487 29.9449 18.7607 30.5972 19.6048 31.0845C21.4669 32.1596 24.7196 32.0248 26.8698 30.7834C28.0458 30.1045 28.6469 29.2352 28.647 28.411L28.6485 28.4108V28.1143C28.6485 25.2698 26.3425 22.9639 23.4981 22.9639Z" fill="url(#paint5_linear_29_19517)"/>
<path d="M19.4512 24.924H23.4954L22.9277 22.9941C21.5206 23.1484 20.284 23.8693 19.4512 24.924Z" fill="url(#paint6_linear_29_19517)"/>
<path d="M23.4972 24.9232C25.3176 24.9232 26.7933 23.4475 26.7933 21.6271C26.7933 19.8068 25.3176 18.3311 23.4972 18.3311C21.6769 18.3311 20.2012 19.8068 20.2012 21.6271C20.2012 23.4475 21.6769 24.9232 23.4972 24.9232Z" fill="url(#paint7_radial_29_19517)"/>
<path d="M32.5957 24.0205C29.7512 24.0205 27.4453 26.3264 27.4453 29.1709V30.3185L27.4468 30.3183C27.4464 31.0015 27.8584 31.6539 28.7024 32.1412C30.5645 33.2163 33.8172 33.0814 35.9674 31.84C37.1434 31.1611 37.7446 30.2918 37.7446 29.4676L37.7461 29.4675V29.1709C37.7461 26.3264 35.4402 24.0205 32.5957 24.0205Z" fill="url(#paint8_linear_29_19517)"/>
<path d="M28.5527 25.9816H32.597L32.0292 24.0518C30.6222 24.2061 29.3856 24.9269 28.5527 25.9816Z" fill="url(#paint9_linear_29_19517)"/>
<path d="M32.5949 25.9808C34.4153 25.9808 35.891 24.5051 35.891 22.6847C35.891 20.8644 34.4153 19.3887 32.5949 19.3887C30.7745 19.3887 29.2988 20.8644 29.2988 22.6847C29.2988 24.5051 30.7745 25.9808 32.5949 25.9808Z" fill="url(#paint10_radial_29_19517)"/>
</g>
<defs>
<filter id="filter0_d_29_19517" x="0" y="0" width="56" height="56" filterUnits="userSpaceOnUse" color-interpolation-filters="sRGB">
<feFlood flood-opacity="0" result="BackgroundImageFix"/>
<feColorMatrix in="SourceAlpha" type="matrix" values="0 0 0 0 0 0 0 0 0 0 0 0 0 0 0 0 0 0 127 0" result="hardAlpha"/>
<feOffset dy="4"/>
<feGaussianBlur stdDeviation="2"/>
<feComposite in2="hardAlpha" operator="out"/>
<feColorMatrix type="matrix" values="0 0 0 0 0 0 0 0 0 0 0 0 0 0 0 0 0 0 0.25 0"/>
<feBlend mode="normal" in2="BackgroundImageFix" result="effect1_dropShadow_29_19517"/>
<feBlend mode="normal" in="SourceGraphic" in2="effect1_dropShadow_29_19517" result="shape"/>
</filter>
<linearGradient id="paint0_linear_29_19517" x1="29.3125" y1="4.42316" x2="6.78629" y2="30.4501" gradientUnits="userSpaceOnUse">
<stop stop-color="#FA7914"/>
<stop offset="1" stop-color="#F89B23" stop-opacity="0.7"/>
</linearGradient>
<linearGradient id="paint1_linear_29_19517" x1="10.3499" y1="33.8305" x2="40.5243" y2="40.1224" gradientUnits="userSpaceOnUse">
<stop stop-color="#5D76F0"/>
<stop offset="1" stop-color="#5EA5F6" stop-opacity="0.7"/>
</linearGradient>
<linearGradient id="paint2_linear_29_19517" x1="33.2859" y1="6.23906" x2="44.9482" y2="37.0598" gradientUnits="userSpaceOnUse">
<stop stop-color="#B2BAFF"/>
<stop offset="1" stop-color="#8067F6"/>
</linearGradient>
<linearGradient id="paint3_linear_29_19517" x1="25.4062" y1="23.3168" x2="35.707" y2="23.3168" gradientUnits="userSpaceOnUse">
<stop stop-color="#F7A527"/>
<stop offset="0.3492" stop-color="#F6B82F"/>
<stop offset="1" stop-color="#F6C033" stop-opacity="0.94"/>
</linearGradient>
<radialGradient id="paint4_radial_29_19517" cx="0" cy="0" r="1" gradientUnits="userSpaceOnUse" gradientTransform="translate(31.2688 16.3715) scale(4.68049)">
<stop stop-color="#F6C234"/>
<stop offset="0.2" stop-color="#F6BE32"/>
<stop offset="0.4" stop-color="#F6BA30"/>
<stop offset="0.6" stop-color="#F6BA30"/>
<stop offset="0.8" stop-color="#F6BF32"/>
<stop offset="1" stop-color="#F6BF32"/>
</radialGradient>
<linearGradient id="paint5_linear_29_19517" x1="18.3477" y1="27.3871" x2="28.6485" y2="27.3871" gradientUnits="userSpaceOnUse">
<stop stop-color="#F98419"/>
<stop offset="0.4762" stop-color="#FA7B15"/>
<stop offset="1" stop-color="#F89A23"/>
</linearGradient>
<linearGradient id="paint6_linear_29_19517" x1="23.6543" y1="23.9591" x2="19.6686" y2="23.9591" gradientUnits="userSpaceOnUse">
<stop offset="0.0319" stop-color="#F98318" stop-opacity="0.76"/>
<stop offset="1" stop-color="#F89521" stop-opacity="0.74"/>
</linearGradient>
<radialGradient id="paint7_radial_29_19517" cx="0" cy="0" r="1" gradientUnits="userSpaceOnUse" gradientTransform="translate(24.2102 20.4409) scale(4.68049)">
<stop stop-color="#F8911F"/>
<stop offset="0.2328" stop-color="#F8921F"/>
<stop offset="0.58" stop-color="#F8911F"/>
<stop offset="0.6609" stop-color="#F89520"/>
<stop offset="1" stop-color="#F89A22"/>
</radialGradient>
<linearGradient id="paint8_linear_29_19517" x1="27.4453" y1="28.4437" x2="37.7461" y2="28.4437" gradientUnits="userSpaceOnUse">
<stop stop-color="#5D95F4"/>
<stop offset="0.3492" stop-color="#5D84F1"/>
<stop offset="1" stop-color="#5D97F4"/>
</linearGradient>
<linearGradient id="paint9_linear_29_19517" x1="32.7559" y1="25.0167" x2="28.7702" y2="25.0167" gradientUnits="userSpaceOnUse">
<stop offset="0.0319" stop-color="#5D8AF2"/>
<stop offset="1" stop-color="#5D8DF2"/>
</linearGradient>
<radialGradient id="paint10_radial_29_19517" cx="0" cy="0" r="1" gradientUnits="userSpaceOnUse" gradientTransform="translate(33.3078 21.4984) scale(4.68049)">
<stop stop-color="#698CF2"/>
<stop offset="0.1381" stop-color="#6888F2"/>
<stop offset="0.3932" stop-color="#6080EE"/>
<stop offset="0.7344" stop-color="#6181F1"/>
<stop offset="1" stop-color="#5D7EF1"/>
</radialGradient>
</defs>
</svg>
