<svg width="52" height="52" viewBox="0 0 52 52" fill="none" xmlns="http://www.w3.org/2000/svg">
<g filter="url(#filter0_d_29_22336)">
<rect x="2" y="2" width="48" height="48" rx="24" fill="white"/>
<rect x="2.2745" y="2.2745" width="47.451" height="47.451" rx="23.7255" stroke="black" stroke-opacity="0.2" stroke-width="0.548995"/>
</g>
<path d="M25.9338 33.0736C29.8786 33.0736 33.0765 29.8757 33.0765 25.9308C33.0765 21.986 29.8786 18.7881 25.9338 18.7881C21.9889 18.7881 18.791 21.986 18.791 25.9308C18.791 29.8757 21.9889 33.0736 25.9338 33.0736Z" fill="#EAEAEA"/>
<path d="M25.9322 12.666C22.269 12.666 18.9527 14.1507 16.5527 16.5517L20.8812 20.8802C22.1741 19.5873 23.9598 18.7884 25.9322 18.7884C27.9046 18.7884 29.6913 19.5873 30.9831 20.8802L35.3117 16.5517C32.9117 14.1507 29.5954 12.666 25.9322 12.666Z" fill="#FA7B16"/>
<path d="M16.5536 16.5537C14.1526 18.9547 12.668 22.271 12.668 25.9342C12.668 29.5974 14.1526 32.9137 16.5536 35.3137L20.8821 30.9851C19.5893 29.6923 18.7903 27.9066 18.7903 25.9342C18.7903 23.9618 19.5893 22.1751 20.8821 20.8832L16.5536 16.5537Z" fill="#F6BE32"/>
<path d="M30.9863 20.8803C32.2792 22.1731 33.0781 23.9588 33.0781 25.9312C33.0781 27.9036 32.2792 29.6904 30.9863 30.9822L35.3148 35.3107C37.7158 32.9107 39.2005 29.5944 39.2005 25.9312C39.2005 22.268 37.7158 18.9517 35.3148 16.5518L30.9863 20.8803Z" fill="#5D76F0"/>
<path d="M14.709 25.9303L24.4027 28.8038C24.7231 28.917 25.5731 28.9915 25.9333 28.9915C27.6251 28.9915 28.9945 27.6221 28.9945 25.9313C28.9945 24.2406 27.6251 22.8691 25.9333 22.8691C25.5741 22.8691 24.7558 22.9426 24.4344 23.0569L14.709 25.9303Z" fill="#434854"/>
<path d="M14.709 25.9303L24.4027 28.8038C24.7231 28.917 25.5731 28.9915 25.9333 28.9915C27.6251 28.9915 28.9945 27.6221 28.9945 25.9313C28.9945 24.2406 27.6251 22.8691 25.9333 22.8691C25.5741 22.8691 24.7558 22.9426 24.4344 23.0569L14.709 25.9303Z" fill="#434854"/>
<path d="M25.9325 26.9519C26.4961 26.9519 26.9529 26.4951 26.9529 25.9315C26.9529 25.368 26.4961 24.9111 25.9325 24.9111C25.369 24.9111 24.9121 25.368 24.9121 25.9315C24.9121 26.4951 25.369 26.9519 25.9325 26.9519Z" fill="#EAEAEA"/>
<path opacity="0.1" d="M25.9331 13.6864C33.0871 13.6864 38.9023 19.3537 39.1727 26.4413C39.1799 26.2709 39.1982 26.1036 39.1982 25.9311C39.1982 18.6047 33.2595 12.666 25.9331 12.666C18.6067 12.666 12.668 18.6047 12.668 25.9311C12.668 26.1036 12.6874 26.2709 12.6935 26.4413C12.9639 19.3537 18.7791 13.6864 25.9331 13.6864Z" fill="black"/>
<path d="M30.9831 30.9814C29.6903 32.2743 27.9046 33.0733 25.9322 33.0733C23.9598 33.0733 22.1731 32.2743 20.8812 30.9814L16.5527 35.31C18.9527 37.7109 22.269 39.1956 25.9322 39.1956C29.5954 39.1956 32.9117 37.7109 35.3117 35.31L30.9831 30.9814Z" fill="#EAEAEA"/>
<g opacity="0.2">
<path d="M25.9328 28.9915C25.5726 28.9915 24.7227 28.918 24.4022 28.8037L17.2697 26.6895L14.8789 27.8792L24.9247 29.0262C25.2604 29.0823 26.1104 29.0068 26.4655 28.9445C26.4787 28.9425 26.489 28.9364 26.5022 28.9333C26.3175 28.968 26.1277 28.9915 25.9328 28.9915Z" fill="black"/>
</g>
<path d="M6.6935 29.505C5.91544 27.1824 5.8559 24.7645 6.20095 22.3996C7.58928 12.8669 14.1209 6.76703 23.0084 4.81993C23.9394 4.61583 24.9028 4.6444 25.8351 4.73557C26.7674 4.82673 27.3912 5.41589 27.4142 6.38468C27.4386 7.3766 26.9122 8.04197 25.892 8.20933C24.8717 8.37669 23.8622 8.28144 22.8514 8.38757C14.1385 9.29785 7.3376 16.5134 6.76521 25.3958C6.67591 26.7728 6.87211 28.1266 6.6935 29.505Z" fill="url(#paint0_linear_29_22336)"/>
<path d="M38.6345 39.9845C37.4424 41.5737 35.9011 42.7684 34.1691 43.7045C25.2383 48.5281 13.677 45.7047 7.8991 37.2931C7.69545 37.0152 7.51444 36.7213 7.35784 36.4141C6.92619 35.5066 7.05609 34.6657 7.86392 34.0643C8.63522 33.4887 9.44846 33.5976 10.125 34.2779C10.5055 34.6499 10.8338 35.0725 11.1007 35.5338C15.9598 44.3073 27.6496 47.2803 36.7915 41.2934C37.4221 40.8852 38.0215 40.4226 38.6345 39.9845Z" fill="url(#paint1_linear_29_22336)"/>
<path d="M31.2168 7.44629C34.3777 7.97695 37.0516 9.48727 39.3709 11.6113C45.6928 17.4145 47.7834 26.5363 44.6806 34.5941C44.3653 35.4105 44.0216 36.2269 43.41 36.8773C42.7984 37.5277 42.0704 37.7264 41.2829 37.174C40.5549 36.6637 40.2166 35.9861 40.5711 35.099C40.7623 34.6418 40.9769 34.195 41.2139 33.7601C46.1352 24.3715 42.7361 13.4141 33.3886 8.53618C32.6674 8.16199 31.938 7.80958 31.2168 7.44629Z" fill="url(#paint2_linear_29_22336)"/>
<defs>
<filter id="filter0_d_29_22336" x="0.353014" y="0.353014" width="51.294" height="51.294" filterUnits="userSpaceOnUse" color-interpolation-filters="sRGB">
<feFlood flood-opacity="0" result="BackgroundImageFix"/>
<feColorMatrix in="SourceAlpha" type="matrix" values="0 0 0 0 0 0 0 0 0 0 0 0 0 0 0 0 0 0 127 0" result="hardAlpha"/>
<feOffset/>
<feGaussianBlur stdDeviation="0.823493"/>
<feComposite in2="hardAlpha" operator="out"/>
<feColorMatrix type="matrix" values="0 0 0 0 0 0 0 0 0 0 0 0 0 0 0 0 0 0 0.25 0"/>
<feBlend mode="normal" in2="BackgroundImageFix" result="effect1_dropShadow_29_22336"/>
<feBlend mode="normal" in="SourceGraphic" in2="effect1_dropShadow_29_22336" result="shape"/>
</filter>
<linearGradient id="paint0_linear_29_22336" x1="27.3125" y1="5.75519" x2="4.78629" y2="31.7821" gradientUnits="userSpaceOnUse">
<stop stop-color="#FA7914"/>
<stop offset="1" stop-color="#F89B23" stop-opacity="0.7"/>
</linearGradient>
<linearGradient id="paint1_linear_29_22336" x1="8.34986" y1="35.1645" x2="38.5243" y2="41.4564" gradientUnits="userSpaceOnUse">
<stop stop-color="#5D76F0"/>
<stop offset="1" stop-color="#5EA5F6" stop-opacity="0.7"/>
</linearGradient>
<linearGradient id="paint2_linear_29_22336" x1="31.2859" y1="7.57109" x2="42.9482" y2="38.3919" gradientUnits="userSpaceOnUse">
<stop stop-color="#B2BAFF"/>
<stop offset="1" stop-color="#8067F6"/>
</linearGradient>
</defs>
</svg>
