<svg width="76" height="74" viewBox="0 0 76 74" fill="none" xmlns="http://www.w3.org/2000/svg">
<path d="M3.704 57.6217H4.8V63.2217H3.704V60.9017H1.624V63.2217H0.52V57.6217H1.624V59.8457H3.704V57.6217ZM9.43231 59.2217H10.4643V63.2217H9.43231V62.7737C9.18165 63.147 8.78431 63.3337 8.24031 63.3337C7.80298 63.3337 7.44031 63.187 7.15231 62.8937C6.86965 62.6003 6.72831 62.195 6.72831 61.6777V59.2217H7.76031V61.5497C7.76031 61.8163 7.83231 62.0217 7.97631 62.1657C8.12031 62.3043 8.31231 62.3737 8.55231 62.3737C8.81898 62.3737 9.03231 62.291 9.19231 62.1257C9.35231 61.9603 9.43231 61.7123 9.43231 61.3817V59.2217ZM16.8335 59.1097C17.2922 59.1097 17.6575 59.259 17.9295 59.5577C18.2068 59.8563 18.3455 60.2563 18.3455 60.7577V63.2217H17.3135V60.8297C17.3135 60.5897 17.2548 60.403 17.1375 60.2697C17.0202 60.1363 16.8548 60.0697 16.6415 60.0697C16.4068 60.0697 16.2228 60.147 16.0895 60.3017C15.9615 60.4563 15.8975 60.6803 15.8975 60.9737V63.2217H14.8655V60.8297C14.8655 60.5897 14.8068 60.403 14.6895 60.2697C14.5722 60.1363 14.4068 60.0697 14.1935 60.0697C13.9642 60.0697 13.7802 60.147 13.6415 60.3017C13.5082 60.4563 13.4415 60.6803 13.4415 60.9737V63.2217H12.4095V59.2217H13.4415V59.6457C13.6815 59.2883 14.0522 59.1097 14.5535 59.1097C15.0442 59.1097 15.4068 59.3017 15.6415 59.6857C15.9082 59.3017 16.3055 59.1097 16.8335 59.1097ZM23.262 59.2217H24.294V63.2217H23.262V62.7497C22.9527 63.139 22.518 63.3337 21.958 63.3337C21.4247 63.3337 20.966 63.131 20.582 62.7257C20.2033 62.315 20.014 61.8137 20.014 61.2217C20.014 60.6297 20.2033 60.131 20.582 59.7257C20.966 59.315 21.4247 59.1097 21.958 59.1097C22.518 59.1097 22.9527 59.3043 23.262 59.6937V59.2217ZM21.358 62.0377C21.566 62.2457 21.83 62.3497 22.15 62.3497C22.47 62.3497 22.734 62.2457 22.942 62.0377C23.1553 61.8243 23.262 61.5523 23.262 61.2217C23.262 60.891 23.1553 60.6217 22.942 60.4137C22.734 60.2003 22.47 60.0937 22.15 60.0937C21.83 60.0937 21.566 60.2003 21.358 60.4137C21.15 60.6217 21.046 60.891 21.046 61.2217C21.046 61.5523 21.15 61.8243 21.358 62.0377ZM28.4538 59.1097C28.8911 59.1097 29.2511 59.2563 29.5338 59.5497C29.8218 59.843 29.9658 60.2483 29.9658 60.7657V63.2217H28.9338V60.8937C28.9338 60.627 28.8618 60.4243 28.7178 60.2857C28.5738 60.1417 28.3818 60.0697 28.1418 60.0697C27.8751 60.0697 27.6618 60.1523 27.5018 60.3177C27.3418 60.483 27.2618 60.731 27.2618 61.0617V63.2217H26.2298V59.2217H27.2618V59.6697C27.5125 59.2963 27.9098 59.1097 28.4538 59.1097ZM37.967 63.2217L36.839 61.2777H35.999V63.2217H34.895V57.6217H37.135C37.6523 57.6217 38.0923 57.803 38.455 58.1657C38.8177 58.5283 38.999 58.9657 38.999 59.4777C38.999 59.8243 38.9003 60.147 38.703 60.4457C38.5057 60.739 38.2443 60.9603 37.919 61.1097L39.159 63.2217H37.967ZM35.999 58.6537V60.3097H37.135C37.343 60.3097 37.5217 60.2297 37.671 60.0697C37.8203 59.9043 37.895 59.707 37.895 59.4777C37.895 59.2483 37.8203 59.0537 37.671 58.8937C37.5217 58.7337 37.343 58.6537 37.135 58.6537H35.999ZM41.4299 61.6457C41.5686 62.147 41.9446 62.3977 42.5579 62.3977C42.9526 62.3977 43.2513 62.2643 43.4539 61.9977L44.2859 62.4777C43.8913 63.0483 43.3099 63.3337 42.5419 63.3337C41.8806 63.3337 41.3499 63.1337 40.9499 62.7337C40.5499 62.3337 40.3499 61.8297 40.3499 61.2217C40.3499 60.619 40.5473 60.1177 40.9419 59.7177C41.3366 59.3123 41.8433 59.1097 42.4619 59.1097C43.0486 59.1097 43.5313 59.3123 43.9099 59.7177C44.2939 60.123 44.4859 60.6243 44.4859 61.2217C44.4859 61.355 44.4726 61.4963 44.4459 61.6457H41.4299ZM41.4139 60.8457H43.4539C43.3953 60.5737 43.2726 60.371 43.0859 60.2377C42.9046 60.1043 42.6966 60.0377 42.4619 60.0377C42.1846 60.0377 41.9553 60.1097 41.7739 60.2537C41.5926 60.3923 41.4726 60.5897 41.4139 60.8457ZM47.0021 60.3577C47.0021 60.4643 47.0715 60.5523 47.2101 60.6217C47.3541 60.6857 47.5275 60.7443 47.7301 60.7977C47.9328 60.8457 48.1355 60.9097 48.3381 60.9897C48.5408 61.0643 48.7115 61.1923 48.8501 61.3737C48.9941 61.555 49.0661 61.7817 49.0661 62.0537C49.0661 62.4643 48.9115 62.7817 48.6021 63.0057C48.2981 63.2243 47.9168 63.3337 47.4581 63.3337C46.6368 63.3337 46.0768 63.0163 45.7781 62.3817L46.6741 61.8777C46.7915 62.2243 47.0528 62.3977 47.4581 62.3977C47.8261 62.3977 48.0101 62.283 48.0101 62.0537C48.0101 61.947 47.9381 61.8617 47.7941 61.7977C47.6555 61.7283 47.4848 61.667 47.2821 61.6137C47.0795 61.5603 46.8768 61.4937 46.6741 61.4137C46.4715 61.3337 46.2981 61.2083 46.1541 61.0377C46.0155 60.8617 45.9461 60.643 45.9461 60.3817C45.9461 59.987 46.0901 59.6777 46.3781 59.4537C46.6715 59.2243 47.0341 59.1097 47.4661 59.1097C47.7915 59.1097 48.0875 59.1843 48.3541 59.3337C48.6208 59.4777 48.8315 59.6857 48.9861 59.9577L48.1061 60.4377C47.9781 60.1657 47.7648 60.0297 47.4661 60.0297C47.3328 60.0297 47.2208 60.059 47.1301 60.1177C47.0448 60.1763 47.0021 60.2563 47.0021 60.3577ZM54.0831 62.7257C53.6725 63.131 53.1711 63.3337 52.5791 63.3337C51.9871 63.3337 51.4858 63.131 51.0751 62.7257C50.6698 62.315 50.4671 61.8137 50.4671 61.2217C50.4671 60.6297 50.6698 60.131 51.0751 59.7257C51.4858 59.315 51.9871 59.1097 52.5791 59.1097C53.1711 59.1097 53.6725 59.315 54.0831 59.7257C54.4938 60.131 54.6991 60.6297 54.6991 61.2217C54.6991 61.8137 54.4938 62.315 54.0831 62.7257ZM51.8031 62.0137C52.0111 62.2217 52.2698 62.3257 52.5791 62.3257C52.8885 62.3257 53.1471 62.2217 53.3551 62.0137C53.5631 61.8057 53.6671 61.5417 53.6671 61.2217C53.6671 60.9017 53.5631 60.6377 53.3551 60.4297C53.1471 60.2217 52.8885 60.1177 52.5791 60.1177C52.2698 60.1177 52.0111 60.2217 51.8031 60.4297C51.6005 60.6377 51.4991 60.9017 51.4991 61.2217C51.4991 61.5417 51.6005 61.8057 51.8031 62.0137ZM59.0651 59.2217H60.0971V63.2217H59.0651V62.7737C58.8145 63.147 58.4171 63.3337 57.8731 63.3337C57.4358 63.3337 57.0731 63.187 56.7851 62.8937C56.5025 62.6003 56.3611 62.195 56.3611 61.6777V59.2217H57.3931V61.5497C57.3931 61.8163 57.4651 62.0217 57.6091 62.1657C57.7531 62.3043 57.9451 62.3737 58.1851 62.3737C58.4518 62.3737 58.6651 62.291 58.8251 62.1257C58.9851 61.9603 59.0651 61.7123 59.0651 61.3817V59.2217ZM63.0743 59.9097C63.1703 59.6537 63.3276 59.4617 63.5463 59.3337C63.7703 59.2057 64.0183 59.1417 64.2903 59.1417V60.2937C63.9756 60.2563 63.693 60.3203 63.4423 60.4857C63.197 60.651 63.0743 60.9257 63.0743 61.3097V63.2217H62.0423V59.2217H63.0743V59.9097ZM67.6494 63.3337C67.0468 63.3337 66.5428 63.131 66.1374 62.7257C65.7374 62.3203 65.5374 61.819 65.5374 61.2217C65.5374 60.6243 65.7374 60.123 66.1374 59.7177C66.5428 59.3123 67.0468 59.1097 67.6494 59.1097C68.0388 59.1097 68.3934 59.203 68.7134 59.3897C69.0334 59.5763 69.2761 59.827 69.4414 60.1417L68.5534 60.6617C68.4734 60.4963 68.3508 60.3657 68.1854 60.2697C68.0254 60.1737 67.8441 60.1257 67.6414 60.1257C67.3321 60.1257 67.0761 60.2297 66.8734 60.4377C66.6708 60.6403 66.5694 60.9017 66.5694 61.2217C66.5694 61.5363 66.6708 61.7977 66.8734 62.0057C67.0761 62.2083 67.3321 62.3097 67.6414 62.3097C67.8494 62.3097 68.0334 62.2643 68.1934 62.1737C68.3588 62.0777 68.4814 61.947 68.5614 61.7817L69.4574 62.2937C69.2814 62.6083 69.0334 62.8617 68.7134 63.0537C68.3934 63.2403 68.0388 63.3337 67.6494 63.3337ZM71.8128 61.6457C71.9514 62.147 72.3274 62.3977 72.9408 62.3977C73.3354 62.3977 73.6341 62.2643 73.8368 61.9977L74.6688 62.4777C74.2741 63.0483 73.6928 63.3337 72.9248 63.3337C72.2634 63.3337 71.7328 63.1337 71.3328 62.7337C70.9328 62.3337 70.7327 61.8297 70.7327 61.2217C70.7327 60.619 70.9301 60.1177 71.3248 59.7177C71.7194 59.3123 72.2261 59.1097 72.8448 59.1097C73.4314 59.1097 73.9141 59.3123 74.2928 59.7177C74.6768 60.123 74.8688 60.6243 74.8688 61.2217C74.8688 61.355 74.8554 61.4963 74.8288 61.6457H71.8128ZM71.7968 60.8457H73.8368C73.7781 60.5737 73.6554 60.371 73.4688 60.2377C73.2874 60.1043 73.0794 60.0377 72.8448 60.0377C72.5674 60.0377 72.3381 60.1097 72.1568 60.2537C71.9754 60.3923 71.8554 60.5897 71.7968 60.8457Z" fill="black"/>
<g clip-path="url(#clip0_29_18514)">
<path d="M61.9919 29.8322H55.7097V28.2919C55.7097 27.2859 54.8922 26.4684 53.8872 26.4684H51.0625C49.5044 24.5222 47.1109 23.2847 44.4888 23.2847C42.73 23.2847 40.4538 22.9547 39.4272 21.4106V20.4497C40.8906 19.2638 41.9153 17.5584 42.2144 15.6159H42.5416C43.6047 15.6159 44.47 14.7516 44.47 13.6884V11.3578C44.47 10.5619 43.9834 9.8775 43.2916 9.585V8.13469C43.2916 5.98781 42.2791 3.95438 40.5709 2.64188C39.9972 0.88875 38.5825 0 36.3625 0H32.7438C28.9234 0 25.8156 3.10594 25.8156 6.92344V9.58594C25.1237 9.87844 24.6372 10.5628 24.6372 11.3588V13.6894C24.6372 14.7516 25.5025 15.6169 26.5656 15.6169H26.8928C27.1909 17.5603 28.2175 19.2666 29.6819 20.4525V21.4116C28.6534 22.9556 26.3772 23.2856 24.6184 23.2856C19.9825 23.2856 16.2109 27.0544 16.2109 31.6866V40.3341C16.2109 40.7484 16.5466 41.0841 16.9609 41.0841H39.4984V46.2066C39.4984 47.1956 40.3037 48.0009 41.2937 48.0009H61.9919C62.9837 48.0009 63.79 47.1956 63.79 46.2066V31.6266C63.79 30.6375 62.9828 29.8322 61.9919 29.8322ZM62.29 31.6266V36.3497C59.755 36.9666 56.8534 37.3528 53.8225 37.4784V36.2484C53.8225 35.5847 53.2816 35.0437 52.6178 35.0437H50.6697C50.0041 35.0437 49.4622 35.5837 49.4622 36.2484V37.4784C46.4322 37.3528 43.5325 36.9666 40.9975 36.3497V31.6266C40.9975 31.4672 41.1325 31.3322 41.2928 31.3322H61.9909C62.1531 31.3322 62.29 31.4672 62.29 31.6266ZM52.3225 36.5437V39.3253C52.3225 39.6919 52.0112 40.0022 51.6438 40.0022C51.2678 40.0022 50.9622 39.6984 50.9622 39.3253V36.5437H52.3225ZM49.4003 27.9684H50.2994C50.6678 28.5375 50.9547 29.1637 51.1431 29.8331H49.0759V28.2928C49.0759 28.1166 49.2241 27.9684 49.4003 27.9684ZM53.8872 27.9684C54.0616 27.9684 54.2097 28.1166 54.2097 28.2919V29.8322H52.69C52.5409 29.1778 52.3159 28.5525 52.0244 27.9675H53.8872V27.9684ZM34.5531 24.0581L31.5428 21.57C32.4691 21.9609 33.4862 22.1775 34.5531 22.1775C35.6219 22.1775 36.64 21.96 37.5672 21.5681L34.5531 24.0581ZM30.5706 22.7128L33.3447 25.0059L31.2194 26.6156L29.6884 23.4956C30.0203 23.2641 30.3166 23.0044 30.5706 22.7128ZM34.5531 27.4912C34.0741 27.4912 33.655 27.2119 33.4591 26.8013L34.5531 25.9716L35.6491 26.8013C35.4531 27.2128 35.0341 27.4912 34.5531 27.4912ZM35.7616 25.0059L38.5375 22.7128C38.7916 23.0044 39.0869 23.2641 39.4178 23.4947L37.8869 26.6156L35.7616 25.0059ZM42.97 13.6894C42.97 13.9247 42.7778 14.1169 42.5416 14.1169H42.3044V10.9341H42.5416C42.7778 10.9341 42.97 11.1244 42.97 11.3588V13.6894ZM32.7438 1.5H36.3625C38.4391 1.5 38.9613 2.40469 39.1984 3.29062C39.2434 3.45937 39.3466 3.6075 39.4891 3.70875C40.9309 4.73156 41.7916 6.38625 41.7916 8.13562V8.23875H41.5544C39.4581 8.23875 38.14 7.50562 37.1481 5.78906C37.0469 5.61469 36.8809 5.48812 36.6859 5.4375C36.4909 5.38688 36.2838 5.41781 36.1112 5.52188C33.4122 7.15219 30.9241 8.23875 27.5556 8.23875H27.3156V6.92344C27.3156 3.93281 29.7503 1.5 32.7438 1.5ZM26.1372 13.6894V11.3588C26.1372 11.1281 26.3331 10.9341 26.5656 10.9341H26.8028V14.1169H26.5656C26.3331 14.1169 26.1372 13.9209 26.1372 13.6894ZM28.3028 14.4384V9.72187C30.9756 9.60375 33.3691 8.83687 36.2566 7.17656C37.3572 8.73 38.8281 9.5475 40.8034 9.70781V14.4384C40.8034 17.8791 37.9994 20.6775 34.5531 20.6775C31.1069 20.6775 28.3028 17.8791 28.3028 14.4384ZM17.71 31.6856C17.71 27.8803 20.8084 24.7847 24.6175 24.7847C26.0697 24.7847 27.3222 24.5813 28.3581 24.1884L30.2744 28.0931C30.3728 28.2947 30.5566 28.4409 30.7741 28.4925C30.8312 28.5066 30.8894 28.5131 30.9475 28.5131C31.1097 28.5131 31.2691 28.4606 31.4003 28.3612L32.2516 27.7163C32.4719 28.0688 32.77 28.365 33.1216 28.5834L30.9081 39.5831H24.1572V35.7375C24.1572 35.3231 23.8216 34.9875 23.4072 34.9875C22.9928 34.9875 22.6572 35.3231 22.6572 35.7375V39.5822H17.71V31.6856ZM34.555 29.0672L36.6691 39.5831H32.4391L34.555 29.0672ZM38.1981 39.5831L35.9875 28.5825C36.3381 28.3641 36.6362 28.0688 36.8566 27.7163L37.7059 28.3603C37.8372 28.4597 37.9966 28.5122 38.1588 28.5122C38.2169 28.5122 38.275 28.5056 38.3322 28.4916C38.5497 28.44 38.7334 28.2937 38.8319 28.0922L40.7481 24.1866C41.7831 24.5794 43.0366 24.7828 44.4888 24.7828C46.2072 24.7828 47.8066 25.4297 49.0337 26.5031C48.2022 26.6728 47.5759 27.4097 47.5759 28.29V29.8303H41.2937C40.3037 29.8303 39.4984 30.6356 39.4984 31.6247V39.5803H38.1981V39.5831ZM61.9919 46.5H41.2928C41.1325 46.5 40.9975 46.365 40.9975 46.2056V37.89C43.5588 38.4853 46.4519 38.8575 49.4622 38.9794V39.3253C49.4622 40.5253 50.4409 41.5022 51.6438 41.5022C52.8456 41.5022 53.8225 40.5253 53.8225 39.3253V38.9794C56.8338 38.8584 59.7278 38.4853 62.29 37.89V46.2056C62.29 46.365 62.1531 46.5 61.9919 46.5Z" fill="#7A8EA3"/>
</g>
<defs>
<clipPath id="clip0_29_18514">
<rect width="48" height="48" fill="white" transform="translate(16)"/>
</clipPath>
</defs>
</svg>
