<svg width="49" height="74" viewBox="0 0 49 74" fill="none" xmlns="http://www.w3.org/2000/svg">
<path d="M1.624 62.1657H3.984V63.2217H0.52V57.6217H3.944V58.6777H1.624V59.8697H3.744V60.9097H1.624V62.1657ZM10.1382 59.1097C10.5969 59.1097 10.9622 59.259 11.2342 59.5577C11.5115 59.8563 11.6502 60.2563 11.6502 60.7577V63.2217H10.6182V60.8297C10.6182 60.5897 10.5595 60.403 10.4422 60.2697C10.3249 60.1363 10.1595 60.0697 9.94619 60.0697C9.71152 60.0697 9.52752 60.147 9.39419 60.3017C9.26619 60.4563 9.20219 60.6803 9.20219 60.9737V63.2217H8.17019V60.8297C8.17019 60.5897 8.11152 60.403 7.99419 60.2697C7.87685 60.1363 7.71152 60.0697 7.49819 60.0697C7.26885 60.0697 7.08485 60.147 6.94619 60.3017C6.81285 60.4563 6.74619 60.6803 6.74619 60.9737V63.2217H5.71419V59.2217H6.74619V59.6457C6.98619 59.2883 7.35685 59.1097 7.85819 59.1097C8.34885 59.1097 8.71152 59.3017 8.94619 59.6857C9.21285 59.3017 9.61019 59.1097 10.1382 59.1097ZM15.8547 59.1097C16.3934 59.1097 16.852 59.315 17.2307 59.7257C17.6147 60.131 17.8067 60.6297 17.8067 61.2217C17.8067 61.8137 17.6147 62.315 17.2307 62.7257C16.852 63.131 16.3934 63.3337 15.8547 63.3337C15.2947 63.3337 14.8627 63.139 14.5587 62.7497V64.8217H13.5267V59.2217H14.5587V59.6937C14.8627 59.3043 15.2947 59.1097 15.8547 59.1097ZM14.8707 62.0377C15.0787 62.2457 15.3427 62.3497 15.6627 62.3497C15.9827 62.3497 16.2467 62.2457 16.4547 62.0377C16.668 61.8243 16.7747 61.5523 16.7747 61.2217C16.7747 60.891 16.668 60.6217 16.4547 60.4137C16.2467 60.2003 15.9827 60.0937 15.6627 60.0937C15.3427 60.0937 15.0787 60.2003 14.8707 60.4137C14.6627 60.6217 14.5587 60.891 14.5587 61.2217C14.5587 61.5523 14.6627 61.8243 14.8707 62.0377ZM19.5345 63.2217V57.3817H20.5665V63.2217H19.5345ZM25.9191 62.7257C25.5084 63.131 25.0071 63.3337 24.4151 63.3337C23.8231 63.3337 23.3217 63.131 22.9111 62.7257C22.5057 62.315 22.3031 61.8137 22.3031 61.2217C22.3031 60.6297 22.5057 60.131 22.9111 59.7257C23.3217 59.315 23.8231 59.1097 24.4151 59.1097C25.0071 59.1097 25.5084 59.315 25.9191 59.7257C26.3297 60.131 26.5351 60.6297 26.5351 61.2217C26.5351 61.8137 26.3297 62.315 25.9191 62.7257ZM23.6391 62.0137C23.8471 62.2217 24.1057 62.3257 24.4151 62.3257C24.7244 62.3257 24.9831 62.2217 25.1911 62.0137C25.3991 61.8057 25.5031 61.5417 25.5031 61.2217C25.5031 60.9017 25.3991 60.6377 25.1911 60.4297C24.9831 60.2217 24.7244 60.1177 24.4151 60.1177C24.1057 60.1177 23.8471 60.2217 23.6391 60.4297C23.4364 60.6377 23.3351 60.9017 23.3351 61.2217C23.3351 61.5417 23.4364 61.8057 23.6391 62.0137ZM30.7128 59.2217H31.8168L30.3608 63.2217C30.1528 63.7977 29.8755 64.2137 29.5288 64.4697C29.1875 64.731 28.7608 64.8483 28.2488 64.8217V63.8617C28.5261 63.867 28.7448 63.8083 28.9048 63.6857C29.0701 63.563 29.2008 63.3657 29.2968 63.0937L27.6568 59.2217H28.7848L29.8248 61.9097L30.7128 59.2217ZM34.0237 61.6457C34.1624 62.147 34.5384 62.3977 35.1517 62.3977C35.5464 62.3977 35.845 62.2643 36.0477 61.9977L36.8797 62.4777C36.485 63.0483 35.9037 63.3337 35.1357 63.3337C34.4744 63.3337 33.9437 63.1337 33.5437 62.7337C33.1437 62.3337 32.9437 61.8297 32.9437 61.2217C32.9437 60.619 33.141 60.1177 33.5357 59.7177C33.9304 59.3123 34.437 59.1097 35.0557 59.1097C35.6424 59.1097 36.125 59.3123 36.5037 59.7177C36.8877 60.123 37.0797 60.6243 37.0797 61.2217C37.0797 61.355 37.0664 61.4963 37.0397 61.6457H34.0237ZM34.0077 60.8457H36.0477C35.989 60.5737 35.8664 60.371 35.6797 60.2377C35.4984 60.1043 35.2904 60.0377 35.0557 60.0377C34.7784 60.0377 34.549 60.1097 34.3677 60.2537C34.1864 60.3923 34.0664 60.5897 34.0077 60.8457ZM39.6409 61.6457C39.7795 62.147 40.1555 62.3977 40.7689 62.3977C41.1635 62.3977 41.4622 62.2643 41.6649 61.9977L42.4969 62.4777C42.1022 63.0483 41.5209 63.3337 40.7529 63.3337C40.0915 63.3337 39.5609 63.1337 39.1609 62.7337C38.7609 62.3337 38.5609 61.8297 38.5609 61.2217C38.5609 60.619 38.7582 60.1177 39.1529 59.7177C39.5475 59.3123 40.0542 59.1097 40.6729 59.1097C41.2595 59.1097 41.7422 59.3123 42.1209 59.7177C42.5049 60.123 42.6969 60.6243 42.6969 61.2217C42.6969 61.355 42.6835 61.4963 42.6569 61.6457H39.6409ZM39.6249 60.8457H41.6649C41.6062 60.5737 41.4835 60.371 41.2969 60.2377C41.1155 60.1043 40.9075 60.0377 40.6729 60.0377C40.3955 60.0377 40.1662 60.1097 39.9849 60.2537C39.8035 60.3923 39.6835 60.5897 39.6249 60.8457ZM45.2131 60.3577C45.2131 60.4643 45.2824 60.5523 45.4211 60.6217C45.5651 60.6857 45.7384 60.7443 45.9411 60.7977C46.1437 60.8457 46.3464 60.9097 46.5491 60.9897C46.7517 61.0643 46.9224 61.1923 47.0611 61.3737C47.2051 61.555 47.2771 61.7817 47.2771 62.0537C47.2771 62.4643 47.1224 62.7817 46.8131 63.0057C46.5091 63.2243 46.1277 63.3337 45.6691 63.3337C44.8477 63.3337 44.2877 63.0163 43.9891 62.3817L44.8851 61.8777C45.0024 62.2243 45.2637 62.3977 45.6691 62.3977C46.0371 62.3977 46.2211 62.283 46.2211 62.0537C46.2211 61.947 46.1491 61.8617 46.0051 61.7977C45.8664 61.7283 45.6957 61.667 45.4931 61.6137C45.2904 61.5603 45.0877 61.4937 44.8851 61.4137C44.6824 61.3337 44.5091 61.2083 44.3651 61.0377C44.2264 60.8617 44.1571 60.643 44.1571 60.3817C44.1571 59.987 44.3011 59.6777 44.5891 59.4537C44.8824 59.2243 45.2451 59.1097 45.6771 59.1097C46.0024 59.1097 46.2984 59.1843 46.5651 59.3337C46.8317 59.4777 47.0424 59.6857 47.1971 59.9577L46.3171 60.4377C46.1891 60.1657 45.9757 60.0297 45.6771 60.0297C45.5437 60.0297 45.4317 60.059 45.3411 60.1177C45.2557 60.1763 45.2131 60.2563 45.2131 60.3577Z" fill="black"/>
<path d="M40.4729 38.8915C40.0846 38.8915 39.7698 39.2063 39.7698 39.5947V46.2053C39.7698 46.4194 39.5956 46.5936 39.3816 46.5936H35.6019V32.747C35.6019 32.3587 35.287 32.0438 34.8987 32.0438C34.5104 32.0438 34.1956 32.3587 34.1956 32.747V46.5937H26.5845L28.7917 44.1655C29.0328 43.9002 29.1465 43.5223 29.0958 43.1543C29.0949 43.1471 29.0937 43.14 29.0925 43.1329L26.9904 30.7141L27.5567 29.8615C27.8698 30.0839 28.111 30.298 28.5634 30.298C29.0235 30.298 29.4537 30.0405 29.6654 29.6166V29.6165L31.8826 25.1727L36.9335 27.1288C37.1162 27.2072 39.7696 28.4021 39.7696 31.5574V36.3133C39.7695 36.7015 40.0843 37.0164 40.4727 37.0164C40.861 37.0164 41.1759 36.7016 41.1759 36.3133V31.5574C41.1759 27.4001 37.6163 25.889 37.4648 25.8266C37.4604 25.8248 37.4559 25.823 37.4514 25.8213L29.045 22.5657V20.5942C30.3802 19.5558 31.306 18.0165 31.5384 16.2604C32.2041 16.2135 32.8218 15.9649 33.3263 15.5311C33.985 14.9646 34.363 14.14 34.363 13.2693C34.363 12.5467 34.1023 11.8567 33.6377 11.319V8.71434C33.6376 3.90928 29.7284 0 24.9234 0C20.1183 0 16.2091 3.90928 16.2091 8.71434V11.3872C15.7395 11.9195 15.4841 12.5746 15.4841 13.2692C15.4841 14.1402 15.862 14.9647 16.5209 15.5313C17.025 15.9649 17.6424 16.2132 18.3079 16.2602C18.5422 18.0492 19.495 19.6459 20.9439 20.6982V22.5657L12.5466 25.8212C12.5422 25.8229 12.5378 25.8247 12.5334 25.8264C12.3818 25.8888 8.82227 27.3999 8.82227 31.5572V46.2052C8.82227 47.1947 9.6273 47.9997 10.6168 47.9997H17.3159C17.7042 47.9997 18.019 47.6849 18.019 47.2966C18.019 46.9083 17.7042 46.5935 17.3159 46.5935H15.8031V32.747C15.8031 32.3587 15.4883 32.0438 15.1 32.0438C14.7116 32.0438 14.3968 32.3587 14.3968 32.747V46.5937H10.6169C10.4029 46.5937 10.2287 46.4195 10.2287 46.2054V31.5573C10.2287 28.3914 12.8999 27.1992 13.064 27.1291L18.1109 25.1725L20.3283 29.6165C20.5405 30.0414 20.9712 30.298 21.4304 30.298C21.8805 30.298 22.1194 30.0872 22.4371 29.8615L23.0035 30.7141L20.9015 43.133C20.9003 43.14 20.8992 43.147 20.8982 43.1542C20.8474 43.522 20.9611 43.9001 21.2023 44.1656L23.4095 46.5938H20.5975C20.2091 46.5938 19.8943 46.9086 19.8943 47.2969C19.8943 47.6852 20.2091 48 20.5975 48H39.3817C40.3712 48 41.1762 47.1949 41.1762 46.2054V39.5947C41.176 39.2063 40.8612 38.8915 40.4729 38.8915ZM30.5655 24.6627L28.4984 28.8055C28.447 28.7691 27.3516 27.9907 26.0125 27.0398C26.5935 26.3226 25.9137 27.1616 28.5657 23.8883L30.5655 24.6627ZM26.4094 29.0468L25.8733 29.8538H24.1199L23.5839 29.0468L24.9967 28.0434L26.4094 29.0468ZM22.35 22.7926V21.4767C23.2043 21.8211 24.1172 21.9807 25.0088 21.9807C25.9306 21.9807 26.8346 21.7842 27.6386 21.4327V22.7983L24.9967 26.0594L22.35 22.7926ZM32.9567 13.2693C32.9566 13.7299 32.7571 14.1657 32.4093 14.4649C32.1793 14.6627 31.9015 14.7892 31.5973 14.8387V11.7002C32.4055 11.8314 32.9567 12.5017 32.9567 13.2693ZM18.2498 14.8387C17.4325 14.706 16.8904 14.0302 16.8904 13.2692C16.8904 12.5175 17.5135 11.9057 18.2498 11.7355V14.8387ZM18.2875 10.3028C18.0636 10.3284 17.8069 10.3891 17.6155 10.4542V8.71434C17.6155 4.68469 20.8938 1.40634 24.9235 1.40634C28.9531 1.40634 32.2314 4.68469 32.2314 8.71434V10.4059C32.027 10.3437 31.815 10.3027 31.5974 10.2833C31.5974 9.60488 31.6033 9.73575 29.3838 7.34953C28.9756 6.91097 28.3004 6.81909 27.7866 7.15481C25.3369 8.75503 22.3486 9.55894 19.5914 9.36094C18.9866 9.31566 18.4358 9.714 18.2875 10.3028ZM19.6561 15.3923V11.0055V10.7744C22.6913 10.9522 25.8734 10.0505 28.4441 8.40413C29.4621 9.49706 30.0133 10.0703 30.1911 10.2884C30.1911 10.84 30.1911 14.7607 30.1911 15.3922C30.1911 18.2466 27.8636 20.5743 25.0089 20.5743C21.8032 20.5744 19.6561 18.0876 19.6561 15.3923ZM21.495 28.8055L19.4279 24.6627L21.4241 23.8896L23.978 27.0419C22.6793 27.9641 21.6129 28.7218 21.495 28.8055ZM22.3017 43.2846L24.337 31.2599H25.6561L27.6913 43.2846L24.9966 46.2492L22.3017 43.2846Z" fill="#7A8EA3"/>
</svg>
