<svg width="48" height="48" viewBox="0 0 48 48" fill="none" xmlns="http://www.w3.org/2000/svg">
<path d="M39.4729 38.8915C39.0846 38.8915 38.7698 39.2063 38.7698 39.5947V46.2053C38.7698 46.4194 38.5956 46.5936 38.3816 46.5936H34.6019V32.747C34.6019 32.3587 34.287 32.0438 33.8987 32.0438C33.5104 32.0438 33.1956 32.3587 33.1956 32.747V46.5937H25.5845L27.7917 44.1655C28.0328 43.9002 28.1465 43.5223 28.0958 43.1543C28.0949 43.1471 28.0937 43.14 28.0925 43.1329L25.9904 30.7141L26.5567 29.8615C26.8698 30.0839 27.111 30.298 27.5634 30.298C28.0235 30.298 28.4537 30.0405 28.6654 29.6166V29.6165L30.8826 25.1727L35.9335 27.1288C36.1162 27.2072 38.7696 28.4021 38.7696 31.5574V36.3133C38.7695 36.7015 39.0843 37.0164 39.4727 37.0164C39.861 37.0164 40.1759 36.7016 40.1759 36.3133V31.5574C40.1759 27.4001 36.6163 25.889 36.4648 25.8266C36.4604 25.8248 36.4559 25.823 36.4514 25.8213L28.045 22.5657V20.5942C29.3802 19.5558 30.306 18.0165 30.5384 16.2604C31.2041 16.2135 31.8218 15.9649 32.3263 15.5311C32.985 14.9646 33.363 14.14 33.363 13.2693C33.363 12.5467 33.1023 11.8567 32.6377 11.319V8.71434C32.6376 3.90928 28.7284 0 23.9234 0C19.1183 0 15.2091 3.90928 15.2091 8.71434V11.3872C14.7395 11.9195 14.4841 12.5746 14.4841 13.2692C14.4841 14.1402 14.862 14.9647 15.5209 15.5313C16.025 15.9649 16.6424 16.2132 17.3079 16.2602C17.5422 18.0492 18.495 19.6459 19.9439 20.6982V22.5657L11.5466 25.8212C11.5422 25.8229 11.5378 25.8247 11.5334 25.8264C11.3818 25.8888 7.82227 27.3999 7.82227 31.5572V46.2052C7.82227 47.1947 8.6273 47.9997 9.61683 47.9997H16.3159C16.7042 47.9997 17.019 47.6849 17.019 47.2966C17.019 46.9083 16.7042 46.5935 16.3159 46.5935H14.8031V32.747C14.8031 32.3587 14.4883 32.0438 14.1 32.0438C13.7116 32.0438 13.3968 32.3587 13.3968 32.747V46.5937H9.61692C9.40289 46.5937 9.2287 46.4195 9.2287 46.2054V31.5573C9.2287 28.3914 11.8999 27.1992 12.064 27.1291L17.1109 25.1725L19.3283 29.6165C19.5405 30.0414 19.9712 30.298 20.4304 30.298C20.8805 30.298 21.1194 30.0872 21.4371 29.8615L22.0035 30.7141L19.9015 43.133C19.9003 43.14 19.8992 43.147 19.8982 43.1542C19.8474 43.522 19.9611 43.9001 20.2023 44.1656L22.4095 46.5938H19.5975C19.2091 46.5938 18.8943 46.9086 18.8943 47.2969C18.8943 47.6852 19.2091 48 19.5975 48H38.3817C39.3712 48 40.1762 47.1949 40.1762 46.2054V39.5947C40.176 39.2063 39.8612 38.8915 39.4729 38.8915ZM29.5655 24.6627L27.4984 28.8055C27.447 28.7691 26.3516 27.9907 25.0125 27.0398C25.5935 26.3226 24.9137 27.1616 27.5657 23.8883L29.5655 24.6627ZM25.4094 29.0468L24.8733 29.8538H23.1199L22.5839 29.0468L23.9967 28.0434L25.4094 29.0468ZM21.35 22.7926V21.4767C22.2043 21.8211 23.1172 21.9807 24.0088 21.9807C24.9306 21.9807 25.8346 21.7842 26.6386 21.4327V22.7983L23.9967 26.0594L21.35 22.7926ZM31.9567 13.2693C31.9566 13.7299 31.7571 14.1657 31.4093 14.4649C31.1793 14.6627 30.9015 14.7892 30.5973 14.8387V11.7002C31.4055 11.8314 31.9567 12.5017 31.9567 13.2693ZM17.2498 14.8387C16.4325 14.706 15.8904 14.0302 15.8904 13.2692C15.8904 12.5175 16.5135 11.9057 17.2498 11.7355V14.8387ZM17.2875 10.3028C17.0636 10.3284 16.8069 10.3891 16.6155 10.4542V8.71434C16.6155 4.68469 19.8938 1.40634 23.9235 1.40634C27.9531 1.40634 31.2314 4.68469 31.2314 8.71434V10.4059C31.027 10.3437 30.815 10.3027 30.5974 10.2833C30.5974 9.60488 30.6033 9.73575 28.3838 7.34953C27.9756 6.91097 27.3004 6.81909 26.7866 7.15481C24.3369 8.75503 21.3486 9.55894 18.5914 9.36094C17.9866 9.31566 17.4358 9.714 17.2875 10.3028ZM18.6561 15.3923V11.0055V10.7744C21.6913 10.9522 24.8734 10.0505 27.4441 8.40413C28.4621 9.49706 29.0133 10.0703 29.1911 10.2884C29.1911 10.84 29.1911 14.7607 29.1911 15.3922C29.1911 18.2466 26.8636 20.5743 24.0089 20.5743C20.8032 20.5744 18.6561 18.0876 18.6561 15.3923ZM20.495 28.8055L18.4279 24.6627L20.4241 23.8896L22.978 27.0419C21.6793 27.9641 20.6129 28.7218 20.495 28.8055ZM21.3017 43.2846L23.337 31.2599H24.6561L26.6913 43.2846L23.9966 46.2492L21.3017 43.2846Z" fill="#7A8EA3"/>
</svg>
