<svg width="48" height="48" viewBox="0 0 48 48" fill="none" xmlns="http://www.w3.org/2000/svg">
<g clip-path="url(#clip0_29_18518)">
<path d="M33.3904 38.3995H26.1904V31.9995C26.1904 29.7905 24.3995 27.9995 22.1904 27.9995H17.3904V23.6076L28.2544 15.8476C28.4304 15.723 28.5487 15.5326 28.5824 15.3196C28.6143 15.1073 28.5595 14.8911 28.4304 14.7196L26.0304 11.5196C25.7718 11.1758 25.2876 11.098 24.9344 11.3436L16.7344 17.0156C18.1844 14.2838 17.1452 10.8937 14.4134 9.44375C11.6816 7.99375 8.29155 9.03295 6.84165 11.7648C5.67575 13.9613 6.09805 16.6635 7.87845 18.3996H6.99045C6.76475 18.4001 6.54965 18.496 6.39845 18.6636L1.23045 24.4076C-0.188452 25.9929 -0.118152 28.4114 1.39045 29.9116L5.62245 34.1675C5.78875 34.334 6.01995 34.4189 6.25445 34.3995C6.49195 34.3813 6.70895 34.2582 6.84645 34.0636L7.79045 32.7276V47.1996C7.79045 47.6413 8.14865 47.9995 8.59045 47.9995H13.3904C13.8322 47.9995 14.1904 47.6413 14.1904 47.1996V34.3995H19.7904V38.3995H17.3904C16.9486 38.3995 16.5904 38.7577 16.5904 39.1995V47.1996C16.5904 47.6413 16.9486 47.9995 17.3904 47.9995H33.3904C33.8322 47.9995 34.1904 47.6413 34.1904 47.1996V39.1995C34.1904 38.7577 33.8323 38.3995 33.3904 38.3995ZM7.79045 14.3996C7.79045 12.1905 9.58135 10.3996 11.7904 10.3996C13.9995 10.3996 15.7904 12.1905 15.7904 14.3996C15.7904 16.6087 13.9995 18.3996 11.7904 18.3996C9.58135 18.3996 7.79045 16.6087 7.79045 14.3996ZM13.6944 19.9996L12.5904 22.2076L11.4864 19.9996H13.6944ZM7.79045 28.5675L6.51045 27.1996L7.79045 25.9196V28.5675ZM13.3904 32.7995C12.9486 32.7995 12.5904 33.1577 12.5904 33.5996V46.3995H9.39045V23.9996C9.38885 23.6766 9.19315 23.3863 8.89445 23.2636C8.59655 23.1383 8.25255 23.2046 8.02245 23.4316L4.82245 26.6316C4.51755 26.9427 4.51755 27.4404 4.82245 27.7515L7.43845 30.4795L6.08645 32.3675L2.50245 28.7996C1.58855 27.8952 1.54975 26.4312 2.41445 25.4796L7.35045 19.9996H9.69445L11.8784 24.3596C12.0799 24.7528 12.5619 24.9083 12.9552 24.7068C13.1045 24.6303 13.226 24.5089 13.3024 24.3596L15.6144 19.7436L25.2144 13.0956L26.6624 15.0236L16.1264 22.5516C15.9166 22.7009 15.7916 22.9421 15.7904 23.1996V28.7996C15.7904 29.2414 16.1486 29.5996 16.5904 29.5996H22.1904C23.5159 29.5996 24.5904 30.674 24.5904 31.9995V38.3995H21.3904V33.5996C21.3904 33.1577 21.0322 32.7995 20.5904 32.7995H13.3904ZM32.5905 46.3995H18.1904V39.9995H32.5905V46.3995Z" fill="#7A8EA3"/>
<path d="M46.9906 6.4C43.8978 6.4 41.3906 3.8928 41.3906 0.8C41.3906 0.3582 41.0324 0 40.5906 0C40.1488 0 39.7906 0.3582 39.7906 0.8C39.7906 3.8928 37.2834 6.4 34.1906 6.4C33.7488 6.4 33.3906 6.7582 33.3906 7.2C33.3906 7.6418 33.7488 8 34.1906 8C37.2834 8 39.7906 10.5072 39.7906 13.6C39.7906 14.0418 40.1488 14.4 40.5906 14.4C41.0324 14.4 41.3906 14.0418 41.3906 13.6C41.3906 10.5072 43.8978 8 46.9906 8C47.4324 8 47.7906 7.6418 47.7906 7.2C47.7906 6.7582 47.4325 6.4 46.9906 6.4ZM40.5906 10.304C39.9009 8.974 38.8167 7.8898 37.4866 7.2C38.8166 6.5102 39.9008 5.426 40.5906 4.096C41.2804 5.426 42.3646 6.5102 43.6946 7.2C42.3646 7.8898 41.2804 8.974 40.5906 10.304Z" fill="#7A8EA3"/>
<path d="M27.0965 20.1531L24.916 21.752L25.8621 23.0422L28.0426 21.4433L27.0965 20.1531Z" fill="#7A8EA3"/>
<path d="M36.9194 12.9546L28.9219 18.8232L29.8684 20.1132L37.8659 14.2445L36.9194 12.9546Z" fill="#7A8EA3"/>
<path d="M33.7404 8.93233L28.9414 12.1318L29.8289 13.463L34.6279 10.2635L33.7404 8.93233Z" fill="#7A8EA3"/>
</g>
<defs>
<clipPath id="clip0_29_18518">
<rect width="48" height="48" fill="white"/>
</clipPath>
</defs>
</svg>
