<svg width="48" height="48" viewBox="0 0 48 48" fill="none" xmlns="http://www.w3.org/2000/svg">
<g clip-path="url(#clip0_29_18516)">
<path d="M45.9919 29.8322H39.7097V28.2919C39.7097 27.2859 38.8922 26.4684 37.8872 26.4684H35.0625C33.5044 24.5222 31.1109 23.2847 28.4888 23.2847C26.73 23.2847 24.4538 22.9547 23.4272 21.4106V20.4497C24.8906 19.2638 25.9153 17.5584 26.2144 15.6159H26.5416C27.6047 15.6159 28.47 14.7516 28.47 13.6884V11.3578C28.47 10.5619 27.9834 9.8775 27.2916 9.585V8.13469C27.2916 5.98781 26.2791 3.95438 24.5709 2.64188C23.9972 0.88875 22.5825 0 20.3625 0H16.7438C12.9234 0 9.81562 3.10594 9.81562 6.92344V9.58594C9.12375 9.87844 8.63719 10.5628 8.63719 11.3588V13.6894C8.63719 14.7516 9.5025 15.6169 10.5656 15.6169H10.8928C11.1909 17.5603 12.2175 19.2666 13.6819 20.4525V21.4116C12.6534 22.9556 10.3772 23.2856 8.61844 23.2856C3.9825 23.2856 0.210938 27.0544 0.210938 31.6866V40.3341C0.210938 40.7484 0.546562 41.0841 0.960938 41.0841H23.4984V46.2066C23.4984 47.1956 24.3037 48.0009 25.2937 48.0009H45.9919C46.9837 48.0009 47.79 47.1956 47.79 46.2066V31.6266C47.79 30.6375 46.9828 29.8322 45.9919 29.8322ZM46.29 31.6266V36.3497C43.755 36.9666 40.8534 37.3528 37.8225 37.4784V36.2484C37.8225 35.5847 37.2816 35.0437 36.6178 35.0437H34.6697C34.0041 35.0437 33.4622 35.5837 33.4622 36.2484V37.4784C30.4322 37.3528 27.5325 36.9666 24.9975 36.3497V31.6266C24.9975 31.4672 25.1325 31.3322 25.2928 31.3322H45.9909C46.1531 31.3322 46.29 31.4672 46.29 31.6266ZM36.3225 36.5437V39.3253C36.3225 39.6919 36.0112 40.0022 35.6438 40.0022C35.2678 40.0022 34.9622 39.6984 34.9622 39.3253V36.5437H36.3225ZM33.4003 27.9684H34.2994C34.6678 28.5375 34.9547 29.1637 35.1431 29.8331H33.0759V28.2928C33.0759 28.1166 33.2241 27.9684 33.4003 27.9684ZM37.8872 27.9684C38.0616 27.9684 38.2097 28.1166 38.2097 28.2919V29.8322H36.69C36.5409 29.1778 36.3159 28.5525 36.0244 27.9675H37.8872V27.9684ZM18.5531 24.0581L15.5428 21.57C16.4691 21.9609 17.4862 22.1775 18.5531 22.1775C19.6219 22.1775 20.64 21.96 21.5672 21.5681L18.5531 24.0581ZM14.5706 22.7128L17.3447 25.0059L15.2194 26.6156L13.6884 23.4956C14.0203 23.2641 14.3166 23.0044 14.5706 22.7128ZM18.5531 27.4912C18.0741 27.4912 17.655 27.2119 17.4591 26.8013L18.5531 25.9716L19.6491 26.8013C19.4531 27.2128 19.0341 27.4912 18.5531 27.4912ZM19.7616 25.0059L22.5375 22.7128C22.7916 23.0044 23.0869 23.2641 23.4178 23.4947L21.8869 26.6156L19.7616 25.0059ZM26.97 13.6894C26.97 13.9247 26.7778 14.1169 26.5416 14.1169H26.3044V10.9341H26.5416C26.7778 10.9341 26.97 11.1244 26.97 11.3588V13.6894ZM16.7438 1.5H20.3625C22.4391 1.5 22.9613 2.40469 23.1984 3.29062C23.2434 3.45937 23.3466 3.6075 23.4891 3.70875C24.9309 4.73156 25.7916 6.38625 25.7916 8.13562V8.23875H25.5544C23.4581 8.23875 22.14 7.50562 21.1481 5.78906C21.0469 5.61469 20.8809 5.48812 20.6859 5.4375C20.4909 5.38688 20.2838 5.41781 20.1112 5.52188C17.4122 7.15219 14.9241 8.23875 11.5556 8.23875H11.3156V6.92344C11.3156 3.93281 13.7503 1.5 16.7438 1.5ZM10.1372 13.6894V11.3588C10.1372 11.1281 10.3331 10.9341 10.5656 10.9341H10.8028V14.1169H10.5656C10.3331 14.1169 10.1372 13.9209 10.1372 13.6894ZM12.3028 14.4384V9.72187C14.9756 9.60375 17.3691 8.83687 20.2566 7.17656C21.3572 8.73 22.8281 9.5475 24.8034 9.70781V14.4384C24.8034 17.8791 21.9994 20.6775 18.5531 20.6775C15.1069 20.6775 12.3028 17.8791 12.3028 14.4384ZM1.71 31.6856C1.71 27.8803 4.80844 24.7847 8.6175 24.7847C10.0697 24.7847 11.3222 24.5813 12.3581 24.1884L14.2744 28.0931C14.3728 28.2947 14.5566 28.4409 14.7741 28.4925C14.8312 28.5066 14.8894 28.5131 14.9475 28.5131C15.1097 28.5131 15.2691 28.4606 15.4003 28.3612L16.2516 27.7163C16.4719 28.0688 16.77 28.365 17.1216 28.5834L14.9081 39.5831H8.15719V35.7375C8.15719 35.3231 7.82156 34.9875 7.40719 34.9875C6.99281 34.9875 6.65719 35.3231 6.65719 35.7375V39.5822H1.71V31.6856ZM18.555 29.0672L20.6691 39.5831H16.4391L18.555 29.0672ZM22.1981 39.5831L19.9875 28.5825C20.3381 28.3641 20.6362 28.0688 20.8566 27.7163L21.7059 28.3603C21.8372 28.4597 21.9966 28.5122 22.1588 28.5122C22.2169 28.5122 22.275 28.5056 22.3322 28.4916C22.5497 28.44 22.7334 28.2937 22.8319 28.0922L24.7481 24.1866C25.7831 24.5794 27.0366 24.7828 28.4888 24.7828C30.2072 24.7828 31.8066 25.4297 33.0337 26.5031C32.2022 26.6728 31.5759 27.4097 31.5759 28.29V29.8303H25.2937C24.3037 29.8303 23.4984 30.6356 23.4984 31.6247V39.5803H22.1981V39.5831ZM45.9919 46.5H25.2928C25.1325 46.5 24.9975 46.365 24.9975 46.2056V37.89C27.5588 38.4853 30.4519 38.8575 33.4622 38.9794V39.3253C33.4622 40.5253 34.4409 41.5022 35.6438 41.5022C36.8456 41.5022 37.8225 40.5253 37.8225 39.3253V38.9794C40.8338 38.8584 43.7278 38.4853 46.29 37.89V46.2056C46.29 46.365 46.1531 46.5 45.9919 46.5Z" fill="#7A8EA3"/>
</g>
<defs>
<clipPath id="clip0_29_18516">
<rect width="48" height="48" fill="white"/>
</clipPath>
</defs>
</svg>
