<svg width="46" height="32" viewBox="0 0 46 32" fill="none" xmlns="http://www.w3.org/2000/svg">
<g clip-path="url(#clip0_640_1733)">
<path d="M6.15346 31.0286C9.30814 31.0286 11.8655 28.4712 11.8655 25.3165C11.8655 22.1619 9.30814 19.6045 6.15346 19.6045C2.99878 19.6045 0.441406 22.1619 0.441406 25.3165C0.441406 28.4712 2.99878 31.0286 6.15346 31.0286Z" fill="#F48636" stroke="#F48636" stroke-width="0.228482" stroke-miterlimit="10"/>
<path d="M17.5558 18.1194C20.7105 18.1194 23.2679 15.562 23.2679 12.4074C23.2679 9.25268 20.7105 6.69531 17.5558 6.69531C14.4011 6.69531 11.8438 9.25268 11.8438 12.4074C11.8438 15.562 14.4011 18.1194 17.5558 18.1194Z" fill="#F48636" stroke="#F48636" stroke-width="0.228482" stroke-miterlimit="10"/>
<path d="M28.4074 29.0403C31.562 29.0403 34.1194 26.4829 34.1194 23.3283C34.1194 20.1736 31.562 17.6162 28.4074 17.6162C25.2527 17.6162 22.6953 20.1736 22.6953 23.3283C22.6953 26.4829 25.2527 29.0403 28.4074 29.0403Z" fill="#F48636" stroke="#F48636" stroke-width="0.228482" stroke-miterlimit="10"/>
<path d="M39.5128 11.5384C42.6675 11.5384 45.2249 8.98099 45.2249 5.82631C45.2249 2.67163 42.6675 0.114258 39.5128 0.114258C36.3582 0.114258 33.8008 2.67163 33.8008 5.82631C33.8008 8.98099 36.3582 11.5384 39.5128 11.5384Z" fill="#F48636" stroke="#F48636" stroke-width="0.228482" stroke-miterlimit="10"/>
<path d="M38.3417 9.91328L36.4062 8.57422L29.7889 18.1385L31.7243 19.4776L38.3417 9.91328Z" fill="#F48636" stroke="#F48636" stroke-width="0.228482" stroke-miterlimit="10"/>
<path d="M26.8574 22.8672L28.5215 21.2031L20.2981 12.9797L18.634 14.6438L26.8574 22.8672Z" fill="#F48636" stroke="#F48636" stroke-width="0.228482" stroke-miterlimit="10"/>
<path d="M15.7745 15.7469L13.9766 14.2285L6.47306 23.1136L8.27103 24.632L15.7745 15.7469Z" fill="#F48636" stroke="#F48636" stroke-width="0.228482" stroke-miterlimit="10"/>
</g>
<defs>
<clipPath id="clip0_640_1733">
<rect width="45.011" height="31.1421" fill="white" transform="translate(0.326172)"/>
</clipPath>
</defs>
</svg>
